<?xml version="1.0" encoding="UTF-8" standalone="no"?>
<!DOCTYPE svg PUBLIC "-//W3C//DTD SVG 1.1//EN"
 "http://www.w3.org/Graphics/SVG/1.1/DTD/svg11.dtd">
<!-- Generated by graphviz version 13.0.0 (20250608.1624)
 -->
<!-- Title: dependency&#45;cruiser output Pages: 1 -->
<svg width="305pt" height="106pt"
 viewBox="0.00 0.00 305.00 106.00" xmlns="http://www.w3.org/2000/svg" xmlns:xlink="http://www.w3.org/1999/xlink">
<g id="graph0" class="graph" transform="scale(1 1) rotate(0) translate(4 102)">
<title>dependency&#45;cruiser output</title>
<polygon fill="white" stroke="none" points="-4,4 -4,-102 301,-102 301,4 -4,4"/>
<g id="clust1" class="cluster">
<title>cluster_src</title>
<path fill="#ffffff" stroke="black" stroke-width="2" d="M20,-8C20,-8 277,-8 277,-8 283,-8 289,-14 289,-20 289,-20 289,-78 289,-78 289,-84 283,-90 277,-90 277,-90 20,-90 20,-90 14,-90 8,-84 8,-78 8,-78 8,-20 8,-20 8,-14 14,-8 20,-8"/>
<text xml:space="preserve" text-anchor="middle" x="148.5" y="-77.45" font-family="Helvetica,sans-Serif" font-weight="bold" font-size="9.00">src</text>
</g>
<!-- src/controllers -->
<g id="node1" class="node">
<title>src/controllers</title>
<g id="a_node1"><a xlink:href="src/controllers" xlink:title="controllers">
<polygon fill="#ffffcc" stroke="black" points="144.38,-33.88 87.6,-33.88 85.62,-31.9 85.62,-16.12 142.4,-16.12 144.38,-18.1 144.38,-33.88"/>
<polyline fill="none" stroke="black" points="142.4,-31.9 85.62,-31.9"/>
<polyline fill="none" stroke="black" points="142.4,-31.9 142.4,-16.12"/>
<polyline fill="none" stroke="black" points="142.4,-31.9 144.38,-33.88"/>
<text xml:space="preserve" text-anchor="start" x="93.62" y="-21.32" font-family="Helvetica,sans-Serif" font-size="9.00">controllers</text>
</a>
</g>
</g>
<!-- src/services -->
<g id="node2" class="node">
<title>src/services</title>
<g id="a_node2"><a xlink:href="src/services" xlink:title="services">
<polygon fill="#ffffcc" stroke="black" points="214,-33.88 161.97,-33.88 160,-31.9 160,-16.12 212.03,-16.12 214,-18.1 214,-33.88"/>
<polyline fill="none" stroke="black" points="212.03,-31.9 160,-31.9"/>
<polyline fill="none" stroke="black" points="212.03,-31.9 212.03,-16.12"/>
<polyline fill="none" stroke="black" points="212.03,-31.9 214,-33.88"/>
<text xml:space="preserve" text-anchor="start" x="170.12" y="-21.32" font-family="Helvetica,sans-Serif" font-size="9.00">services</text>
</a>
</g>
</g>
<!-- src/controllers&#45;&gt;src/services -->
<g id="edge1" class="edge">
<title>src/controllers&#45;&gt;src/services</title>
<path fill="none" stroke="#000000" stroke-width="2" stroke-opacity="0.200000" d="M144.7,-25C144.7,-25 150.65,-25 150.65,-25"/>
<polygon fill="#000000" fill-opacity="0.200000" stroke="#000000" stroke-width="2" stroke-opacity="0.200000" points="150.65,-27.1 156.65,-25 150.65,-22.9 150.65,-27.1"/>
</g>
<!-- src/utils -->
<g id="node5" class="node">
<title>src/utils</title>
<g id="a_node5"><a xlink:href="src/utils" xlink:title="utils">
<polygon fill="#ffffcc" stroke="black" points="281,-33.88 228.97,-33.88 227,-31.9 227,-16.12 279.03,-16.12 281,-18.1 281,-33.88"/>
<polyline fill="none" stroke="black" points="279.03,-31.9 227,-31.9"/>
<polyline fill="none" stroke="black" points="279.03,-31.9 279.03,-16.12"/>
<polyline fill="none" stroke="black" points="279.03,-31.9 281,-33.88"/>
<text xml:space="preserve" text-anchor="start" x="245.75" y="-21.32" font-family="Helvetica,sans-Serif" font-size="9.00">utils</text>
</a>
</g>
</g>
<!-- src/services&#45;&gt;src/utils -->
<g id="edge4" class="edge">
<title>src/services&#45;&gt;src/utils</title>
<path fill="none" stroke="#000000" stroke-width="2" stroke-opacity="0.200000" d="M214.25,-25C214.25,-25 217.53,-25 217.53,-25"/>
<polygon fill="#000000" fill-opacity="0.200000" stroke="#000000" stroke-width="2" stroke-opacity="0.200000" points="217.53,-27.1 223.53,-25 217.53,-22.9 217.53,-27.1"/>
</g>
<!-- src/middleware -->
<g id="node3" class="node">
<title>src/middleware</title>
<g id="a_node3"><a xlink:href="src/middleware" xlink:title="middleware">
<polygon fill="#ffffcc" stroke="black" points="147,-63.88 84.97,-63.88 83,-61.9 83,-46.12 145.03,-46.12 147,-48.1 147,-63.88"/>
<polyline fill="none" stroke="black" points="145.03,-61.9 83,-61.9"/>
<polyline fill="none" stroke="black" points="145.03,-61.9 145.03,-46.12"/>
<polyline fill="none" stroke="black" points="145.03,-61.9 147,-63.88"/>
<text xml:space="preserve" text-anchor="start" x="91" y="-51.33" font-family="Helvetica,sans-Serif" font-size="9.00">middleware</text>
</a>
</g>
</g>
<!-- src/routes -->
<g id="node4" class="node">
<title>src/routes</title>
<g id="a_node4"><a xlink:href="src/routes" xlink:title="routes">
<polygon fill="#ffffcc" stroke="black" points="70,-48.88 17.97,-48.88 16,-46.9 16,-31.12 68.03,-31.12 70,-33.1 70,-48.88"/>
<polyline fill="none" stroke="black" points="68.03,-46.9 16,-46.9"/>
<polyline fill="none" stroke="black" points="68.03,-46.9 68.03,-31.12"/>
<polyline fill="none" stroke="black" points="68.03,-46.9 70,-48.88"/>
<text xml:space="preserve" text-anchor="start" x="30.25" y="-36.33" font-family="Helvetica,sans-Serif" font-size="9.00">routes</text>
</a>
</g>
</g>
<!-- src/routes&#45;&gt;src/controllers -->
<g id="edge2" class="edge">
<title>src/routes&#45;&gt;src/controllers</title>
<path fill="none" stroke="#000000" stroke-width="2" stroke-opacity="0.200000" d="M43,-30.66C43,-26.99 43,-23.62 43,-23.62 43,-23.62 76.27,-23.62 76.27,-23.62"/>
<polygon fill="#000000" fill-opacity="0.200000" stroke="#000000" stroke-width="2" stroke-opacity="0.200000" points="76.27,-25.73 82.27,-23.63 76.27,-21.53 76.27,-25.73"/>
</g>
<!-- src/routes&#45;&gt;src/middleware -->
<g id="edge3" class="edge">
<title>src/routes&#45;&gt;src/middleware</title>
<path fill="none" stroke="#000000" stroke-width="2" stroke-opacity="0.200000" d="M43,-49.34C43,-53.01 43,-56.38 43,-56.38 43,-56.38 73.76,-56.38 73.76,-56.38"/>
<polygon fill="#000000" fill-opacity="0.200000" stroke="#000000" stroke-width="2" stroke-opacity="0.200000" points="73.76,-58.48 79.76,-56.38 73.76,-54.28 73.76,-58.48"/>
</g>
</g>
</svg>
