<?xml version="1.0" encoding="UTF-8" standalone="no"?>
<!DOCTYPE svg PUBLIC "-//W3C//DTD SVG 1.1//EN"
 "http://www.w3.org/Graphics/SVG/1.1/DTD/svg11.dtd">
<!-- Generated by graphviz version 13.0.0 (20250608.1624)
 -->
<!-- Title: G Pages: 1 -->
<svg width="1515pt" height="822pt"
 viewBox="0.00 0.00 1515.00 822.00" xmlns="http://www.w3.org/2000/svg" xmlns:xlink="http://www.w3.org/1999/xlink">
<g id="graph0" class="graph" transform="scale(1 1) rotate(0) translate(21.6 800.75)">
<title>G</title>
<polygon fill="#111111" stroke="none" points="-21.6,21.6 -21.6,-800.75 1493.85,-800.75 1493.85,21.6 -21.6,21.6"/>
<!-- App.js -->
<g id="node1" class="node">
<title>App.js</title>
<path fill="none" stroke="#c6c5fe" d="M141.58,-191.15C141.58,-191.15 103.42,-191.15 103.42,-191.15 99.46,-191.15 95.5,-187.19 95.5,-183.24 95.5,-183.24 95.5,-175.32 95.5,-175.32 95.5,-171.36 99.46,-167.4 103.42,-167.4 103.42,-167.4 141.58,-167.4 141.58,-167.4 145.54,-167.4 149.5,-171.36 149.5,-175.32 149.5,-175.32 149.5,-183.24 149.5,-183.24 149.5,-187.19 145.54,-191.15 141.58,-191.15"/>
<text xml:space="preserve" text-anchor="middle" x="122.5" y="-173.85" font-family="Arial" font-size="14.00" fill="#c6c5fe">App.js</text>
</g>
<!-- components/Alerts/AlertProvider.js -->
<g id="node2" class="node">
<title>components/Alerts/AlertProvider.js</title>
<path fill="none" stroke="#c6c5fe" d="M400.58,-363.15C400.58,-363.15 193.42,-363.15 193.42,-363.15 189.46,-363.15 185.5,-359.19 185.5,-355.24 185.5,-355.24 185.5,-347.32 185.5,-347.32 185.5,-343.36 189.46,-339.4 193.42,-339.4 193.42,-339.4 400.58,-339.4 400.58,-339.4 404.54,-339.4 408.5,-343.36 408.5,-347.32 408.5,-347.32 408.5,-355.24 408.5,-355.24 408.5,-359.19 404.54,-363.15 400.58,-363.15"/>
<text xml:space="preserve" text-anchor="middle" x="297" y="-345.85" font-family="Arial" font-size="14.00" fill="#c6c5fe">components/Alerts/AlertProvider.js</text>
</g>
<!-- App.js&#45;&gt;components/Alerts/AlertProvider.js -->
<g id="edge1" class="edge">
<title>App.js&#45;&gt;components/Alerts/AlertProvider.js</title>
<path fill="none" stroke="#757575" d="M129.72,-191.43C139.73,-210.2 160.8,-246.76 185.5,-272.28 209.07,-296.63 241.01,-318.54 264.48,-333.08"/>
<polygon fill="#757575" stroke="#757575" points="262.64,-336.05 273,-338.24 266.27,-330.06 262.64,-336.05"/>
</g>
<!-- components/LoadingSpinner.js -->
<g id="node3" class="node">
<title>components/LoadingSpinner.js</title>
<path fill="none" stroke="#c6c5fe" d="M389.71,-171.15C389.71,-171.15 204.29,-171.15 204.29,-171.15 200.33,-171.15 196.38,-167.19 196.38,-163.24 196.38,-163.24 196.38,-155.32 196.38,-155.32 196.38,-151.36 200.33,-147.4 204.29,-147.4 204.29,-147.4 389.71,-147.4 389.71,-147.4 393.67,-147.4 397.62,-151.36 397.62,-155.32 397.62,-155.32 397.62,-163.24 397.62,-163.24 397.62,-167.19 393.67,-171.15 389.71,-171.15"/>
<text xml:space="preserve" text-anchor="middle" x="297" y="-153.85" font-family="Arial" font-size="14.00" fill="#c6c5fe">components/LoadingSpinner.js</text>
</g>
<!-- App.js&#45;&gt;components/LoadingSpinner.js -->
<g id="edge2" class="edge">
<title>App.js&#45;&gt;components/LoadingSpinner.js</title>
<path fill="none" stroke="#757575" d="M149.7,-176.24C159.71,-175.08 171.87,-173.67 184.85,-172.16"/>
<polygon fill="#757575" stroke="#757575" points="184.89,-175.68 194.42,-171.06 184.08,-168.73 184.89,-175.68"/>
</g>
<!-- context/AuthChecker.js -->
<g id="node4" class="node">
<title>context/AuthChecker.js</title>
<path fill="none" stroke="#c6c5fe" d="M890.08,-47.15C890.08,-47.15 751.92,-47.15 751.92,-47.15 747.96,-47.15 744,-43.19 744,-39.24 744,-39.24 744,-31.32 744,-31.32 744,-27.36 747.96,-23.4 751.92,-23.4 751.92,-23.4 890.08,-23.4 890.08,-23.4 894.04,-23.4 898,-27.36 898,-31.32 898,-31.32 898,-39.24 898,-39.24 898,-43.19 894.04,-47.15 890.08,-47.15"/>
<text xml:space="preserve" text-anchor="middle" x="821" y="-29.85" font-family="Arial" font-size="14.00" fill="#c6c5fe">context/AuthChecker.js</text>
</g>
<!-- App.js&#45;&gt;context/AuthChecker.js -->
<g id="edge3" class="edge">
<title>App.js&#45;&gt;context/AuthChecker.js</title>
<path fill="none" stroke="#757575" d="M137.8,-167.26C149.77,-157.85 167.71,-145.23 185.5,-138.28 371.21,-65.69 606.77,-44.25 732.13,-37.93"/>
<polygon fill="#757575" stroke="#757575" points="732.21,-41.43 742.03,-37.45 731.88,-34.43 732.21,-41.43"/>
</g>
<!-- layouts/Layout.js -->
<g id="node5" class="node">
<title>layouts/Layout.js</title>
<path fill="none" stroke="#c6c5fe" d="M600.71,-312.15C600.71,-312.15 500.04,-312.15 500.04,-312.15 496.08,-312.15 492.12,-308.19 492.12,-304.24 492.12,-304.24 492.12,-296.32 492.12,-296.32 492.12,-292.36 496.08,-288.4 500.04,-288.4 500.04,-288.4 600.71,-288.4 600.71,-288.4 604.67,-288.4 608.62,-292.36 608.62,-296.32 608.62,-296.32 608.62,-304.24 608.62,-304.24 608.62,-308.19 604.67,-312.15 600.71,-312.15"/>
<text xml:space="preserve" text-anchor="middle" x="550.38" y="-294.85" font-family="Arial" font-size="14.00" fill="#c6c5fe">layouts/Layout.js</text>
</g>
<!-- App.js&#45;&gt;layouts/Layout.js -->
<g id="edge4" class="edge">
<title>App.js&#45;&gt;layouts/Layout.js</title>
<path fill="none" stroke="#757575" d="M149.9,-189.14C160.85,-193.1 173.73,-197.59 185.5,-201.28 291.14,-234.34 415.95,-266.91 488.54,-285.22"/>
<polygon fill="#757575" stroke="#757575" points="487.28,-288.51 497.83,-287.56 488.98,-281.72 487.28,-288.51"/>
</g>
<!-- pages/Login.js -->
<g id="node6" class="node">
<title>pages/Login.js</title>
<path fill="none" stroke="#c6c5fe" d="M593.96,-211.15C593.96,-211.15 506.79,-211.15 506.79,-211.15 502.83,-211.15 498.88,-207.19 498.88,-203.24 498.88,-203.24 498.88,-195.32 498.88,-195.32 498.88,-191.36 502.83,-187.4 506.79,-187.4 506.79,-187.4 593.96,-187.4 593.96,-187.4 597.92,-187.4 601.88,-191.36 601.88,-195.32 601.88,-195.32 601.88,-203.24 601.88,-203.24 601.88,-207.19 597.92,-211.15 593.96,-211.15"/>
<text xml:space="preserve" text-anchor="middle" x="550.38" y="-193.85" font-family="Arial" font-size="14.00" fill="#c6c5fe">pages/Login.js</text>
</g>
<!-- App.js&#45;&gt;pages/Login.js -->
<g id="edge5" class="edge">
<title>App.js&#45;&gt;pages/Login.js</title>
<path fill="none" stroke="#757575" d="M149.82,-180.51C216.32,-183.64 392.52,-191.91 487.17,-196.36"/>
<polygon fill="#757575" stroke="#757575" points="486.91,-199.85 497.07,-196.82 487.24,-192.86 486.91,-199.85"/>
</g>
<!-- routes/routes.js -->
<g id="node7" class="node">
<title>routes/routes.js</title>
<path fill="none" stroke="#c6c5fe" d="M343.21,-493.15C343.21,-493.15 250.79,-493.15 250.79,-493.15 246.83,-493.15 242.88,-489.19 242.88,-485.24 242.88,-485.24 242.88,-477.32 242.88,-477.32 242.88,-473.36 246.83,-469.4 250.79,-469.4 250.79,-469.4 343.21,-469.4 343.21,-469.4 347.17,-469.4 351.12,-473.36 351.12,-477.32 351.12,-477.32 351.12,-485.24 351.12,-485.24 351.12,-489.19 347.17,-493.15 343.21,-493.15"/>
<text xml:space="preserve" text-anchor="middle" x="297" y="-475.85" font-family="Arial" font-size="14.00" fill="#c6c5fe">routes/routes.js</text>
</g>
<!-- App.js&#45;&gt;routes/routes.js -->
<g id="edge6" class="edge">
<title>App.js&#45;&gt;routes/routes.js</title>
<path fill="none" stroke="#757575" d="M125.32,-191.42C130.51,-223.19 147.51,-310.53 185.5,-372.28 208.04,-408.91 245.42,-442.23 270.39,-462.14"/>
<polygon fill="#757575" stroke="#757575" points="268.06,-464.76 278.09,-468.15 272.36,-459.24 268.06,-464.76"/>
</g>
<!-- services/firebase.js -->
<g id="node8" class="node">
<title>services/firebase.js</title>
<path fill="none" stroke="#cfffac" d="M1165.58,-110.15C1165.58,-110.15 1050.67,-110.15 1050.67,-110.15 1046.71,-110.15 1042.75,-106.19 1042.75,-102.24 1042.75,-102.24 1042.75,-94.32 1042.75,-94.32 1042.75,-90.36 1046.71,-86.4 1050.67,-86.4 1050.67,-86.4 1165.58,-86.4 1165.58,-86.4 1169.54,-86.4 1173.5,-90.36 1173.5,-94.32 1173.5,-94.32 1173.5,-102.24 1173.5,-102.24 1173.5,-106.19 1169.54,-110.15 1165.58,-110.15"/>
<text xml:space="preserve" text-anchor="middle" x="1108.12" y="-92.85" font-family="Arial" font-size="14.00" fill="#cfffac">services/firebase.js</text>
</g>
<!-- App.js&#45;&gt;services/firebase.js -->
<g id="edge7" class="edge">
<title>App.js&#45;&gt;services/firebase.js</title>
<path fill="none" stroke="#757575" d="M126.79,-166.96C133.57,-144.22 151.4,-95.92 185.5,-73.28 374.41,52.13 465.79,-25.67 692.25,-14.28 806.55,-8.53 838.73,13.5 949.75,-14.28 999.96,-26.84 1051.68,-58.79 1081.54,-79.47"/>
<polygon fill="#757575" stroke="#757575" points="1079.37,-82.22 1089.56,-85.13 1083.41,-76.51 1079.37,-82.22"/>
</g>
<!-- components/Alerts/ErrorAlert.js -->
<g id="node21" class="node">
<title>components/Alerts/ErrorAlert.js</title>
<path fill="none" stroke="#cfffac" d="M1201.96,-417.15C1201.96,-417.15 1014.29,-417.15 1014.29,-417.15 1010.33,-417.15 1006.38,-413.19 1006.38,-409.24 1006.38,-409.24 1006.38,-401.32 1006.38,-401.32 1006.38,-397.36 1010.33,-393.4 1014.29,-393.4 1014.29,-393.4 1201.96,-393.4 1201.96,-393.4 1205.92,-393.4 1209.88,-397.36 1209.88,-401.32 1209.88,-401.32 1209.88,-409.24 1209.88,-409.24 1209.88,-413.19 1205.92,-417.15 1201.96,-417.15"/>
<text xml:space="preserve" text-anchor="middle" x="1108.12" y="-399.85" font-family="Arial" font-size="14.00" fill="#cfffac">components/Alerts/ErrorAlert.js</text>
</g>
<!-- components/Alerts/AlertProvider.js&#45;&gt;components/Alerts/ErrorAlert.js -->
<g id="edge8" class="edge">
<title>components/Alerts/AlertProvider.js&#45;&gt;components/Alerts/ErrorAlert.js</title>
<path fill="none" stroke="#757575" d="M408.81,-361.53C487.78,-368.6 596.48,-377.85 692.25,-384.28 794.58,-391.15 911.25,-396.87 994.75,-400.59"/>
<polygon fill="#757575" stroke="#757575" points="994.39,-404.08 1004.53,-401.03 994.7,-397.09 994.39,-404.08"/>
</g>
<!-- assets/Header/logo&#45;infor.png -->
<g id="node13" class="node">
<title>assets/Header/logo&#45;infor.png</title>
<path fill="none" stroke="#cfffac" d="M1194.46,-249.15C1194.46,-249.15 1021.79,-249.15 1021.79,-249.15 1017.83,-249.15 1013.88,-245.19 1013.88,-241.24 1013.88,-241.24 1013.88,-233.32 1013.88,-233.32 1013.88,-229.36 1017.83,-225.4 1021.79,-225.4 1021.79,-225.4 1194.46,-225.4 1194.46,-225.4 1198.42,-225.4 1202.38,-229.36 1202.38,-233.32 1202.38,-233.32 1202.38,-241.24 1202.38,-241.24 1202.38,-245.19 1198.42,-249.15 1194.46,-249.15"/>
<text xml:space="preserve" text-anchor="middle" x="1108.12" y="-231.85" font-family="Arial" font-size="14.00" fill="#cfffac">assets/Header/logo&#45;infor.png</text>
</g>
<!-- components/LoadingSpinner.js&#45;&gt;assets/Header/logo&#45;infor.png -->
<g id="edge26" class="edge">
<title>components/LoadingSpinner.js&#45;&gt;assets/Header/logo&#45;infor.png</title>
<path fill="none" stroke="#757575" d="M397.95,-152.1C526.84,-145.14 757.31,-140.49 949.75,-178.28 993.29,-186.83 1040.64,-206.04 1071.9,-220.23"/>
<polygon fill="#757575" stroke="#757575" points="1070.34,-223.36 1080.88,-224.38 1073.27,-217.01 1070.34,-223.36"/>
</g>
<!-- styles/index.css -->
<g id="node31" class="node">
<title>styles/index.css</title>
<path fill="none" stroke="#cfffac" d="M597.71,-131.15C597.71,-131.15 503.04,-131.15 503.04,-131.15 499.08,-131.15 495.12,-127.19 495.12,-123.24 495.12,-123.24 495.12,-115.32 495.12,-115.32 495.12,-111.36 499.08,-107.4 503.04,-107.4 503.04,-107.4 597.71,-107.4 597.71,-107.4 601.67,-107.4 605.62,-111.36 605.62,-115.32 605.62,-115.32 605.62,-123.24 605.62,-123.24 605.62,-127.19 601.67,-131.15 597.71,-131.15"/>
<text xml:space="preserve" text-anchor="middle" x="550.38" y="-113.85" font-family="Arial" font-size="14.00" fill="#cfffac">styles/index.css</text>
</g>
<!-- components/LoadingSpinner.js&#45;&gt;styles/index.css -->
<g id="edge27" class="edge">
<title>components/LoadingSpinner.js&#45;&gt;styles/index.css</title>
<path fill="none" stroke="#757575" d="M375.47,-146.95C410.21,-141.42 450.73,-134.97 483.92,-129.69"/>
<polygon fill="#757575" stroke="#757575" points="484.05,-133.22 493.38,-128.19 482.95,-126.3 484.05,-133.22"/>
</g>
<!-- context/AuthChecker.js&#45;&gt;services/firebase.js -->
<g id="edge32" class="edge">
<title>context/AuthChecker.js&#45;&gt;services/firebase.js</title>
<path fill="none" stroke="#757575" d="M898.23,-46.55C915.24,-49.42 933.16,-52.71 949.75,-56.28 984.96,-63.85 1024.09,-74.28 1054.52,-82.86"/>
<polygon fill="#757575" stroke="#757575" points="1053.28,-86.14 1063.86,-85.51 1055.19,-79.41 1053.28,-86.14"/>
</g>
<!-- layouts/Layout.js&#45;&gt;services/firebase.js -->
<g id="edge37" class="edge">
<title>layouts/Layout.js&#45;&gt;services/firebase.js</title>
<path fill="none" stroke="#757575" d="M587.49,-287.95C615.72,-278.7 656.12,-266.29 692.25,-258.28 805.19,-233.24 843.33,-265.64 949.75,-220.28 1006.52,-196.07 1060.65,-146.29 1088.21,-118.38"/>
<polygon fill="#757575" stroke="#757575" points="1090.38,-121.18 1094.83,-111.56 1085.35,-116.3 1090.38,-121.18"/>
</g>
<!-- components/Layout/Header.js -->
<g id="node28" class="node">
<title>components/Layout/Header.js</title>
<path fill="none" stroke="#c6c5fe" d="M910.71,-333.15C910.71,-333.15 731.29,-333.15 731.29,-333.15 727.33,-333.15 723.38,-329.19 723.38,-325.24 723.38,-325.24 723.38,-317.32 723.38,-317.32 723.38,-313.36 727.33,-309.4 731.29,-309.4 731.29,-309.4 910.71,-309.4 910.71,-309.4 914.67,-309.4 918.62,-313.36 918.62,-317.32 918.62,-317.32 918.62,-325.24 918.62,-325.24 918.62,-329.19 914.67,-333.15 910.71,-333.15"/>
<text xml:space="preserve" text-anchor="middle" x="821" y="-315.85" font-family="Arial" font-size="14.00" fill="#c6c5fe">components/Layout/Header.js</text>
</g>
<!-- layouts/Layout.js&#45;&gt;components/Layout/Header.js -->
<g id="edge35" class="edge">
<title>layouts/Layout.js&#45;&gt;components/Layout/Header.js</title>
<path fill="none" stroke="#757575" d="M609,-304.78C638.98,-307.13 676.62,-310.07 711.78,-312.82"/>
<polygon fill="#757575" stroke="#757575" points="711.35,-316.29 721.59,-313.58 711.89,-309.32 711.35,-316.29"/>
</g>
<!-- components/Layout/Navigation.js -->
<g id="node29" class="node">
<title>components/Layout/Navigation.js</title>
<path fill="none" stroke="#c6c5fe" d="M920.83,-375.15C920.83,-375.15 721.17,-375.15 721.17,-375.15 717.21,-375.15 713.25,-371.19 713.25,-367.24 713.25,-367.24 713.25,-359.32 713.25,-359.32 713.25,-355.36 717.21,-351.4 721.17,-351.4 721.17,-351.4 920.83,-351.4 920.83,-351.4 924.79,-351.4 928.75,-355.36 928.75,-359.32 928.75,-359.32 928.75,-367.24 928.75,-367.24 928.75,-371.19 924.79,-375.15 920.83,-375.15"/>
<text xml:space="preserve" text-anchor="middle" x="821" y="-357.85" font-family="Arial" font-size="14.00" fill="#c6c5fe">components/Layout/Navigation.js</text>
</g>
<!-- layouts/Layout.js&#45;&gt;components/Layout/Navigation.js -->
<g id="edge36" class="edge">
<title>layouts/Layout.js&#45;&gt;components/Layout/Navigation.js</title>
<path fill="none" stroke="#757575" d="M588.11,-312.63C616.34,-321.77 656.44,-334.03 692.25,-342.28 702.57,-344.66 713.42,-346.87 724.26,-348.9"/>
<polygon fill="#757575" stroke="#757575" points="723.57,-352.33 734.03,-350.68 724.82,-345.44 723.57,-352.33"/>
</g>
<!-- pages/Login.js&#45;&gt;context/AuthChecker.js -->
<g id="edge46" class="edge">
<title>pages/Login.js&#45;&gt;context/AuthChecker.js</title>
<path fill="none" stroke="#757575" d="M584.91,-187.11C607.6,-177.42 636.85,-161.89 656.25,-140.28 683.39,-110.05 660.27,-81.32 692.25,-56.28 703.88,-47.17 717.97,-41.35 732.47,-37.74"/>
<polygon fill="#757575" stroke="#757575" points="733.07,-41.19 742.14,-35.7 731.63,-34.34 733.07,-41.19"/>
</g>
<!-- assets/Login/uach.jpg -->
<g id="node20" class="node">
<title>assets/Login/uach.jpg</title>
<path fill="none" stroke="#cfffac" d="M886.33,-211.15C886.33,-211.15 755.67,-211.15 755.67,-211.15 751.71,-211.15 747.75,-207.19 747.75,-203.24 747.75,-203.24 747.75,-195.32 747.75,-195.32 747.75,-191.36 751.71,-187.4 755.67,-187.4 755.67,-187.4 886.33,-187.4 886.33,-187.4 890.29,-187.4 894.25,-191.36 894.25,-195.32 894.25,-195.32 894.25,-203.24 894.25,-203.24 894.25,-207.19 890.29,-211.15 886.33,-211.15"/>
<text xml:space="preserve" text-anchor="middle" x="821" y="-193.85" font-family="Arial" font-size="14.00" fill="#cfffac">assets/Login/uach.jpg</text>
</g>
<!-- pages/Login.js&#45;&gt;assets/Login/uach.jpg -->
<g id="edge44" class="edge">
<title>pages/Login.js&#45;&gt;assets/Login/uach.jpg</title>
<path fill="none" stroke="#757575" d="M602.22,-199.28C639.93,-199.28 692.18,-199.28 736.05,-199.28"/>
<polygon fill="#757575" stroke="#757575" points="735.79,-202.78 745.79,-199.28 735.79,-195.78 735.79,-202.78"/>
</g>
<!-- components/Login/LoginForm.js -->
<g id="node32" class="node">
<title>components/Login/LoginForm.js</title>
<path fill="none" stroke="#c6c5fe" d="M917.83,-291.15C917.83,-291.15 724.17,-291.15 724.17,-291.15 720.21,-291.15 716.25,-287.19 716.25,-283.24 716.25,-283.24 716.25,-275.32 716.25,-275.32 716.25,-271.36 720.21,-267.4 724.17,-267.4 724.17,-267.4 917.83,-267.4 917.83,-267.4 921.79,-267.4 925.75,-271.36 925.75,-275.32 925.75,-275.32 925.75,-283.24 925.75,-283.24 925.75,-287.19 921.79,-291.15 917.83,-291.15"/>
<text xml:space="preserve" text-anchor="middle" x="821" y="-273.85" font-family="Arial" font-size="14.00" fill="#c6c5fe">components/Login/LoginForm.js</text>
</g>
<!-- pages/Login.js&#45;&gt;components/Login/LoginForm.js -->
<g id="edge45" class="edge">
<title>pages/Login.js&#45;&gt;components/Login/LoginForm.js</title>
<path fill="none" stroke="#757575" d="M592.76,-211.6C639.79,-225.61 716.63,-248.49 767.75,-263.72"/>
<polygon fill="#757575" stroke="#757575" points="766.54,-267.01 777.12,-266.51 768.53,-260.3 766.54,-267.01"/>
</g>
<!-- routes/routes.js&#45;&gt;pages/Login.js -->
<g id="edge56" class="edge">
<title>routes/routes.js&#45;&gt;pages/Login.js</title>
<path fill="none" stroke="#757575" d="M314,-469.19C337.58,-450.66 381.74,-413.05 408.5,-372.28 432.82,-335.22 417.88,-314.72 444.5,-279.28 464.03,-253.28 494.16,-231.51 517.12,-217.28"/>
<polygon fill="#757575" stroke="#757575" points="518.72,-220.4 525.49,-212.24 515.11,-214.4 518.72,-220.4"/>
</g>
<!-- components/Home/SheetView.js -->
<g id="node26" class="node">
<title>components/Home/SheetView.js</title>
<path fill="none" stroke="#c6c5fe" d="M648.33,-695.15C648.33,-695.15 452.42,-695.15 452.42,-695.15 448.46,-695.15 444.5,-691.19 444.5,-687.24 444.5,-687.24 444.5,-679.32 444.5,-679.32 444.5,-675.36 448.46,-671.4 452.42,-671.4 452.42,-671.4 648.33,-671.4 648.33,-671.4 652.29,-671.4 656.25,-675.36 656.25,-679.32 656.25,-679.32 656.25,-687.24 656.25,-687.24 656.25,-691.19 652.29,-695.15 648.33,-695.15"/>
<text xml:space="preserve" text-anchor="middle" x="550.38" y="-677.85" font-family="Arial" font-size="14.00" fill="#c6c5fe">components/Home/SheetView.js</text>
</g>
<!-- routes/routes.js&#45;&gt;components/Home/SheetView.js -->
<g id="edge52" class="edge">
<title>routes/routes.js&#45;&gt;components/Home/SheetView.js</title>
<path fill="none" stroke="#757575" d="M309.89,-493.61C334.04,-518.33 391.08,-575.11 444.5,-616.28 468.03,-634.41 496.54,-652.39 517.89,-665.16"/>
<polygon fill="#757575" stroke="#757575" points="516.05,-668.13 526.44,-670.21 519.61,-662.11 516.05,-668.13"/>
</g>
<!-- constants/routes.js -->
<g id="node30" class="node">
<title>constants/routes.js</title>
<path fill="none" stroke="#cfffac" d="M1164.46,-375.15C1164.46,-375.15 1051.79,-375.15 1051.79,-375.15 1047.83,-375.15 1043.88,-371.19 1043.88,-367.24 1043.88,-367.24 1043.88,-359.32 1043.88,-359.32 1043.88,-355.36 1047.83,-351.4 1051.79,-351.4 1051.79,-351.4 1164.46,-351.4 1164.46,-351.4 1168.42,-351.4 1172.38,-355.36 1172.38,-359.32 1172.38,-359.32 1172.38,-367.24 1172.38,-367.24 1172.38,-371.19 1168.42,-375.15 1164.46,-375.15"/>
<text xml:space="preserve" text-anchor="middle" x="1108.12" y="-357.85" font-family="Arial" font-size="14.00" fill="#cfffac">constants/routes.js</text>
</g>
<!-- routes/routes.js&#45;&gt;constants/routes.js -->
<g id="edge53" class="edge">
<title>routes/routes.js&#45;&gt;constants/routes.js</title>
<path fill="none" stroke="#757575" d="M351.4,-473.49C491.59,-453.05 870.4,-397.8 1032.2,-374.2"/>
<polygon fill="#757575" stroke="#757575" points="1032.58,-377.69 1041.97,-372.78 1031.57,-370.76 1032.58,-377.69"/>
</g>
<!-- pages/Graph.js -->
<g id="node36" class="node">
<title>pages/Graph.js</title>
<path fill="none" stroke="#cfffac" d="M596.58,-493.15C596.58,-493.15 504.17,-493.15 504.17,-493.15 500.21,-493.15 496.25,-489.19 496.25,-485.24 496.25,-485.24 496.25,-477.32 496.25,-477.32 496.25,-473.36 500.21,-469.4 504.17,-469.4 504.17,-469.4 596.58,-469.4 596.58,-469.4 600.54,-469.4 604.5,-473.36 604.5,-477.32 604.5,-477.32 604.5,-485.24 604.5,-485.24 604.5,-489.19 600.54,-493.15 596.58,-493.15"/>
<text xml:space="preserve" text-anchor="middle" x="550.38" y="-475.85" font-family="Arial" font-size="14.00" fill="#cfffac">pages/Graph.js</text>
</g>
<!-- routes/routes.js&#45;&gt;pages/Graph.js -->
<g id="edge54" class="edge">
<title>routes/routes.js&#45;&gt;pages/Graph.js</title>
<path fill="none" stroke="#757575" d="M351.62,-481.28C390.5,-481.28 443.28,-481.28 484.53,-481.28"/>
<polygon fill="#757575" stroke="#757575" points="484.33,-484.78 494.33,-481.28 484.33,-477.78 484.33,-484.78"/>
</g>
<!-- pages/Home.js -->
<g id="node37" class="node">
<title>pages/Home.js</title>
<path fill="none" stroke="#c6c5fe" d="M595.83,-535.15C595.83,-535.15 504.92,-535.15 504.92,-535.15 500.96,-535.15 497,-531.19 497,-527.24 497,-527.24 497,-519.32 497,-519.32 497,-515.36 500.96,-511.4 504.92,-511.4 504.92,-511.4 595.83,-511.4 595.83,-511.4 599.79,-511.4 603.75,-515.36 603.75,-519.32 603.75,-519.32 603.75,-527.24 603.75,-527.24 603.75,-531.19 599.79,-535.15 595.83,-535.15"/>
<text xml:space="preserve" text-anchor="middle" x="550.38" y="-517.85" font-family="Arial" font-size="14.00" fill="#c6c5fe">pages/Home.js</text>
</g>
<!-- routes/routes.js&#45;&gt;pages/Home.js -->
<g id="edge55" class="edge">
<title>routes/routes.js&#45;&gt;pages/Home.js</title>
<path fill="none" stroke="#757575" d="M351.62,-490.24C390.76,-496.78 443.99,-505.67 485.37,-512.58"/>
<polygon fill="#757575" stroke="#757575" points="484.77,-516.03 495.21,-514.23 485.92,-509.13 484.77,-516.03"/>
</g>
<!-- pages/UploadPage.js -->
<g id="node38" class="node">
<title>pages/UploadPage.js</title>
<path fill="none" stroke="#c6c5fe" d="M885.21,-653.15C885.21,-653.15 756.79,-653.15 756.79,-653.15 752.83,-653.15 748.88,-649.19 748.88,-645.24 748.88,-645.24 748.88,-637.32 748.88,-637.32 748.88,-633.36 752.83,-629.4 756.79,-629.4 756.79,-629.4 885.21,-629.4 885.21,-629.4 889.17,-629.4 893.12,-633.36 893.12,-637.32 893.12,-637.32 893.12,-645.24 893.12,-645.24 893.12,-649.19 889.17,-653.15 885.21,-653.15"/>
<text xml:space="preserve" text-anchor="middle" x="821" y="-635.85" font-family="Arial" font-size="14.00" fill="#c6c5fe">pages/UploadPage.js</text>
</g>
<!-- routes/routes.js&#45;&gt;pages/UploadPage.js -->
<g id="edge57" class="edge">
<title>routes/routes.js&#45;&gt;pages/UploadPage.js</title>
<path fill="none" stroke="#757575" d="M323.46,-493.65C352.32,-507.33 401.01,-529.41 444.5,-544.28 549.1,-580.04 673.97,-609.83 750.1,-626.6"/>
<polygon fill="#757575" stroke="#757575" points="748.97,-629.93 759.49,-628.65 750.47,-623.09 748.97,-629.93"/>
</g>
<!-- api/home/FileUploadSections.js -->
<g id="node9" class="node">
<title>api/home/FileUploadSections.js</title>
<path fill="none" stroke="#cfffac" d="M1464.33,-499.15C1464.33,-499.15 1274.42,-499.15 1274.42,-499.15 1270.46,-499.15 1266.5,-495.19 1266.5,-491.24 1266.5,-491.24 1266.5,-483.32 1266.5,-483.32 1266.5,-479.36 1270.46,-475.4 1274.42,-475.4 1274.42,-475.4 1464.33,-475.4 1464.33,-475.4 1468.29,-475.4 1472.25,-479.36 1472.25,-483.32 1472.25,-483.32 1472.25,-491.24 1472.25,-491.24 1472.25,-495.19 1468.29,-499.15 1464.33,-499.15"/>
<text xml:space="preserve" text-anchor="middle" x="1369.38" y="-481.85" font-family="Arial" font-size="14.00" fill="#cfffac">api/home/FileUploadSections.js</text>
</g>
<!-- api/home/HandleFile.js -->
<g id="node10" class="node">
<title>api/home/HandleFile.js</title>
<path fill="none" stroke="#cfffac" d="M890.08,-531.15C890.08,-531.15 751.92,-531.15 751.92,-531.15 747.96,-531.15 744,-527.19 744,-523.24 744,-523.24 744,-515.32 744,-515.32 744,-511.36 747.96,-507.4 751.92,-507.4 751.92,-507.4 890.08,-507.4 890.08,-507.4 894.04,-507.4 898,-511.36 898,-515.32 898,-515.32 898,-523.24 898,-523.24 898,-527.19 894.04,-531.15 890.08,-531.15"/>
<text xml:space="preserve" text-anchor="middle" x="821" y="-513.85" font-family="Arial" font-size="14.00" fill="#cfffac">api/home/HandleFile.js</text>
</g>
<!-- api/home/SheetView.js -->
<g id="node11" class="node">
<title>api/home/SheetView.js</title>
<path fill="none" stroke="#cfffac" d="M889.71,-737.15C889.71,-737.15 752.29,-737.15 752.29,-737.15 748.33,-737.15 744.38,-733.19 744.38,-729.24 744.38,-729.24 744.38,-721.32 744.38,-721.32 744.38,-717.36 748.33,-713.4 752.29,-713.4 752.29,-713.4 889.71,-713.4 889.71,-713.4 893.67,-713.4 897.62,-717.36 897.62,-721.32 897.62,-721.32 897.62,-729.24 897.62,-729.24 897.62,-733.19 893.67,-737.15 889.71,-737.15"/>
<text xml:space="preserve" text-anchor="middle" x="821" y="-719.85" font-family="Arial" font-size="14.00" fill="#cfffac">api/home/SheetView.js</text>
</g>
<!-- api/uploadpage/UploadPage.js -->
<g id="node12" class="node">
<title>api/uploadpage/UploadPage.js</title>
<path fill="none" stroke="#cfffac" d="M1200.08,-749.15C1200.08,-749.15 1016.17,-749.15 1016.17,-749.15 1012.21,-749.15 1008.25,-745.19 1008.25,-741.24 1008.25,-741.24 1008.25,-733.32 1008.25,-733.32 1008.25,-729.36 1012.21,-725.4 1016.17,-725.4 1016.17,-725.4 1200.08,-725.4 1200.08,-725.4 1204.04,-725.4 1208,-729.36 1208,-733.32 1208,-733.32 1208,-741.24 1208,-741.24 1208,-745.19 1204.04,-749.15 1200.08,-749.15"/>
<text xml:space="preserve" text-anchor="middle" x="1108.12" y="-731.85" font-family="Arial" font-size="14.00" fill="#cfffac">api/uploadpage/UploadPage.js</text>
</g>
<!-- assets/Header/logo_uach.svg -->
<g id="node14" class="node">
<title>assets/Header/logo_uach.svg</title>
<path fill="none" stroke="#cfffac" d="M1197.08,-291.15C1197.08,-291.15 1019.17,-291.15 1019.17,-291.15 1015.21,-291.15 1011.25,-287.19 1011.25,-283.24 1011.25,-283.24 1011.25,-275.32 1011.25,-275.32 1011.25,-271.36 1015.21,-267.4 1019.17,-267.4 1019.17,-267.4 1197.08,-267.4 1197.08,-267.4 1201.04,-267.4 1205,-271.36 1205,-275.32 1205,-275.32 1205,-283.24 1205,-283.24 1205,-287.19 1201.04,-291.15 1197.08,-291.15"/>
<text xml:space="preserve" text-anchor="middle" x="1108.12" y="-273.85" font-family="Arial" font-size="14.00" fill="#cfffac">assets/Header/logo_uach.svg</text>
</g>
<!-- assets/Icon/basura.svg -->
<g id="node15" class="node">
<title>assets/Icon/basura.svg</title>
<path fill="none" stroke="#cfffac" d="M1177.21,-581.15C1177.21,-581.15 1039.04,-581.15 1039.04,-581.15 1035.08,-581.15 1031.12,-577.19 1031.12,-573.24 1031.12,-573.24 1031.12,-565.32 1031.12,-565.32 1031.12,-561.36 1035.08,-557.4 1039.04,-557.4 1039.04,-557.4 1177.21,-557.4 1177.21,-557.4 1181.17,-557.4 1185.12,-561.36 1185.12,-565.32 1185.12,-565.32 1185.12,-573.24 1185.12,-573.24 1185.12,-577.19 1181.17,-581.15 1177.21,-581.15"/>
<text xml:space="preserve" text-anchor="middle" x="1108.12" y="-563.85" font-family="Arial" font-size="14.00" fill="#cfffac">assets/Icon/basura.svg</text>
</g>
<!-- assets/Icon/descarga.svg -->
<g id="node16" class="node">
<title>assets/Icon/descarga.svg</title>
<path fill="none" stroke="#cfffac" d="M1184.33,-665.15C1184.33,-665.15 1031.92,-665.15 1031.92,-665.15 1027.96,-665.15 1024,-661.19 1024,-657.24 1024,-657.24 1024,-649.32 1024,-649.32 1024,-645.36 1027.96,-641.4 1031.92,-641.4 1031.92,-641.4 1184.33,-641.4 1184.33,-641.4 1188.29,-641.4 1192.25,-645.36 1192.25,-649.32 1192.25,-649.32 1192.25,-657.24 1192.25,-657.24 1192.25,-661.19 1188.29,-665.15 1184.33,-665.15"/>
<text xml:space="preserve" text-anchor="middle" x="1108.12" y="-647.85" font-family="Arial" font-size="14.00" fill="#cfffac">assets/Icon/descarga.svg</text>
</g>
<!-- assets/Icon/ojo.svg -->
<g id="node17" class="node">
<title>assets/Icon/ojo.svg</title>
<path fill="none" stroke="#cfffac" d="M1165.58,-623.15C1165.58,-623.15 1050.67,-623.15 1050.67,-623.15 1046.71,-623.15 1042.75,-619.19 1042.75,-615.24 1042.75,-615.24 1042.75,-607.32 1042.75,-607.32 1042.75,-603.36 1046.71,-599.4 1050.67,-599.4 1050.67,-599.4 1165.58,-599.4 1165.58,-599.4 1169.54,-599.4 1173.5,-603.36 1173.5,-607.32 1173.5,-607.32 1173.5,-615.24 1173.5,-615.24 1173.5,-619.19 1169.54,-623.15 1165.58,-623.15"/>
<text xml:space="preserve" text-anchor="middle" x="1108.12" y="-605.85" font-family="Arial" font-size="14.00" fill="#cfffac">assets/Icon/ojo.svg</text>
</g>
<!-- assets/Icon/perfil_photo.png -->
<g id="node18" class="node">
<title>assets/Icon/perfil_photo.png</title>
<path fill="none" stroke="#cfffac" d="M1192.58,-333.15C1192.58,-333.15 1023.67,-333.15 1023.67,-333.15 1019.71,-333.15 1015.75,-329.19 1015.75,-325.24 1015.75,-325.24 1015.75,-317.32 1015.75,-317.32 1015.75,-313.36 1019.71,-309.4 1023.67,-309.4 1023.67,-309.4 1192.58,-309.4 1192.58,-309.4 1196.54,-309.4 1200.5,-313.36 1200.5,-317.32 1200.5,-317.32 1200.5,-325.24 1200.5,-325.24 1200.5,-329.19 1196.54,-333.15 1192.58,-333.15"/>
<text xml:space="preserve" text-anchor="middle" x="1108.12" y="-315.85" font-family="Arial" font-size="14.00" fill="#cfffac">assets/Icon/perfil_photo.png</text>
</g>
<!-- assets/Icon/refresh.svg -->
<g id="node19" class="node">
<title>assets/Icon/refresh.svg</title>
<path fill="none" stroke="#cfffac" d="M1177.58,-707.15C1177.58,-707.15 1038.67,-707.15 1038.67,-707.15 1034.71,-707.15 1030.75,-703.19 1030.75,-699.24 1030.75,-699.24 1030.75,-691.32 1030.75,-691.32 1030.75,-687.36 1034.71,-683.4 1038.67,-683.4 1038.67,-683.4 1177.58,-683.4 1177.58,-683.4 1181.54,-683.4 1185.5,-687.36 1185.5,-691.32 1185.5,-691.32 1185.5,-699.24 1185.5,-699.24 1185.5,-703.19 1181.54,-707.15 1177.58,-707.15"/>
<text xml:space="preserve" text-anchor="middle" x="1108.12" y="-689.85" font-family="Arial" font-size="14.00" fill="#cfffac">assets/Icon/refresh.svg</text>
</g>
<!-- components/Home/FileTable.js -->
<g id="node22" class="node">
<title>components/Home/FileTable.js</title>
<path fill="none" stroke="#c6c5fe" d="M914.08,-695.15C914.08,-695.15 727.92,-695.15 727.92,-695.15 723.96,-695.15 720,-691.19 720,-687.24 720,-687.24 720,-679.32 720,-679.32 720,-675.36 723.96,-671.4 727.92,-671.4 727.92,-671.4 914.08,-671.4 914.08,-671.4 918.04,-671.4 922,-675.36 922,-679.32 922,-679.32 922,-687.24 922,-687.24 922,-691.19 918.04,-695.15 914.08,-695.15"/>
<text xml:space="preserve" text-anchor="middle" x="821" y="-677.85" font-family="Arial" font-size="14.00" fill="#c6c5fe">components/Home/FileTable.js</text>
</g>
<!-- components/Home/FileTable.js&#45;&gt;api/uploadpage/UploadPage.js -->
<g id="edge9" class="edge">
<title>components/Home/FileTable.js&#45;&gt;api/uploadpage/UploadPage.js</title>
<path fill="none" stroke="#757575" d="M908.62,-695.6C922.45,-698.12 936.55,-701.01 949.75,-704.28 966.12,-708.33 969.39,-712.16 985.75,-716.28 995.09,-718.63 1004.9,-720.8 1014.73,-722.79"/>
<polygon fill="#757575" stroke="#757575" points="1013.84,-726.18 1024.33,-724.66 1015.18,-719.31 1013.84,-726.18"/>
</g>
<!-- components/Home/FileUploadSection.js -->
<g id="node23" class="node">
<title>components/Home/FileUploadSection.js</title>
<path fill="none" stroke="#c6c5fe" d="M941.83,-573.15C941.83,-573.15 700.17,-573.15 700.17,-573.15 696.21,-573.15 692.25,-569.19 692.25,-565.24 692.25,-565.24 692.25,-557.32 692.25,-557.32 692.25,-553.36 696.21,-549.4 700.17,-549.4 700.17,-549.4 941.83,-549.4 941.83,-549.4 945.79,-549.4 949.75,-553.36 949.75,-557.32 949.75,-557.32 949.75,-565.24 949.75,-565.24 949.75,-569.19 945.79,-573.15 941.83,-573.15"/>
<text xml:space="preserve" text-anchor="middle" x="821" y="-555.85" font-family="Arial" font-size="14.00" fill="#c6c5fe">components/Home/FileUploadSection.js</text>
</g>
<!-- components/Home/FileUploadSection.js&#45;&gt;api/home/FileUploadSections.js -->
<g id="edge10" class="edge">
<title>components/Home/FileUploadSection.js&#45;&gt;api/home/FileUploadSections.js</title>
<path fill="none" stroke="#757575" d="M928.14,-548.94C935.62,-546.53 942.9,-543.67 949.75,-540.28 969.47,-530.51 965.51,-514.91 985.75,-506.28 1076.31,-467.64 1190.08,-467.34 1269.94,-473.95"/>
<polygon fill="#757575" stroke="#757575" points="1269.2,-477.4 1279.47,-474.79 1269.82,-470.43 1269.2,-477.4"/>
</g>
<!-- components/Home/FileUploadSection.js&#45;&gt;assets/Icon/basura.svg -->
<g id="edge11" class="edge">
<title>components/Home/FileUploadSection.js&#45;&gt;assets/Icon/basura.svg</title>
<path fill="none" stroke="#757575" d="M949.97,-564.87C973.54,-565.53 997.65,-566.21 1019.69,-566.82"/>
<polygon fill="#757575" stroke="#757575" points="1019.4,-570.32 1029.5,-567.1 1019.6,-563.32 1019.4,-570.32"/>
</g>
<!-- components/Home/FileUploadSection.js&#45;&gt;assets/Icon/descarga.svg -->
<g id="edge12" class="edge">
<title>components/Home/FileUploadSection.js&#45;&gt;assets/Icon/descarga.svg</title>
<path fill="none" stroke="#757575" d="M845.47,-573.58C876.68,-589.44 933.94,-616.8 985.75,-632.28 994.34,-634.84 1003.38,-637.13 1012.49,-639.17"/>
<polygon fill="#757575" stroke="#757575" points="1011.61,-642.56 1022.12,-641.21 1013.06,-635.71 1011.61,-642.56"/>
</g>
<!-- components/Home/FileUploadSection.js&#45;&gt;assets/Icon/ojo.svg -->
<g id="edge13" class="edge">
<title>components/Home/FileUploadSection.js&#45;&gt;assets/Icon/ojo.svg</title>
<path fill="none" stroke="#757575" d="M891.31,-573.61C920.46,-578.79 954.75,-584.85 985.75,-590.28 1000.58,-592.87 1016.44,-595.63 1031.63,-598.26"/>
<polygon fill="#757575" stroke="#757575" points="1030.61,-601.64 1041.06,-599.9 1031.8,-594.74 1030.61,-601.64"/>
</g>
<!-- components/Home/FileUploadSection.js&#45;&gt;components/Alerts/ErrorAlert.js -->
<g id="edge14" class="edge">
<title>components/Home/FileUploadSection.js&#45;&gt;components/Alerts/ErrorAlert.js</title>
<path fill="none" stroke="#757575" d="M937.42,-549C941.79,-546.48 945.93,-543.59 949.75,-540.28 989.91,-505.49 945.74,-461.24 985.75,-426.28 988.96,-423.47 992.4,-420.98 996.03,-418.76"/>
<polygon fill="#757575" stroke="#757575" points="997.43,-421.98 1004.66,-414.23 994.18,-415.78 997.43,-421.98"/>
</g>
<!-- components/Home/fileHandlers.js -->
<g id="node24" class="node">
<title>components/Home/fileHandlers.js</title>
<path fill="none" stroke="#c6c5fe" d="M1209.83,-459.15C1209.83,-459.15 1006.42,-459.15 1006.42,-459.15 1002.46,-459.15 998.5,-455.19 998.5,-451.24 998.5,-451.24 998.5,-443.32 998.5,-443.32 998.5,-439.36 1002.46,-435.4 1006.42,-435.4 1006.42,-435.4 1209.83,-435.4 1209.83,-435.4 1213.79,-435.4 1217.75,-439.36 1217.75,-443.32 1217.75,-443.32 1217.75,-451.24 1217.75,-451.24 1217.75,-455.19 1213.79,-459.15 1209.83,-459.15"/>
<text xml:space="preserve" text-anchor="middle" x="1108.12" y="-441.85" font-family="Arial" font-size="14.00" fill="#c6c5fe">components/Home/fileHandlers.js</text>
</g>
<!-- components/Home/FileUploadSection.js&#45;&gt;components/Home/fileHandlers.js -->
<g id="edge15" class="edge">
<title>components/Home/FileUploadSection.js&#45;&gt;components/Home/fileHandlers.js</title>
<path fill="none" stroke="#757575" d="M934.86,-548.96C940.08,-546.49 945.09,-543.61 949.75,-540.28 977.26,-520.63 958.72,-493.58 985.75,-473.28 990.32,-469.85 995.24,-466.85 1000.39,-464.23"/>
<polygon fill="#757575" stroke="#757575" points="1001.51,-467.56 1009.18,-460.26 998.63,-461.18 1001.51,-467.56"/>
</g>
<!-- components/Home/useExcelSheets.js -->
<g id="node25" class="node">
<title>components/Home/useExcelSheets.js</title>
<path fill="none" stroke="#c6c5fe" d="M1222.58,-539.15C1222.58,-539.15 993.67,-539.15 993.67,-539.15 989.71,-539.15 985.75,-535.19 985.75,-531.24 985.75,-531.24 985.75,-523.32 985.75,-523.32 985.75,-519.36 989.71,-515.4 993.67,-515.4 993.67,-515.4 1222.58,-515.4 1222.58,-515.4 1226.54,-515.4 1230.5,-519.36 1230.5,-523.32 1230.5,-523.32 1230.5,-531.24 1230.5,-531.24 1230.5,-535.19 1226.54,-539.15 1222.58,-539.15"/>
<text xml:space="preserve" text-anchor="middle" x="1108.12" y="-521.85" font-family="Arial" font-size="14.00" fill="#c6c5fe">components/Home/useExcelSheets.js</text>
</g>
<!-- components/Home/FileUploadSection.js&#45;&gt;components/Home/useExcelSheets.js -->
<g id="edge16" class="edge">
<title>components/Home/FileUploadSection.js&#45;&gt;components/Home/useExcelSheets.js</title>
<path fill="none" stroke="#757575" d="M925.74,-548.91C947.3,-546.34 970.14,-543.61 992.08,-541"/>
<polygon fill="#757575" stroke="#757575" points="992.44,-544.48 1001.96,-539.82 991.61,-537.53 992.44,-544.48"/>
</g>
<!-- components/Home/fileHandlers.js&#45;&gt;api/home/FileUploadSections.js -->
<g id="edge20" class="edge">
<title>components/Home/fileHandlers.js&#45;&gt;api/home/FileUploadSections.js</title>
<path fill="none" stroke="#757575" d="M1189.02,-459.61C1216.87,-463.9 1248.32,-468.75 1277.02,-473.18"/>
<polygon fill="#757575" stroke="#757575" points="1276.38,-476.63 1286.8,-474.69 1277.45,-469.71 1276.38,-476.63"/>
</g>
<!-- components/Home/useExcelSheets.js&#45;&gt;api/home/FileUploadSections.js -->
<g id="edge21" class="edge">
<title>components/Home/useExcelSheets.js&#45;&gt;api/home/FileUploadSections.js</title>
<path fill="none" stroke="#757575" d="M1189.02,-514.95C1216.87,-510.65 1248.32,-505.8 1277.02,-501.37"/>
<polygon fill="#757575" stroke="#757575" points="1277.45,-504.85 1286.8,-499.86 1276.38,-497.93 1277.45,-504.85"/>
</g>
<!-- components/Home/SheetView.js&#45;&gt;api/home/SheetView.js -->
<g id="edge17" class="edge">
<title>components/Home/SheetView.js&#45;&gt;api/home/SheetView.js</title>
<path fill="none" stroke="#757575" d="M630.52,-695.65C662.78,-700.7 700.17,-706.54 733.18,-711.7"/>
<polygon fill="#757575" stroke="#757575" points="732.27,-715.1 742.69,-713.19 733.35,-708.19 732.27,-715.1"/>
</g>
<!-- components/Home/SheetView.js&#45;&gt;components/Home/useExcelSheets.js -->
<g id="edge18" class="edge">
<title>components/Home/SheetView.js&#45;&gt;components/Home/useExcelSheets.js</title>
<path fill="none" stroke="#757575" d="M573.58,-671.04C600.75,-656.62 648.52,-633.02 692.25,-620.28 803.32,-587.92 845.67,-632.77 949.75,-582.28 969.55,-572.67 966.07,-558.13 985.75,-548.28 989.25,-546.53 992.87,-544.92 996.58,-543.44"/>
<polygon fill="#757575" stroke="#757575" points="997.56,-546.8 1005.79,-540.13 995.2,-540.22 997.56,-546.8"/>
</g>
<!-- pages/Excel.js -->
<g id="node27" class="node">
<title>pages/Excel.js</title>
<path fill="none" stroke="#cfffac" d="M864.58,-779.15C864.58,-779.15 777.42,-779.15 777.42,-779.15 773.46,-779.15 769.5,-775.19 769.5,-771.24 769.5,-771.24 769.5,-763.32 769.5,-763.32 769.5,-759.36 773.46,-755.4 777.42,-755.4 777.42,-755.4 864.58,-755.4 864.58,-755.4 868.54,-755.4 872.5,-759.36 872.5,-763.32 872.5,-763.32 872.5,-771.24 872.5,-771.24 872.5,-775.19 868.54,-779.15 864.58,-779.15"/>
<text xml:space="preserve" text-anchor="middle" x="821" y="-761.85" font-family="Arial" font-size="14.00" fill="#cfffac">pages/Excel.js</text>
</g>
<!-- components/Home/SheetView.js&#45;&gt;pages/Excel.js -->
<g id="edge19" class="edge">
<title>components/Home/SheetView.js&#45;&gt;pages/Excel.js</title>
<path fill="none" stroke="#757575" d="M574.1,-695.65C601.38,-709.97 648.89,-733.26 692.25,-746.28 713.33,-752.61 736.97,-757.17 758.13,-760.38"/>
<polygon fill="#757575" stroke="#757575" points="757.37,-763.81 767.77,-761.78 758.37,-756.88 757.37,-763.81"/>
</g>
<!-- components/Layout/Header.js&#45;&gt;assets/Header/logo&#45;infor.png -->
<g id="edge22" class="edge">
<title>components/Layout/Header.js&#45;&gt;assets/Header/logo&#45;infor.png</title>
<path fill="none" stroke="#757575" d="M919.01,-312.79C929.76,-309.7 940.25,-305.62 949.75,-300.28 971.18,-288.22 964.37,-270.42 985.75,-258.28 991.15,-255.21 996.89,-252.56 1002.83,-250.29"/>
<polygon fill="#757575" stroke="#757575" points="1003.92,-253.62 1012.25,-247.07 1001.65,-246.99 1003.92,-253.62"/>
</g>
<!-- components/Layout/Header.js&#45;&gt;assets/Header/logo_uach.svg -->
<g id="edge23" class="edge">
<title>components/Layout/Header.js&#45;&gt;assets/Header/logo_uach.svg</title>
<path fill="none" stroke="#757575" d="M906,-308.9C939.36,-303.99 977.88,-298.32 1012.23,-293.26"/>
<polygon fill="#757575" stroke="#757575" points="1012.35,-296.78 1021.73,-291.86 1011.33,-289.85 1012.35,-296.78"/>
</g>
<!-- components/Layout/Header.js&#45;&gt;assets/Icon/perfil_photo.png -->
<g id="edge24" class="edge">
<title>components/Layout/Header.js&#45;&gt;assets/Icon/perfil_photo.png</title>
<path fill="none" stroke="#757575" d="M918.93,-321.28C946.31,-321.28 976.21,-321.28 1003.95,-321.28"/>
<polygon fill="#757575" stroke="#757575" points="1003.76,-324.78 1013.76,-321.28 1003.76,-317.78 1003.76,-324.78"/>
</g>
<!-- components/Layout/Navigation.js&#45;&gt;constants/routes.js -->
<g id="edge25" class="edge">
<title>components/Layout/Navigation.js&#45;&gt;constants/routes.js</title>
<path fill="none" stroke="#757575" d="M928.98,-363.28C963.32,-363.28 1000.6,-363.28 1032.14,-363.28"/>
<polygon fill="#757575" stroke="#757575" points="1031.97,-366.78 1041.97,-363.28 1031.97,-359.78 1031.97,-366.78"/>
</g>
<!-- components/Login/LoginForm.js&#45;&gt;services/firebase.js -->
<g id="edge31" class="edge">
<title>components/Login/LoginForm.js&#45;&gt;services/firebase.js</title>
<path fill="none" stroke="#757575" d="M916.07,-266.91C927.8,-263.43 939.32,-258.97 949.75,-253.28 969.89,-242.28 969.52,-232.5 985.75,-216.28 1020.55,-181.49 1061.75,-141.73 1086.09,-118.38"/>
<polygon fill="#757575" stroke="#757575" points="1088.36,-121.06 1093.16,-111.61 1083.52,-116 1088.36,-121.06"/>
</g>
<!-- components/Login/LoginForm.js&#45;&gt;assets/Header/logo&#45;infor.png -->
<g id="edge28" class="edge">
<title>components/Login/LoginForm.js&#45;&gt;assets/Header/logo&#45;infor.png</title>
<path fill="none" stroke="#757575" d="M906,-266.9C939.36,-261.99 977.88,-256.32 1012.23,-251.26"/>
<polygon fill="#757575" stroke="#757575" points="1012.35,-254.78 1021.73,-249.86 1011.33,-247.85 1012.35,-254.78"/>
</g>
<!-- components/Login/LoginForm.js&#45;&gt;assets/Header/logo_uach.svg -->
<g id="edge29" class="edge">
<title>components/Login/LoginForm.js&#45;&gt;assets/Header/logo_uach.svg</title>
<path fill="none" stroke="#757575" d="M926.15,-279.28C950.04,-279.28 975.49,-279.28 999.53,-279.28"/>
<polygon fill="#757575" stroke="#757575" points="999.32,-282.78 1009.32,-279.28 999.32,-275.78 999.32,-282.78"/>
</g>
<!-- components/Login/LoginForm.js&#45;&gt;components/Alerts/ErrorAlert.js -->
<g id="edge30" class="edge">
<title>components/Login/LoginForm.js&#45;&gt;components/Alerts/ErrorAlert.js</title>
<path fill="none" stroke="#757575" d="M925.93,-286.94C934.49,-290.3 942.58,-294.67 949.75,-300.28 981.73,-325.32 953.88,-359.1 985.75,-384.28 988.91,-386.77 992.26,-389.01 995.75,-391.03"/>
<polygon fill="#757575" stroke="#757575" points="994.09,-394.11 1004.6,-395.43 997.21,-387.84 994.09,-394.11"/>
</g>
<!-- context/AuthContainer.js -->
<g id="node33" class="node">
<title>context/AuthContainer.js</title>
<path fill="none" stroke="#c6c5fe" d="M894.21,-89.15C894.21,-89.15 747.79,-89.15 747.79,-89.15 743.83,-89.15 739.88,-85.19 739.88,-81.24 739.88,-81.24 739.88,-73.32 739.88,-73.32 739.88,-69.36 743.83,-65.4 747.79,-65.4 747.79,-65.4 894.21,-65.4 894.21,-65.4 898.17,-65.4 902.12,-69.36 902.12,-73.32 902.12,-73.32 902.12,-81.24 902.12,-81.24 902.12,-85.19 898.17,-89.15 894.21,-89.15"/>
<text xml:space="preserve" text-anchor="middle" x="821" y="-71.85" font-family="Arial" font-size="14.00" fill="#c6c5fe">context/AuthContainer.js</text>
</g>
<!-- context/AuthContainer.js&#45;&gt;services/firebase.js -->
<g id="edge33" class="edge">
<title>context/AuthContainer.js&#45;&gt;services/firebase.js</title>
<path fill="none" stroke="#757575" d="M902.56,-83.21C942.88,-86.18 991.42,-89.76 1031.09,-92.68"/>
<polygon fill="#757575" stroke="#757575" points="1030.82,-96.17 1041.05,-93.41 1031.34,-89.19 1030.82,-96.17"/>
</g>
<!-- context/Logout.js -->
<g id="node34" class="node">
<title>context/Logout.js</title>
<path fill="none" stroke="#c6c5fe" d="M872.08,-131.15C872.08,-131.15 769.92,-131.15 769.92,-131.15 765.96,-131.15 762,-127.19 762,-123.24 762,-123.24 762,-115.32 762,-115.32 762,-111.36 765.96,-107.4 769.92,-107.4 769.92,-107.4 872.08,-107.4 872.08,-107.4 876.04,-107.4 880,-111.36 880,-115.32 880,-115.32 880,-123.24 880,-123.24 880,-127.19 876.04,-131.15 872.08,-131.15"/>
<text xml:space="preserve" text-anchor="middle" x="821" y="-113.85" font-family="Arial" font-size="14.00" fill="#c6c5fe">context/Logout.js</text>
</g>
<!-- context/Logout.js&#45;&gt;services/firebase.js -->
<g id="edge34" class="edge">
<title>context/Logout.js&#45;&gt;services/firebase.js</title>
<path fill="none" stroke="#757575" d="M880.39,-114.98C923.89,-111.77 983.67,-107.37 1030.93,-103.89"/>
<polygon fill="#757575" stroke="#757575" points="1031.13,-107.38 1040.84,-103.16 1030.61,-100.4 1031.13,-107.38"/>
</g>
<!-- main.js -->
<g id="node35" class="node">
<title>main.js</title>
<path fill="none" stroke="#c6c5fe" d="M51.58,-112.15C51.58,-112.15 7.92,-112.15 7.92,-112.15 3.96,-112.15 0,-108.19 0,-104.24 0,-104.24 0,-96.32 0,-96.32 0,-92.36 3.96,-88.4 7.92,-88.4 7.92,-88.4 51.58,-88.4 51.58,-88.4 55.54,-88.4 59.5,-92.36 59.5,-96.32 59.5,-96.32 59.5,-104.24 59.5,-104.24 59.5,-108.19 55.54,-112.15 51.58,-112.15"/>
<text xml:space="preserve" text-anchor="middle" x="29.75" y="-94.85" font-family="Arial" font-size="14.00" fill="#c6c5fe">main.js</text>
</g>
<!-- main.js&#45;&gt;App.js -->
<g id="edge38" class="edge">
<title>main.js&#45;&gt;App.js</title>
<path fill="none" stroke="#757575" d="M44.93,-112.62C59.45,-125.26 82.22,-145.09 99.17,-159.84"/>
<polygon fill="#757575" stroke="#757575" points="96.44,-162.1 106.28,-166.03 101.03,-156.82 96.44,-162.1"/>
</g>
<!-- main.js&#45;&gt;styles/index.css -->
<g id="edge39" class="edge">
<title>main.js&#45;&gt;styles/index.css</title>
<path fill="none" stroke="#757575" d="M59.74,-101.34C140.49,-104.3 369.44,-112.69 483.34,-116.86"/>
<polygon fill="#757575" stroke="#757575" points="483.02,-120.35 493.14,-117.22 483.28,-113.35 483.02,-120.35"/>
</g>
<!-- pages/Home.js&#45;&gt;api/home/HandleFile.js -->
<g id="edge40" class="edge">
<title>pages/Home.js&#45;&gt;api/home/HandleFile.js</title>
<path fill="none" stroke="#757575" d="M604.13,-522.49C640.59,-521.95 689.95,-521.21 732.27,-520.58"/>
<polygon fill="#757575" stroke="#757575" points="732.26,-524.08 742.21,-520.44 732.16,-517.09 732.26,-524.08"/>
</g>
<!-- pages/Home.js&#45;&gt;components/Alerts/ErrorAlert.js -->
<g id="edge41" class="edge">
<title>pages/Home.js&#45;&gt;components/Alerts/ErrorAlert.js</title>
<path fill="none" stroke="#757575" d="M604.2,-513.77C630.63,-509.05 663.12,-503.29 692.25,-498.28 806.6,-478.59 843.89,-502.78 949.75,-455.28 968.49,-446.87 967.03,-434.74 985.75,-426.28 989.97,-424.37 994.34,-422.63 998.82,-421.06"/>
<polygon fill="#757575" stroke="#757575" points="999.52,-424.51 1007.96,-418.11 997.37,-417.84 999.52,-424.51"/>
</g>
<!-- pages/Home.js&#45;&gt;components/Home/FileTable.js -->
<g id="edge42" class="edge">
<title>pages/Home.js&#45;&gt;components/Home/FileTable.js</title>
<path fill="none" stroke="#757575" d="M559.57,-535.43C578.96,-563.13 630.7,-630.95 692.25,-662.28 697.63,-665.02 703.29,-667.41 709.12,-669.51"/>
<polygon fill="#757575" stroke="#757575" points="707.71,-672.73 718.3,-672.49 709.87,-666.07 707.71,-672.73"/>
</g>
<!-- pages/Home.js&#45;&gt;components/Home/FileUploadSection.js -->
<g id="edge43" class="edge">
<title>pages/Home.js&#45;&gt;components/Home/FileUploadSection.js</title>
<path fill="none" stroke="#757575" d="M604.13,-530.74C637.5,-535.46 681.7,-541.71 721.4,-547.33"/>
<polygon fill="#757575" stroke="#757575" points="720.85,-550.79 731.24,-548.72 721.83,-543.86 720.85,-550.79"/>
</g>
<!-- pages/UploadPage.js&#45;&gt;api/uploadpage/UploadPage.js -->
<g id="edge47" class="edge">
<title>pages/UploadPage.js&#45;&gt;api/uploadpage/UploadPage.js</title>
<path fill="none" stroke="#757575" d="M893.37,-642.69C912.84,-645.72 933.13,-651.56 949.75,-662.28 973.99,-677.91 961.58,-700.54 985.75,-716.28 989.47,-718.7 993.39,-720.87 997.45,-722.81"/>
<polygon fill="#757575" stroke="#757575" points="995.83,-725.92 1006.4,-726.59 998.55,-719.47 995.83,-725.92"/>
</g>
<!-- pages/UploadPage.js&#45;&gt;assets/Icon/basura.svg -->
<g id="edge48" class="edge">
<title>pages/UploadPage.js&#45;&gt;assets/Icon/basura.svg</title>
<path fill="none" stroke="#757575" d="M893.5,-632.03C912.27,-628.18 932.16,-622.79 949.75,-615.28 967.66,-607.62 967.73,-597.67 985.75,-590.28 996.47,-585.88 1008.09,-582.41 1019.75,-579.66"/>
<polygon fill="#757575" stroke="#757575" points="1020.4,-583.1 1029.43,-577.56 1018.92,-576.26 1020.4,-583.1"/>
</g>
<!-- pages/UploadPage.js&#45;&gt;assets/Icon/descarga.svg -->
<g id="edge49" class="edge">
<title>pages/UploadPage.js&#45;&gt;assets/Icon/descarga.svg</title>
<path fill="none" stroke="#757575" d="M893.58,-644.29C929.54,-645.8 973.59,-647.66 1012.32,-649.29"/>
<polygon fill="#757575" stroke="#757575" points="1011.97,-652.78 1022.11,-649.7 1012.26,-645.78 1011.97,-652.78"/>
</g>
<!-- pages/UploadPage.js&#45;&gt;assets/Icon/ojo.svg -->
<g id="edge50" class="edge">
<title>pages/UploadPage.js&#45;&gt;assets/Icon/ojo.svg</title>
<path fill="none" stroke="#757575" d="M893.58,-633.75C935.53,-629.33 988.48,-623.76 1031.16,-619.27"/>
<polygon fill="#757575" stroke="#757575" points="1031.26,-622.78 1040.83,-618.25 1030.52,-615.82 1031.26,-622.78"/>
</g>
<!-- pages/UploadPage.js&#45;&gt;assets/Icon/refresh.svg -->
<g id="edge51" class="edge">
<title>pages/UploadPage.js&#45;&gt;assets/Icon/refresh.svg</title>
<path fill="none" stroke="#757575" d="M893.36,-650.95C911.84,-654.02 931.64,-657.8 949.75,-662.28 966.12,-666.33 969.39,-670.16 985.75,-674.28 996.48,-676.98 1007.84,-679.45 1019.12,-681.66"/>
<polygon fill="#757575" stroke="#757575" points="1018.39,-685.09 1028.87,-683.51 1019.7,-678.21 1018.39,-685.09"/>
</g>
</g>
</svg>
