<?xml version="1.0" encoding="UTF-8" standalone="no"?><svg xmlns="http://www.w3.org/2000/svg" xmlns:xlink="http://www.w3.org/1999/xlink" contentScriptType="application/ecmascript" contentStyleType="text/css" height="413px" preserveAspectRatio="none" style="width:1236px;height:413px;" version="1.1" viewBox="0 0 1236 413" width="1236px" zoomAndPan="magnify"><defs><filter height="300%" id="f18zlxe321ccly" width="300%" x="-1" y="-1"><feGaussianBlur result="blurOut" stdDeviation="2.0"/><feColorMatrix in="blurOut" result="blurOut2" type="matrix" values="0 0 0 0 0 0 0 0 0 0 0 0 0 0 0 0 0 0 .4 0"/><feOffset dx="4.0" dy="4.0" in="blurOut2" result="blurOut3"/><feBlend in="SourceGraphic" in2="blurOut3" mode="normal"/></filter></defs><g><!--MD5=[7fb82a98500a07414cf6d3fb63e933ae]
class excelDataController_js--><rect fill="#8FBC8F" filter="url(#f18zlxe321ccly)" height="263.6172" id="excelDataController_js" style="stroke: #A80036; stroke-width: 1.5;" width="171" x="236.5" y="8"/><ellipse cx="251.5" cy="26.9688" fill="#DA70D6" rx="11" ry="11" style="stroke: #A80036; stroke-width: 1.0;"/><path d="M247.2188,20.5781 L250.1406,20.5781 L251.6094,26.0156 L253.0781,20.5781 L256.0156,20.5781 L256.0156,32.9688 L253.9063,32.9688 L253.9063,23.0469 L252.5938,28.4688 L250.6563,28.4688 L249.3281,23.0469 L249.3281,32.9688 L247.2188,32.9688 L247.2188,20.5781 Z "/><text fill="#000000" font-family="sans-serif" font-size="12" font-style="italic" lengthAdjust="spacingAndGlyphs" textLength="60" x="305" y="24.1387">«module»</text><text fill="#000000" font-family="sans-serif" font-size="12" lengthAdjust="spacingAndGlyphs" textLength="139" x="265.5" y="38.1074">excelDataController_js</text><line style="stroke: #A80036; stroke-width: 1.5;" x1="237.5" x2="406.5" y1="45.9375" y2="45.9375"/><text fill="#000000" font-family="sans-serif" font-size="11" lengthAdjust="spacingAndGlyphs" textLength="41" x="242.5" y="60.1479">column</text><text fill="#000000" font-family="sans-serif" font-size="11" lengthAdjust="spacingAndGlyphs" textLength="45" x="242.5" y="72.9526">csvData</text><text fill="#000000" font-family="sans-serif" font-size="11" lengthAdjust="spacingAndGlyphs" textLength="49" x="242.5" y="85.7573">csvRows</text><text fill="#000000" font-family="sans-serif" font-size="11" lengthAdjust="spacingAndGlyphs" textLength="41" x="242.5" y="98.562">current</text><text fill="#000000" font-family="sans-serif" font-size="11" lengthAdjust="spacingAndGlyphs" textLength="25" x="242.5" y="111.3667">data</text><text fill="#000000" font-family="sans-serif" font-size="11" lengthAdjust="spacingAndGlyphs" textLength="42" x="242.5" y="124.1714">filePath</text><text fill="#000000" font-family="sans-serif" font-size="11" lengthAdjust="spacingAndGlyphs" textLength="11" x="242.5" y="136.9761">fs</text><text fill="#000000" font-family="sans-serif" font-size="11" lengthAdjust="spacingAndGlyphs" textLength="128" x="242.5" y="149.7808">generateExcelHeaders</text><text fill="#000000" font-family="sans-serif" font-size="11" lengthAdjust="spacingAndGlyphs" textLength="47" x="242.5" y="162.5854">headers</text><text fill="#000000" font-family="sans-serif" font-size="11" lengthAdjust="spacingAndGlyphs" textLength="3" x="242.5" y="175.3901">i</text><text fill="#000000" font-family="sans-serif" font-size="11" lengthAdjust="spacingAndGlyphs" textLength="62" x="242.5" y="188.1948">maxLength</text><text fill="#000000" font-family="sans-serif" font-size="11" lengthAdjust="spacingAndGlyphs" textLength="25" x="242.5" y="200.9995">path</text><text fill="#000000" font-family="sans-serif" font-size="11" lengthAdjust="spacingAndGlyphs" textLength="60" x="242.5" y="213.8042">storageDir</text><text fill="#000000" font-family="sans-serif" font-size="11" lengthAdjust="spacingAndGlyphs" textLength="80" x="242.5" y="226.6089">truncatedData</text><text fill="#000000" font-family="sans-serif" font-size="11" lengthAdjust="spacingAndGlyphs" textLength="54" x="242.5" y="239.4136">workbook</text><text fill="#000000" font-family="sans-serif" font-size="11" lengthAdjust="spacingAndGlyphs" textLength="59" x="242.5" y="252.2183">worksheet</text><text fill="#000000" font-family="sans-serif" font-size="11" lengthAdjust="spacingAndGlyphs" textLength="22" x="242.5" y="265.0229">xlsx</text><!--MD5=[30cfd14ac45273b9f475b49d568e17c3]
class path--><rect fill="#FEFECE" filter="url(#f18zlxe321ccly)" height="32" id="path" style="stroke: #A80036; stroke-width: 1.5;" width="61" x="548.5" y="349"/><ellipse cx="563.5" cy="365" fill="#ADD1B2" rx="11" ry="11" style="stroke: #A80036; stroke-width: 1.0;"/><path d="M566.4688,370.6406 Q565.8906,370.9375 565.25,371.0781 Q564.6094,371.2344 563.9063,371.2344 Q561.4063,371.2344 560.0781,369.5938 Q558.7656,367.9375 558.7656,364.8125 Q558.7656,361.6875 560.0781,360.0313 Q561.4063,358.375 563.9063,358.375 Q564.6094,358.375 565.25,358.5313 Q565.9063,358.6875 566.4688,358.9844 L566.4688,361.7031 Q565.8438,361.125 565.25,360.8594 Q564.6563,360.5781 564.0313,360.5781 Q562.6875,360.5781 562,361.6563 Q561.3125,362.7188 561.3125,364.8125 Q561.3125,366.9063 562,367.9844 Q562.6875,369.0469 564.0313,369.0469 Q564.6563,369.0469 565.25,368.7813 Q565.8438,368.5 566.4688,367.9219 L566.4688,370.6406 Z "/><text fill="#000000" font-family="sans-serif" font-size="12" lengthAdjust="spacingAndGlyphs" textLength="29" x="577.5" y="369.1543">path</text><!--MD5=[f84aa5d0cd99f5b2a81fb2876de5a70a]
class xlsx--><rect fill="#FEFECE" filter="url(#f18zlxe321ccly)" height="32" id="xlsx" style="stroke: #A80036; stroke-width: 1.5;" width="54" x="811" y="349"/><ellipse cx="826" cy="365" fill="#ADD1B2" rx="11" ry="11" style="stroke: #A80036; stroke-width: 1.0;"/><path d="M828.9688,370.6406 Q828.3906,370.9375 827.75,371.0781 Q827.1094,371.2344 826.4063,371.2344 Q823.9063,371.2344 822.5781,369.5938 Q821.2656,367.9375 821.2656,364.8125 Q821.2656,361.6875 822.5781,360.0313 Q823.9063,358.375 826.4063,358.375 Q827.1094,358.375 827.75,358.5313 Q828.4063,358.6875 828.9688,358.9844 L828.9688,361.7031 Q828.3438,361.125 827.75,360.8594 Q827.1563,360.5781 826.5313,360.5781 Q825.1875,360.5781 824.5,361.6563 Q823.8125,362.7188 823.8125,364.8125 Q823.8125,366.9063 824.5,367.9844 Q825.1875,369.0469 826.5313,369.0469 Q827.1563,369.0469 827.75,368.7813 Q828.3438,368.5 828.9688,367.9219 L828.9688,370.6406 Z "/><text fill="#000000" font-family="sans-serif" font-size="12" lengthAdjust="spacingAndGlyphs" textLength="22" x="840" y="369.1543">xlsx</text><!--MD5=[cd4556f80f324df0babf50840a487f61]
class Math--><rect fill="#FEFECE" filter="url(#f18zlxe321ccly)" height="32" id="Math" style="stroke: #A80036; stroke-width: 1.5;" width="63" x="290.5" y="349"/><ellipse cx="305.5" cy="365" fill="#ADD1B2" rx="11" ry="11" style="stroke: #A80036; stroke-width: 1.0;"/><path d="M308.4688,370.6406 Q307.8906,370.9375 307.25,371.0781 Q306.6094,371.2344 305.9063,371.2344 Q303.4063,371.2344 302.0781,369.5938 Q300.7656,367.9375 300.7656,364.8125 Q300.7656,361.6875 302.0781,360.0313 Q303.4063,358.375 305.9063,358.375 Q306.6094,358.375 307.25,358.5313 Q307.9063,358.6875 308.4688,358.9844 L308.4688,361.7031 Q307.8438,361.125 307.25,360.8594 Q306.6563,360.5781 306.0313,360.5781 Q304.6875,360.5781 304,361.6563 Q303.3125,362.7188 303.3125,364.8125 Q303.3125,366.9063 304,367.9844 Q304.6875,369.0469 306.0313,369.0469 Q306.6563,369.0469 307.25,368.7813 Q307.8438,368.5 308.4688,367.9219 L308.4688,370.6406 Z "/><text fill="#000000" font-family="sans-serif" font-size="12" lengthAdjust="spacingAndGlyphs" textLength="31" x="319.5" y="369.1543">Math</text><!--MD5=[99f32fa4e73f6681c1a0ac5117bd3ce1]
class Array--><rect fill="#FEFECE" filter="url(#f18zlxe321ccly)" height="32" id="Array" style="stroke: #A80036; stroke-width: 1.5;" width="64" x="6" y="349"/><ellipse cx="21" cy="365" fill="#ADD1B2" rx="11" ry="11" style="stroke: #A80036; stroke-width: 1.0;"/><path d="M23.9688,370.6406 Q23.3906,370.9375 22.75,371.0781 Q22.1094,371.2344 21.4063,371.2344 Q18.9063,371.2344 17.5781,369.5938 Q16.2656,367.9375 16.2656,364.8125 Q16.2656,361.6875 17.5781,360.0313 Q18.9063,358.375 21.4063,358.375 Q22.1094,358.375 22.75,358.5313 Q23.4063,358.6875 23.9688,358.9844 L23.9688,361.7031 Q23.3438,361.125 22.75,360.8594 Q22.1563,360.5781 21.5313,360.5781 Q20.1875,360.5781 19.5,361.6563 Q18.8125,362.7188 18.8125,364.8125 Q18.8125,366.9063 19.5,367.9844 Q20.1875,369.0469 21.5313,369.0469 Q22.1563,369.0469 22.75,368.7813 Q23.3438,368.5 23.9688,367.9219 L23.9688,370.6406 Z "/><text fill="#000000" font-family="sans-serif" font-size="12" lengthAdjust="spacingAndGlyphs" textLength="32" x="35" y="369.1543">Array</text><!--MD5=[ad0b2d377ee38be0ebc3602383a2f2c5]
class csvRows--><rect fill="#FEFECE" filter="url(#f18zlxe321ccly)" height="32" id="csvRows" style="stroke: #A80036; stroke-width: 1.5;" width="84" x="145" y="349"/><ellipse cx="160" cy="365" fill="#ADD1B2" rx="11" ry="11" style="stroke: #A80036; stroke-width: 1.0;"/><path d="M162.9688,370.6406 Q162.3906,370.9375 161.75,371.0781 Q161.1094,371.2344 160.4063,371.2344 Q157.9063,371.2344 156.5781,369.5938 Q155.2656,367.9375 155.2656,364.8125 Q155.2656,361.6875 156.5781,360.0313 Q157.9063,358.375 160.4063,358.375 Q161.1094,358.375 161.75,358.5313 Q162.4063,358.6875 162.9688,358.9844 L162.9688,361.7031 Q162.3438,361.125 161.75,360.8594 Q161.1563,360.5781 160.5313,360.5781 Q159.1875,360.5781 158.5,361.6563 Q157.8125,362.7188 157.8125,364.8125 Q157.8125,366.9063 158.5,367.9844 Q159.1875,369.0469 160.5313,369.0469 Q161.1563,369.0469 161.75,368.7813 Q162.3438,368.5 162.9688,367.9219 L162.9688,370.6406 Z "/><text fill="#000000" font-family="sans-serif" font-size="12" lengthAdjust="spacingAndGlyphs" textLength="52" x="174" y="369.1543">csvRows</text><!--MD5=[5903d6361d33892ffc2bbcf1128fde7d]
class generateTemplateController_js--><rect fill="#8FBC8F" filter="url(#f18zlxe321ccly)" height="71.5469" id="generateTemplateController_js" style="stroke: #A80036; stroke-width: 1.5;" width="225" x="1000.5" y="104"/><ellipse cx="1015.5" cy="122.9688" fill="#DA70D6" rx="11" ry="11" style="stroke: #A80036; stroke-width: 1.0;"/><path d="M1011.2188,116.5781 L1014.1406,116.5781 L1015.6094,122.0156 L1017.0781,116.5781 L1020.0156,116.5781 L1020.0156,128.9688 L1017.9063,128.9688 L1017.9063,119.0469 L1016.5938,124.4688 L1014.6563,124.4688 L1013.3281,119.0469 L1013.3281,128.9688 L1011.2188,128.9688 L1011.2188,116.5781 Z "/><text fill="#000000" font-family="sans-serif" font-size="12" font-style="italic" lengthAdjust="spacingAndGlyphs" textLength="60" x="1096" y="120.1387">«module»</text><text fill="#000000" font-family="sans-serif" font-size="12" lengthAdjust="spacingAndGlyphs" textLength="193" x="1029.5" y="134.1074">generateTemplateController_js</text><line style="stroke: #A80036; stroke-width: 1.5;" x1="1001.5" x2="1224.5" y1="141.9375" y2="141.9375"/><text fill="#000000" font-family="sans-serif" font-size="11" lengthAdjust="spacingAndGlyphs" textLength="35" x="1006.5" y="156.1479">None?</text><text fill="#000000" font-family="sans-serif" font-size="11" lengthAdjust="spacingAndGlyphs" textLength="61" x="1006.5" y="168.9526">outputPath</text><!--MD5=[099a6f42711da04ccad71baca78a80b9]
class uploadController_js--><rect fill="#8FBC8F" filter="url(#f18zlxe321ccly)" height="238.0078" id="uploadController_js" style="stroke: #A80036; stroke-width: 1.5;" width="152" x="813" y="21"/><ellipse cx="828" cy="39.9688" fill="#DA70D6" rx="11" ry="11" style="stroke: #A80036; stroke-width: 1.0;"/><path d="M823.7188,33.5781 L826.6406,33.5781 L828.1094,39.0156 L829.5781,33.5781 L832.5156,33.5781 L832.5156,45.9688 L830.4063,45.9688 L830.4063,36.0469 L829.0938,41.4688 L827.1563,41.4688 L825.8281,36.0469 L825.8281,45.9688 L823.7188,45.9688 L823.7188,33.5781 Z "/><text fill="#000000" font-family="sans-serif" font-size="12" font-style="italic" lengthAdjust="spacingAndGlyphs" textLength="60" x="872" y="37.1387">«module»</text><text fill="#000000" font-family="sans-serif" font-size="12" lengthAdjust="spacingAndGlyphs" textLength="120" x="842" y="51.1074">uploadController_js</text><line style="stroke: #A80036; stroke-width: 1.5;" x1="814" x2="964" y1="58.9375" y2="58.9375"/><text fill="#000000" font-family="sans-serif" font-size="11" lengthAdjust="spacingAndGlyphs" textLength="35" x="819" y="73.1479">None?</text><text fill="#000000" font-family="sans-serif" font-size="11" lengthAdjust="spacingAndGlyphs" textLength="19" x="819" y="85.9526">csv</text><text fill="#000000" font-family="sans-serif" font-size="11" lengthAdjust="spacingAndGlyphs" textLength="92" x="819" y="98.7573">fileInfoPromises</text><text fill="#000000" font-family="sans-serif" font-size="11" lengthAdjust="spacingAndGlyphs" textLength="45" x="819" y="111.562">fileInfos</text><text fill="#000000" font-family="sans-serif" font-size="11" lengthAdjust="spacingAndGlyphs" textLength="42" x="819" y="124.3667">filePath</text><text fill="#000000" font-family="sans-serif" font-size="11" lengthAdjust="spacingAndGlyphs" textLength="24" x="819" y="137.1714">files</text><text fill="#000000" font-family="sans-serif" font-size="11" lengthAdjust="spacingAndGlyphs" textLength="11" x="819" y="149.9761">fs</text><text fill="#000000" font-family="sans-serif" font-size="11" lengthAdjust="spacingAndGlyphs" textLength="25" x="819" y="162.7808">path</text><text fill="#000000" font-family="sans-serif" font-size="11" lengthAdjust="spacingAndGlyphs" textLength="72" x="819" y="175.5854">sheetNames</text><text fill="#000000" font-family="sans-serif" font-size="11" lengthAdjust="spacingAndGlyphs" textLength="22" x="819" y="188.3901">stat</text><text fill="#000000" font-family="sans-serif" font-size="11" lengthAdjust="spacingAndGlyphs" textLength="29" x="819" y="201.1948">stats</text><text fill="#000000" font-family="sans-serif" font-size="11" lengthAdjust="spacingAndGlyphs" textLength="60" x="819" y="213.9995">storageDir</text><text fill="#000000" font-family="sans-serif" font-size="11" lengthAdjust="spacingAndGlyphs" textLength="17" x="819" y="226.8042">util</text><text fill="#000000" font-family="sans-serif" font-size="11" lengthAdjust="spacingAndGlyphs" textLength="54" x="819" y="239.6089">workbook</text><text fill="#000000" font-family="sans-serif" font-size="11" lengthAdjust="spacingAndGlyphs" textLength="22" x="819" y="252.4136">xlsx</text><!--MD5=[aa2414a8cd39f9315289df1e930da616]
class util--><rect fill="#FEFECE" filter="url(#f18zlxe321ccly)" height="32" id="util" style="stroke: #A80036; stroke-width: 1.5;" width="51" x="1010.5" y="349"/><ellipse cx="1025.5" cy="365" fill="#ADD1B2" rx="11" ry="11" style="stroke: #A80036; stroke-width: 1.0;"/><path d="M1028.4688,370.6406 Q1027.8906,370.9375 1027.25,371.0781 Q1026.6094,371.2344 1025.9063,371.2344 Q1023.4063,371.2344 1022.0781,369.5938 Q1020.7656,367.9375 1020.7656,364.8125 Q1020.7656,361.6875 1022.0781,360.0313 Q1023.4063,358.375 1025.9063,358.375 Q1026.6094,358.375 1027.25,358.5313 Q1027.9063,358.6875 1028.4688,358.9844 L1028.4688,361.7031 Q1027.8438,361.125 1027.25,360.8594 Q1026.6563,360.5781 1026.0313,360.5781 Q1024.6875,360.5781 1024,361.6563 Q1023.3125,362.7188 1023.3125,364.8125 Q1023.3125,366.9063 1024,367.9844 Q1024.6875,369.0469 1026.0313,369.0469 Q1026.6563,369.0469 1027.25,368.7813 Q1027.8438,368.5 1028.4688,367.9219 L1028.4688,370.6406 Z "/><text fill="#000000" font-family="sans-serif" font-size="12" lengthAdjust="spacingAndGlyphs" textLength="19" x="1039.5" y="369.1543">util</text><!--MD5=[bf99c54c132f6ae5ec501e48f4eebda7]
link excelDataController_js to path--><path d="M407.66,219.23 C442.7,250.7 483.89,287.04 522,319 C532.75,328.01 544.92,337.69 555.24,345.75 " fill="none" id="excelDataController_js-&gt;path" style="stroke: #A80036; stroke-width: 1.0;"/><polygon fill="#A80036" points="559.25,348.87,554.6081,340.1836,555.3055,345.7973,549.6919,346.4948,559.25,348.87" style="stroke: #A80036; stroke-width: 1.0;"/><text fill="#000000" font-family="sans-serif" font-size="13" lengthAdjust="spacingAndGlyphs" textLength="67" x="523" y="315.0669">storageDir</text><!--MD5=[bf99c54c132f6ae5ec501e48f4eebda7]
link excelDataController_js to path--><path d="M399.98,272.1 C414.34,289.5 430.42,305.84 448,319 C476.27,340.17 515.21,351.86 543.28,357.98 " fill="none" id="excelDataController_js-&gt;path-1" style="stroke: #A80036; stroke-width: 1.0;"/><polygon fill="#A80036" points="548.39,359.06,540.4037,353.2964,543.4966,358.0328,538.7602,361.1258,548.39,359.06" style="stroke: #A80036; stroke-width: 1.0;"/><text fill="#000000" font-family="sans-serif" font-size="13" lengthAdjust="spacingAndGlyphs" textLength="47" x="449" y="315.0669">filePath</text><!--MD5=[149c36df81c2f84d518a0190971ec62c]
link excelDataController_js to xlsx--><path d="M407.55,174.5 C485.61,205.67 603.73,254.35 704,302 C718.55,308.91 721.51,311.97 736,319 C759.21,330.27 785.91,342 806.17,350.66 " fill="none" id="excelDataController_js-&gt;xlsx" style="stroke: #A80036; stroke-width: 1.0;"/><polygon fill="#A80036" points="810.91,352.69,804.2215,345.4606,806.3165,350.7152,801.0619,352.8102,810.91,352.69" style="stroke: #A80036; stroke-width: 1.0;"/><text fill="#000000" font-family="sans-serif" font-size="13" lengthAdjust="spacingAndGlyphs" textLength="60" x="737" y="315.0669">workbook</text><!--MD5=[e1bd40fda9c3de138d0d49b872ed97df]
link excelDataController_js to Math--><path d="M318.3,272.24 C318.29,288 318.5,303.86 319,319 C319.27,327.01 319.8,335.81 320.34,343.49 " fill="none" id="excelDataController_js-&gt;Math" style="stroke: #A80036; stroke-width: 1.0;"/><polygon fill="#A80036" points="320.72,348.6,324.0667,339.3372,320.3627,343.6128,316.0872,339.9088,320.72,348.6" style="stroke: #A80036; stroke-width: 1.0;"/><text fill="#000000" font-family="sans-serif" font-size="13" lengthAdjust="spacingAndGlyphs" textLength="72" x="320" y="315.0669">maxLength</text><!--MD5=[d77113bb5feaa84805c25ba3d78bca72]
link excelDataController_js to Array--><path d="M236.41,208.21 C175.89,255.72 99.06,316.05 61.22,345.77 " fill="none" id="excelDataController_js-&gt;Array" style="stroke: #A80036; stroke-width: 1.0;"/><polygon fill="#A80036" points="57.24,348.89,66.7885,346.4764,61.1721,345.8015,61.847,340.1851,57.24,348.89" style="stroke: #A80036; stroke-width: 1.0;"/><text fill="#000000" font-family="sans-serif" font-size="13" lengthAdjust="spacingAndGlyphs" textLength="52" x="115" y="315.0669">headers</text><!--MD5=[d77113bb5feaa84805c25ba3d78bca72]
link excelDataController_js to Array--><path d="M236.33,163.45 C168.7,186.19 78.85,228.71 36,302 C28.66,314.56 29.62,331.12 32.17,343.97 " fill="none" id="excelDataController_js-&gt;Array-1" style="stroke: #A80036; stroke-width: 1.0;"/><polygon fill="#A80036" points="33.25,348.87,35.2024,339.2166,32.1653,343.9891,27.3929,340.952,33.25,348.87" style="stroke: #A80036; stroke-width: 1.0;"/><text fill="#000000" font-family="sans-serif" font-size="13" lengthAdjust="spacingAndGlyphs" textLength="53" x="37" y="315.0669">csvRows</text><!--MD5=[da4d21891eb1216368fcbfc0e4487fef]
link excelDataController_js to csvRows--><path d="M236.45,265.46 C228.93,277.65 221.66,289.96 215,302 C207.43,315.68 200.2,331.8 194.98,344.17 " fill="none" id="excelDataController_js-&gt;csvRows" style="stroke: #A80036; stroke-width: 1.0;"/><polygon fill="#A80036" points="193.01,348.89,200.1638,342.1208,194.9331,344.2746,192.7792,339.0438,193.01,348.89" style="stroke: #A80036; stroke-width: 1.0;"/><text fill="#000000" font-family="sans-serif" font-size="13" lengthAdjust="spacingAndGlyphs" textLength="93" x="216" y="315.0669">truncatedData</text><!--MD5=[f023162100781095d3ea85a95ce7db44]
link uploadController_js to util--><path d="M965.08,256.42 C987.49,290.41 1009.57,323.91 1023,344.27 " fill="none" id="uploadController_js-&gt;util" style="stroke: #A80036; stroke-width: 1.0;"/><polygon fill="#A80036" points="1025.89,348.66,1024.2644,338.9462,1023.133,344.4888,1017.5904,343.3574,1025.89,348.66" style="stroke: #A80036; stroke-width: 1.0;"/><text fill="#000000" font-family="sans-serif" font-size="13" lengthAdjust="spacingAndGlyphs" textLength="25" x="1005" y="315.0669">stat</text><!--MD5=[322899dbffe07e42e3aa95bf39017b2c]
link uploadController_js to path--><path d="M812.74,180.19 C758.98,209.76 686.89,253.43 631,302 C616.42,314.67 602.51,331.61 592.75,344.58 " fill="none" id="uploadController_js-&gt;path" style="stroke: #A80036; stroke-width: 1.0;"/><polygon fill="#A80036" points="589.6,348.81,598.1696,343.956,592.5748,344.7912,591.7395,339.1963,589.6,348.81" style="stroke: #A80036; stroke-width: 1.0;"/><text fill="#000000" font-family="sans-serif" font-size="13" lengthAdjust="spacingAndGlyphs" textLength="67" x="632" y="315.0669">storageDir</text><!--MD5=[322899dbffe07e42e3aa95bf39017b2c]
link uploadController_js to path--><path d="M852.9,259.37 C841.17,281.99 825.85,303.43 806,319 C776.75,341.94 671.2,355.23 614.92,360.83 " fill="none" id="uploadController_js-&gt;path-1" style="stroke: #A80036; stroke-width: 1.0;"/><polygon fill="#A80036" points="609.63,361.35,618.9763,364.4559,614.6063,360.8638,618.1984,356.4938,609.63,361.35" style="stroke: #A80036; stroke-width: 1.0;"/><text fill="#000000" font-family="sans-serif" font-size="13" lengthAdjust="spacingAndGlyphs" textLength="47" x="822" y="315.0669">filePath</text><!--MD5=[6878a314eecb72b26cd710a127f69c11]
link uploadController_js to xlsx--><path d="M908.72,259.26 C907.81,279.91 903.9,300.64 895,319 C889.47,330.42 879.48,339.81 869.39,347.01 " fill="none" id="uploadController_js-&gt;xlsx" style="stroke: #A80036; stroke-width: 1.0;"/><polygon fill="#A80036" points="865.07,349.96,874.7554,348.1731,869.1948,347.134,870.2338,341.5734,865.07,349.96" style="stroke: #A80036; stroke-width: 1.0;"/><text fill="#000000" font-family="sans-serif" font-size="13" lengthAdjust="spacingAndGlyphs" textLength="60" x="901" y="315.0669">workbook</text><text fill="#888888" font-family="sans-serif" font-size="10" lengthAdjust="spacingAndGlyphs" textLength="188" x="528" y="400.2822">Generated by GitUml www.gituml.com</text><!--MD5=[acd312c5b6a5e81ce506ef1f605acdfd]
@startuml
class excelDataController_js <<module>> << (M,orchid) >> #DarkSeaGreen {
    column
    csvData
    csvRows
    current
    data
    filePath
    fs
    generateExcelHeaders
    headers
    i
    maxLength
    path
    storageDir
    truncatedData
    workbook
    worksheet
    xlsx
}

excelDataController_js - -> path : storageDir
excelDataController_js - -> path : filePath
excelDataController_js - -> xlsx : workbook
excelDataController_js - -> Math : maxLength
excelDataController_js - -> Array : headers
excelDataController_js - -> Array : csvRows
excelDataController_js - -> csvRows : truncatedData
class generateTemplateController_js <<module>> << (M,orchid) >> #DarkSeaGreen {
    None?
    outputPath
}
class uploadController_js <<module>> << (M,orchid) >> #DarkSeaGreen {
    None?
    csv
    fileInfoPromises
    fileInfos
    filePath
    files
    fs
    path
    sheetNames
    stat
    stats
    storageDir
    util
    workbook
    xlsx
}

uploadController_js - -> util : stat
uploadController_js - -> path : storageDir
uploadController_js - -> path : filePath
uploadController_js - -> xlsx : workbook
center footer Generated by GitUml www.gituml.com
hide empty members
@enduml

PlantUML version 1.2020.08(Sun Apr 26 14:08:22 UTC 2020)
(GPL source distribution)
Java Runtime: OpenJDK Runtime Environment
JVM: OpenJDK 64-Bit Server VM
Java Version: 1.8.0_402-heroku-b06
Operating System: Linux
Default Encoding: UTF-8
Language: en
Country: US
--></g></svg>