<?xml version="1.0" encoding="UTF-8" standalone="no"?><svg xmlns="http://www.w3.org/2000/svg" xmlns:xlink="http://www.w3.org/1999/xlink" contentScriptType="application/ecmascript" contentStyleType="text/css" height="297px" preserveAspectRatio="none" style="width:493px;height:297px;" version="1.1" viewBox="0 0 493 297" width="493px" zoomAndPan="magnify"><defs><filter height="300%" id="ffx0oxy82g6hg" width="300%" x="-1" y="-1"><feGaussianBlur result="blurOut" stdDeviation="2.0"/><feColorMatrix in="blurOut" result="blurOut2" type="matrix" values="0 0 0 0 0 0 0 0 0 0 0 0 0 0 0 0 0 0 .4 0"/><feOffset dx="4.0" dy="4.0" in="blurOut2" result="blurOut3"/><feBlend in="SourceGraphic" in2="blurOut3" mode="normal"/></filter></defs><g><!--MD5=[d5c37888ed23153f53140fbdca874131]
class middleware_js--><rect fill="#8FBC8F" filter="url(#ffx0oxy82g6hg)" height="37.9375" id="middleware_js" style="stroke: #A80036; stroke-width: 1.5;" width="119" x="6" y="63"/><ellipse cx="21" cy="81.9688" fill="#DA70D6" rx="11" ry="11" style="stroke: #A80036; stroke-width: 1.0;"/><path d="M16.7188,75.5781 L19.6406,75.5781 L21.1094,81.0156 L22.5781,75.5781 L25.5156,75.5781 L25.5156,87.9688 L23.4063,87.9688 L23.4063,78.0469 L22.0938,83.4688 L20.1563,83.4688 L18.8281,78.0469 L18.8281,87.9688 L16.7188,87.9688 L16.7188,75.5781 Z "/><text fill="#000000" font-family="sans-serif" font-size="12" font-style="italic" lengthAdjust="spacingAndGlyphs" textLength="60" x="48.5" y="79.1387">«module»</text><text fill="#000000" font-family="sans-serif" font-size="12" lengthAdjust="spacingAndGlyphs" textLength="87" x="35" y="93.1074">middleware_js</text><!--MD5=[8ff97388c91d69bc1d800d434926c39b]
class multerConfig_js--><rect fill="#8FBC8F" filter="url(#ffx0oxy82g6hg)" height="130.7656" id="multerConfig_js" style="stroke: #A80036; stroke-width: 1.5;" width="127" x="160" y="16.5"/><ellipse cx="175" cy="35.4688" fill="#DA70D6" rx="11" ry="11" style="stroke: #A80036; stroke-width: 1.0;"/><path d="M170.7188,29.0781 L173.6406,29.0781 L175.1094,34.5156 L176.5781,29.0781 L179.5156,29.0781 L179.5156,41.4688 L177.4063,41.4688 L177.4063,31.5469 L176.0938,36.9688 L174.1563,36.9688 L172.8281,31.5469 L172.8281,41.4688 L170.7188,41.4688 L170.7188,29.0781 Z "/><text fill="#000000" font-family="sans-serif" font-size="12" font-style="italic" lengthAdjust="spacingAndGlyphs" textLength="60" x="206.5" y="32.6387">«module»</text><text fill="#000000" font-family="sans-serif" font-size="12" lengthAdjust="spacingAndGlyphs" textLength="95" x="189" y="46.6074">multerConfig_js</text><line style="stroke: #A80036; stroke-width: 1.5;" x1="161" x2="286" y1="54.4375" y2="54.4375"/><text fill="#000000" font-family="sans-serif" font-size="11" lengthAdjust="spacingAndGlyphs" textLength="45" x="166" y="68.6479">fileFilter</text><text fill="#000000" font-family="sans-serif" font-size="11" lengthAdjust="spacingAndGlyphs" textLength="37" x="166" y="81.4526">multer</text><text fill="#000000" font-family="sans-serif" font-size="11" lengthAdjust="spacingAndGlyphs" textLength="25" x="166" y="94.2573">path</text><text fill="#000000" font-family="sans-serif" font-size="11" lengthAdjust="spacingAndGlyphs" textLength="44" x="166" y="107.062">storage</text><text fill="#000000" font-family="sans-serif" font-size="11" lengthAdjust="spacingAndGlyphs" textLength="38" x="166" y="119.8667">upload</text><line style="stroke: #A80036; stroke-width: 1.0;" x1="161" x2="286" y1="126.4609" y2="126.4609"/><text fill="#000000" font-family="sans-serif" font-size="11" lengthAdjust="spacingAndGlyphs" textLength="52" x="166" y="140.6714">storage()</text><!--MD5=[a57ac19800a02d87186352aee9244c04]
class multer--><rect fill="#FEFECE" filter="url(#ffx0oxy82g6hg)" height="32" id="multer" style="stroke: #A80036; stroke-width: 1.5;" width="72" x="187.5" y="233"/><ellipse cx="202.5" cy="249" fill="#ADD1B2" rx="11" ry="11" style="stroke: #A80036; stroke-width: 1.0;"/><path d="M205.4688,254.6406 Q204.8906,254.9375 204.25,255.0781 Q203.6094,255.2344 202.9063,255.2344 Q200.4063,255.2344 199.0781,253.5938 Q197.7656,251.9375 197.7656,248.8125 Q197.7656,245.6875 199.0781,244.0313 Q200.4063,242.375 202.9063,242.375 Q203.6094,242.375 204.25,242.5313 Q204.9063,242.6875 205.4688,242.9844 L205.4688,245.7031 Q204.8438,245.125 204.25,244.8594 Q203.6563,244.5781 203.0313,244.5781 Q201.6875,244.5781 201,245.6563 Q200.3125,246.7188 200.3125,248.8125 Q200.3125,250.9063 201,251.9844 Q201.6875,253.0469 203.0313,253.0469 Q203.6563,253.0469 204.25,252.7813 Q204.8438,252.5 205.4688,251.9219 L205.4688,254.6406 Z "/><text fill="#000000" font-family="sans-serif" font-size="12" lengthAdjust="spacingAndGlyphs" textLength="40" x="216.5" y="253.1543">multer</text><!--MD5=[02296824f0cd8c0ac2986e8c684bb29b]
class validateExcel_js--><rect fill="#8FBC8F" filter="url(#ffx0oxy82g6hg)" height="148.375" id="validateExcel_js" style="stroke: #A80036; stroke-width: 1.5;" width="129" x="322" y="8"/><ellipse cx="337" cy="26.9688" fill="#DA70D6" rx="11" ry="11" style="stroke: #A80036; stroke-width: 1.0;"/><path d="M332.7188,20.5781 L335.6406,20.5781 L337.1094,26.0156 L338.5781,20.5781 L341.5156,20.5781 L341.5156,32.9688 L339.4063,32.9688 L339.4063,23.0469 L338.0938,28.4688 L336.1563,28.4688 L334.8281,23.0469 L334.8281,32.9688 L332.7188,32.9688 L332.7188,20.5781 Z "/><text fill="#000000" font-family="sans-serif" font-size="12" font-style="italic" lengthAdjust="spacingAndGlyphs" textLength="60" x="369.5" y="24.1387">«module»</text><text fill="#000000" font-family="sans-serif" font-size="12" lengthAdjust="spacingAndGlyphs" textLength="97" x="351" y="38.1074">validateExcel_js</text><line style="stroke: #A80036; stroke-width: 1.5;" x1="323" x2="450" y1="45.9375" y2="45.9375"/><text fill="#000000" font-family="sans-serif" font-size="11" lengthAdjust="spacingAndGlyphs" textLength="77" x="328" y="60.1479">XLSXPopulate</text><text fill="#000000" font-family="sans-serif" font-size="11" lengthAdjust="spacingAndGlyphs" textLength="44" x="328" y="72.9526">fileType</text><text fill="#000000" font-family="sans-serif" font-size="11" lengthAdjust="spacingAndGlyphs" textLength="85" x="328" y="85.7573">missingSheets</text><text fill="#000000" font-family="sans-serif" font-size="11" lengthAdjust="spacingAndGlyphs" textLength="88" x="328" y="98.562">requiredSheets</text><text fill="#000000" font-family="sans-serif" font-size="11" lengthAdjust="spacingAndGlyphs" textLength="72" x="328" y="111.3667">sheetNames</text><text fill="#000000" font-family="sans-serif" font-size="11" lengthAdjust="spacingAndGlyphs" textLength="87" x="328" y="124.1714">sheetsToCheck</text><text fill="#000000" font-family="sans-serif" font-size="11" lengthAdjust="spacingAndGlyphs" textLength="73" x="328" y="136.9761">validateExcel</text><text fill="#000000" font-family="sans-serif" font-size="11" lengthAdjust="spacingAndGlyphs" textLength="54" x="328" y="149.7808">workbook</text><!--MD5=[4ae0d88d6beb6b901cf1d0f119ae8ef7]
class sheetsToCheck--><rect fill="#FEFECE" filter="url(#ffx0oxy82g6hg)" height="32" id="sheetsToCheck" style="stroke: #A80036; stroke-width: 1.5;" width="128" x="322.5" y="233"/><ellipse cx="337.5" cy="249" fill="#ADD1B2" rx="11" ry="11" style="stroke: #A80036; stroke-width: 1.0;"/><path d="M340.4688,254.6406 Q339.8906,254.9375 339.25,255.0781 Q338.6094,255.2344 337.9063,255.2344 Q335.4063,255.2344 334.0781,253.5938 Q332.7656,251.9375 332.7656,248.8125 Q332.7656,245.6875 334.0781,244.0313 Q335.4063,242.375 337.9063,242.375 Q338.6094,242.375 339.25,242.5313 Q339.9063,242.6875 340.4688,242.9844 L340.4688,245.7031 Q339.8438,245.125 339.25,244.8594 Q338.6563,244.5781 338.0313,244.5781 Q336.6875,244.5781 336,245.6563 Q335.3125,246.7188 335.3125,248.8125 Q335.3125,250.9063 336,251.9844 Q336.6875,253.0469 338.0313,253.0469 Q338.6563,253.0469 339.25,252.7813 Q339.8438,252.5 340.4688,251.9219 L340.4688,254.6406 Z "/><text fill="#000000" font-family="sans-serif" font-size="12" lengthAdjust="spacingAndGlyphs" textLength="96" x="351.5" y="253.1543">sheetsToCheck</text><!--MD5=[2625f916dc23f2284df98816361b87ff]
link multerConfig_js to multer--><path d="M223.5,147.74 C223.5,176.25 223.5,207.73 223.5,227.67 " fill="none" id="multerConfig_js-&gt;multer" style="stroke: #A80036; stroke-width: 1.0;"/><polygon fill="#A80036" points="223.5,232.73,227.5,223.73,223.5,227.73,219.5,223.73,223.5,232.73" style="stroke: #A80036; stroke-width: 1.0;"/><text fill="#000000" font-family="sans-serif" font-size="13" lengthAdjust="spacingAndGlyphs" textLength="49" x="224.5" y="199.0669">storage</text><!--MD5=[e2292a083606f96c95d83cec9b6f9326]
link validateExcel_js to sheetsToCheck--><path d="M386.5,156.33 C386.5,182.38 386.5,209.67 386.5,227.63 " fill="none" id="validateExcel_js-&gt;sheetsToCheck" style="stroke: #A80036; stroke-width: 1.0;"/><polygon fill="#A80036" points="386.5,232.89,390.5,223.89,386.5,227.89,382.5,223.89,386.5,232.89" style="stroke: #A80036; stroke-width: 1.0;"/><text fill="#000000" font-family="sans-serif" font-size="13" lengthAdjust="spacingAndGlyphs" textLength="94" x="387.5" y="199.0669">missingSheets</text><text fill="#888888" font-family="sans-serif" font-size="10" lengthAdjust="spacingAndGlyphs" textLength="188" x="156.5" y="284.2822">Generated by GitUml www.gituml.com</text><!--MD5=[10cfbc56a742c38531ad0961e0b4deba]
@startuml
class middleware_js <<module>> << (M,orchid) >> #DarkSeaGreen {
}
class multerConfig_js <<module>> << (M,orchid) >> #DarkSeaGreen {
    fileFilter
    multer
    path
    storage
    upload
    - - -
    storage()
}

multerConfig_js - -> multer : storage
class validateExcel_js <<module>> << (M,orchid) >> #DarkSeaGreen {
    XLSXPopulate
    fileType
    missingSheets
    requiredSheets
    sheetNames
    sheetsToCheck
    validateExcel
    workbook
}

validateExcel_js - -> sheetsToCheck : missingSheets
center footer Generated by GitUml www.gituml.com
hide empty members
@enduml

PlantUML version 1.2020.08(Sun Apr 26 14:08:22 UTC 2020)
(GPL source distribution)
Java Runtime: OpenJDK Runtime Environment
JVM: OpenJDK 64-Bit Server VM
Java Version: 1.8.0_402-heroku-b06
Operating System: Linux
Default Encoding: UTF-8
Language: en
Country: US
--></g></svg>