<?xml version="1.0" encoding="UTF-8" standalone="no"?><svg xmlns="http://www.w3.org/2000/svg" xmlns:xlink="http://www.w3.org/1999/xlink" contentScriptType="application/ecmascript" contentStyleType="text/css" height="373px" preserveAspectRatio="none" style="width:358px;height:373px;" version="1.1" viewBox="0 0 358 373" width="358px" zoomAndPan="magnify"><defs><filter height="300%" id="f3lm3v93k03d0" width="300%" x="-1" y="-1"><feGaussianBlur result="blurOut" stdDeviation="2.0"/><feColorMatrix in="blurOut" result="blurOut2" type="matrix" values="0 0 0 0 0 0 0 0 0 0 0 0 0 0 0 0 0 0 .4 0"/><feOffset dx="4.0" dy="4.0" in="blurOut2" result="blurOut3"/><feBlend in="SourceGraphic" in2="blurOut3" mode="normal"/></filter></defs><g><!--MD5=[e3516ae3fd8b46646b91498cfe1a86e5]
class routes_js--><rect fill="#8FBC8F" filter="url(#f3lm3v93k03d0)" height="207.5938" id="routes_js" style="stroke: #A80036; stroke-width: 1.5;" width="89" x="136" y="8"/><ellipse cx="151" cy="26.9688" fill="#DA70D6" rx="11" ry="11" style="stroke: #A80036; stroke-width: 1.0;"/><path d="M146.7188,20.5781 L149.6406,20.5781 L151.1094,26.0156 L152.5781,20.5781 L155.5156,20.5781 L155.5156,32.9688 L153.4063,32.9688 L153.4063,23.0469 L152.0938,28.4688 L150.1563,28.4688 L148.8281,23.0469 L148.8281,32.9688 L146.7188,32.9688 L146.7188,20.5781 Z "/><text fill="#000000" font-family="sans-serif" font-size="12" font-style="italic" lengthAdjust="spacingAndGlyphs" textLength="60" x="163.5" y="24.1387">«module»</text><text fill="#000000" font-family="sans-serif" font-size="12" lengthAdjust="spacingAndGlyphs" textLength="57" x="165" y="38.1074">routes_js</text><line style="stroke: #A80036; stroke-width: 1.5;" x1="137" x2="224" y1="45.9375" y2="45.9375"/><text fill="#000000" font-family="sans-serif" font-size="11" lengthAdjust="spacingAndGlyphs" textLength="35" x="142" y="60.1479">None?</text><text fill="#000000" font-family="sans-serif" font-size="11" lengthAdjust="spacingAndGlyphs" textLength="46" x="142" y="72.9526">express</text><text fill="#000000" font-family="sans-serif" font-size="11" lengthAdjust="spacingAndGlyphs" textLength="42" x="142" y="85.7573">filePath</text><text fill="#000000" font-family="sans-serif" font-size="11" lengthAdjust="spacingAndGlyphs" textLength="49" x="142" y="98.562">filename</text><text fill="#000000" font-family="sans-serif" font-size="11" lengthAdjust="spacingAndGlyphs" textLength="11" x="142" y="111.3667">fs</text><text fill="#000000" font-family="sans-serif" font-size="11" lengthAdjust="spacingAndGlyphs" textLength="25" x="142" y="124.1714">path</text><text fill="#000000" font-family="sans-serif" font-size="11" lengthAdjust="spacingAndGlyphs" textLength="35" x="142" y="136.9761">router</text><text fill="#000000" font-family="sans-serif" font-size="11" lengthAdjust="spacingAndGlyphs" textLength="22" x="142" y="149.7808">stat</text><text fill="#000000" font-family="sans-serif" font-size="11" lengthAdjust="spacingAndGlyphs" textLength="69" x="142" y="162.5854">storagePath</text><text fill="#000000" font-family="sans-serif" font-size="11" lengthAdjust="spacingAndGlyphs" textLength="38" x="142" y="175.3901">upload</text><text fill="#000000" font-family="sans-serif" font-size="11" lengthAdjust="spacingAndGlyphs" textLength="17" x="142" y="188.1948">util</text><text fill="#000000" font-family="sans-serif" font-size="11" lengthAdjust="spacingAndGlyphs" textLength="73" x="142" y="200.9995">validateExcel</text><line style="stroke: #A80036; stroke-width: 1.5;" x1="137" x2="224" y1="207.5938" y2="207.5938"/><!--MD5=[088ccf32d3f9fe08d5ee24272f67d32a]
class express--><rect fill="#FEFECE" filter="url(#f3lm3v93k03d0)" height="48" id="express" style="stroke: #A80036; stroke-width: 1.5;" width="81" x="6" y="293"/><ellipse cx="21" cy="309" fill="#ADD1B2" rx="11" ry="11" style="stroke: #A80036; stroke-width: 1.0;"/><path d="M23.9688,314.6406 Q23.3906,314.9375 22.75,315.0781 Q22.1094,315.2344 21.4063,315.2344 Q18.9063,315.2344 17.5781,313.5938 Q16.2656,311.9375 16.2656,308.8125 Q16.2656,305.6875 17.5781,304.0313 Q18.9063,302.375 21.4063,302.375 Q22.1094,302.375 22.75,302.5313 Q23.4063,302.6875 23.9688,302.9844 L23.9688,305.7031 Q23.3438,305.125 22.75,304.8594 Q22.1563,304.5781 21.5313,304.5781 Q20.1875,304.5781 19.5,305.6563 Q18.8125,306.7188 18.8125,308.8125 Q18.8125,310.9063 19.5,311.9844 Q20.1875,313.0469 21.5313,313.0469 Q22.1563,313.0469 22.75,312.7813 Q23.3438,312.5 23.9688,311.9219 L23.9688,314.6406 Z "/><text fill="#000000" font-family="sans-serif" font-size="12" lengthAdjust="spacingAndGlyphs" textLength="49" x="35" y="313.1543">express</text><line style="stroke: #A80036; stroke-width: 1.5;" x1="7" x2="86" y1="325" y2="325"/><line style="stroke: #A80036; stroke-width: 1.5;" x1="7" x2="86" y1="333" y2="333"/><!--MD5=[aa2414a8cd39f9315289df1e930da616]
class util--><rect fill="#FEFECE" filter="url(#f3lm3v93k03d0)" height="48" id="util" style="stroke: #A80036; stroke-width: 1.5;" width="51" x="122" y="293"/><ellipse cx="137" cy="309" fill="#ADD1B2" rx="11" ry="11" style="stroke: #A80036; stroke-width: 1.0;"/><path d="M139.9688,314.6406 Q139.3906,314.9375 138.75,315.0781 Q138.1094,315.2344 137.4063,315.2344 Q134.9063,315.2344 133.5781,313.5938 Q132.2656,311.9375 132.2656,308.8125 Q132.2656,305.6875 133.5781,304.0313 Q134.9063,302.375 137.4063,302.375 Q138.1094,302.375 138.75,302.5313 Q139.4063,302.6875 139.9688,302.9844 L139.9688,305.7031 Q139.3438,305.125 138.75,304.8594 Q138.1563,304.5781 137.5313,304.5781 Q136.1875,304.5781 135.5,305.6563 Q134.8125,306.7188 134.8125,308.8125 Q134.8125,310.9063 135.5,311.9844 Q136.1875,313.0469 137.5313,313.0469 Q138.1563,313.0469 138.75,312.7813 Q139.3438,312.5 139.9688,311.9219 L139.9688,314.6406 Z "/><text fill="#000000" font-family="sans-serif" font-size="12" lengthAdjust="spacingAndGlyphs" textLength="19" x="151" y="313.1543">util</text><line style="stroke: #A80036; stroke-width: 1.5;" x1="123" x2="172" y1="325" y2="325"/><line style="stroke: #A80036; stroke-width: 1.5;" x1="123" x2="172" y1="333" y2="333"/><!--MD5=[30cfd14ac45273b9f475b49d568e17c3]
class path--><rect fill="#FEFECE" filter="url(#f3lm3v93k03d0)" height="48" id="path" style="stroke: #A80036; stroke-width: 1.5;" width="61" x="256" y="293"/><ellipse cx="271" cy="309" fill="#ADD1B2" rx="11" ry="11" style="stroke: #A80036; stroke-width: 1.0;"/><path d="M273.9688,314.6406 Q273.3906,314.9375 272.75,315.0781 Q272.1094,315.2344 271.4063,315.2344 Q268.9063,315.2344 267.5781,313.5938 Q266.2656,311.9375 266.2656,308.8125 Q266.2656,305.6875 267.5781,304.0313 Q268.9063,302.375 271.4063,302.375 Q272.1094,302.375 272.75,302.5313 Q273.4063,302.6875 273.9688,302.9844 L273.9688,305.7031 Q273.3438,305.125 272.75,304.8594 Q272.1563,304.5781 271.5313,304.5781 Q270.1875,304.5781 269.5,305.6563 Q268.8125,306.7188 268.8125,308.8125 Q268.8125,310.9063 269.5,311.9844 Q270.1875,313.0469 271.5313,313.0469 Q272.1563,313.0469 272.75,312.7813 Q273.3438,312.5 273.9688,311.9219 L273.9688,314.6406 Z "/><text fill="#000000" font-family="sans-serif" font-size="12" lengthAdjust="spacingAndGlyphs" textLength="29" x="285" y="313.1543">path</text><line style="stroke: #A80036; stroke-width: 1.5;" x1="257" x2="316" y1="325" y2="325"/><line style="stroke: #A80036; stroke-width: 1.5;" x1="257" x2="316" y1="333" y2="333"/><!--MD5=[9ca2e157352a5612f44b04c030ca7a12]
link routes_js to express--><path d="M135.88,180.6 C111.6,217.38 82.89,260.88 64.68,288.45 " fill="none" id="routes_js-&gt;express" style="stroke: #A80036; stroke-width: 1.0;"/><polygon fill="#A80036" points="61.86,292.74,70.1596,287.4374,64.617,288.5688,63.4856,283.0262,61.86,292.74" style="stroke: #A80036; stroke-width: 1.0;"/><text fill="#000000" font-family="sans-serif" font-size="13" lengthAdjust="spacingAndGlyphs" textLength="39" x="91.5" y="259.0669">router</text><!--MD5=[0e0c655cd0ebfab46aaaf28a26189dee]
link routes_js to util--><path d="M149.71,216.29 C147.59,226.26 145.79,236.28 144.5,246 C143.5,253.49 144.29,255.45 144.5,263 C144.72,270.93 145.14,279.53 145.59,287.44 " fill="none" id="routes_js-&gt;util" style="stroke: #A80036; stroke-width: 1.0;"/><polygon fill="#A80036" points="145.9,292.79,149.3785,283.5759,145.6139,287.7982,141.3916,284.0336,145.9,292.79" style="stroke: #A80036; stroke-width: 1.0;"/><text fill="#000000" font-family="sans-serif" font-size="13" lengthAdjust="spacingAndGlyphs" textLength="25" x="145.5" y="259.0669">stat</text><!--MD5=[905dcd00913b2fb7663c3b321cc0f5c6]
link routes_js to path--><path d="M191.14,216.32 C195.79,232.78 202.32,248.98 211.5,263 C221.31,277.99 236.96,290.03 251.44,298.83 " fill="none" id="routes_js-&gt;path" style="stroke: #A80036; stroke-width: 1.0;"/><polygon fill="#A80036" points="255.88,301.45,250.1379,293.4482,251.5663,298.9218,246.0927,300.3501,255.88,301.45" style="stroke: #A80036; stroke-width: 1.0;"/><text fill="#000000" font-family="sans-serif" font-size="13" lengthAdjust="spacingAndGlyphs" textLength="78" x="212.5" y="259.0669">storagePath</text><!--MD5=[905dcd00913b2fb7663c3b321cc0f5c6]
link routes_js to path--><path d="M225.11,149.53 C251.07,173.8 281.39,208.1 295.5,246 C300.44,259.28 299.09,274.85 296.11,287.92 " fill="none" id="routes_js-&gt;path-1" style="stroke: #A80036; stroke-width: 1.0;"/><polygon fill="#A80036" points="294.85,292.99,300.9188,285.2331,296.066,288.1401,293.159,283.2874,294.85,292.99" style="stroke: #A80036; stroke-width: 1.0;"/><text fill="#000000" font-family="sans-serif" font-size="13" lengthAdjust="spacingAndGlyphs" textLength="47" x="299.5" y="259.0669">filePath</text><text fill="#888888" font-family="sans-serif" font-size="10" lengthAdjust="spacingAndGlyphs" textLength="191" x="87.5" y="360.2822">Generated by GitUML www.gituml.com</text><!--MD5=[e4579c507b151faafd6f7ab246b220f3]
@startuml
class routes_js <<module>> << (M,orchid) >> #DarkSeaGreen {
    None?
    express
    filePath
    filename
    fs
    path
    router
    stat
    storagePath
    upload
    util
    validateExcel
}

routes_js - -> express : router
routes_js - -> util : stat
routes_js - -> path : storagePath
routes_js - -> path : filePath
center footer Generated by GitUML www.gituml.com
@enduml

PlantUML version 1.2020.08(Sun Apr 26 14:08:22 UTC 2020)
(GPL source distribution)
Java Runtime: OpenJDK Runtime Environment
JVM: OpenJDK 64-Bit Server VM
Java Version: 1.8.0_402-heroku-b06
Operating System: Linux
Default Encoding: UTF-8
Language: en
Country: US
--></g></svg>