<?xml version="1.0" encoding="UTF-8" standalone="no"?>
<!DOCTYPE svg PUBLIC "-//W3C//DTD SVG 1.1//EN"
 "http://www.w3.org/Graphics/SVG/1.1/DTD/svg11.dtd">
<!-- Generated by graphviz version 13.0.0 (20250608.1624)
 -->
<!-- Title: G Pages: 1 -->
<svg width="1324pt" height="1999pt"
 viewBox="0.00 0.00 1324.00 1999.00" xmlns="http://www.w3.org/2000/svg" xmlns:xlink="http://www.w3.org/1999/xlink">
<g id="graph0" class="graph" transform="scale(1 1) rotate(0) translate(21.6 1977.35)">
<title>G</title>
<polygon fill="#111111" stroke="none" points="-21.6,21.6 -21.6,-1977.35 1302.6,-1977.35 1302.6,21.6 -21.6,21.6"/>
<!-- controllers/excelDataController.js -->
<g id="node1" class="node">
<title>controllers/excelDataController.js</title>
<path fill="none" stroke="#cfffac" d="M438.46,-191.75C438.46,-191.75 241.04,-191.75 241.04,-191.75 237.08,-191.75 233.12,-187.79 233.12,-183.83 233.12,-183.83 233.12,-175.92 233.12,-175.92 233.12,-171.96 237.08,-168 241.04,-168 241.04,-168 438.46,-168 438.46,-168 442.42,-168 446.38,-171.96 446.38,-175.92 446.38,-175.92 446.38,-183.83 446.38,-183.83 446.38,-187.79 442.42,-191.75 438.46,-191.75"/>
<text xml:space="preserve" text-anchor="middle" x="339.75" y="-174.45" font-family="Arial" font-size="14.00" fill="#cfffac">controllers/excelDataController.js</text>
</g>
<!-- controllers/generateTemplateController.js -->
<g id="node2" class="node">
<title>controllers/generateTemplateController.js</title>
<path fill="none" stroke="#c6c5fe" d="M462.83,-149.75C462.83,-149.75 216.67,-149.75 216.67,-149.75 212.71,-149.75 208.75,-145.79 208.75,-141.83 208.75,-141.83 208.75,-133.92 208.75,-133.92 208.75,-129.96 212.71,-126 216.67,-126 216.67,-126 462.83,-126 462.83,-126 466.79,-126 470.75,-129.96 470.75,-133.92 470.75,-133.92 470.75,-141.83 470.75,-141.83 470.75,-145.79 466.79,-149.75 462.83,-149.75"/>
<text xml:space="preserve" text-anchor="middle" x="339.75" y="-132.45" font-family="Arial" font-size="14.00" fill="#c6c5fe">controllers/generateTemplateController.js</text>
</g>
<!-- services/templateService.js -->
<g id="node3" class="node">
<title>services/templateService.js</title>
<path fill="none" stroke="#c6c5fe" d="M679.08,-149.75C679.08,-149.75 514.67,-149.75 514.67,-149.75 510.71,-149.75 506.75,-145.79 506.75,-141.83 506.75,-141.83 506.75,-133.92 506.75,-133.92 506.75,-129.96 510.71,-126 514.67,-126 514.67,-126 679.08,-126 679.08,-126 683.04,-126 687,-129.96 687,-133.92 687,-133.92 687,-141.83 687,-141.83 687,-145.79 683.04,-149.75 679.08,-149.75"/>
<text xml:space="preserve" text-anchor="middle" x="596.88" y="-132.45" font-family="Arial" font-size="14.00" fill="#c6c5fe">services/templateService.js</text>
</g>
<!-- controllers/generateTemplateController.js&#45;&gt;services/templateService.js -->
<g id="edge1" class="edge">
<title>controllers/generateTemplateController.js&#45;&gt;services/templateService.js</title>
<path fill="none" stroke="#757575" d="M470.93,-137.88C479.02,-137.88 487.09,-137.88 495.02,-137.88"/>
<polygon fill="#757575" stroke="#757575" points="495.01,-141.38 505.01,-137.88 495.01,-134.38 495.01,-141.38"/>
</g>
<!-- services/pais_bfe.js -->
<g id="node52" class="node">
<title>services/pais_bfe.js</title>
<path fill="none" stroke="#c6c5fe" d="M862.33,-169.75C862.33,-169.75 744.42,-169.75 744.42,-169.75 740.46,-169.75 736.5,-165.79 736.5,-161.83 736.5,-161.83 736.5,-153.92 736.5,-153.92 736.5,-149.96 740.46,-146 744.42,-146 744.42,-146 862.33,-146 862.33,-146 866.29,-146 870.25,-149.96 870.25,-153.92 870.25,-153.92 870.25,-161.83 870.25,-161.83 870.25,-165.79 866.29,-169.75 862.33,-169.75"/>
<text xml:space="preserve" text-anchor="middle" x="803.38" y="-152.45" font-family="Arial" font-size="14.00" fill="#c6c5fe">services/pais_bfe.js</text>
</g>
<!-- services/templateService.js&#45;&gt;services/pais_bfe.js -->
<g id="edge11" class="edge">
<title>services/templateService.js&#45;&gt;services/pais_bfe.js</title>
<path fill="none" stroke="#757575" d="M687.27,-146.62C699.86,-147.85 712.72,-149.11 725.06,-150.31"/>
<polygon fill="#757575" stroke="#757575" points="724.42,-153.77 734.71,-151.26 725.1,-146.8 724.42,-153.77"/>
</g>
<!-- services/sectionPatternLoader.js -->
<g id="node53" class="node">
<title>services/sectionPatternLoader.js</title>
<path fill="none" stroke="#cfffac" d="M1122.08,-209.75C1122.08,-209.75 927.67,-209.75 927.67,-209.75 923.71,-209.75 919.75,-205.79 919.75,-201.83 919.75,-201.83 919.75,-193.92 919.75,-193.92 919.75,-189.96 923.71,-186 927.67,-186 927.67,-186 1122.08,-186 1122.08,-186 1126.04,-186 1130,-189.96 1130,-193.92 1130,-193.92 1130,-201.83 1130,-201.83 1130,-205.79 1126.04,-209.75 1122.08,-209.75"/>
<text xml:space="preserve" text-anchor="middle" x="1024.88" y="-192.45" font-family="Arial" font-size="14.00" fill="#cfffac">services/sectionPatternLoader.js</text>
</g>
<!-- services/templateService.js&#45;&gt;services/sectionPatternLoader.js -->
<g id="edge12" class="edge">
<title>services/templateService.js&#45;&gt;services/sectionPatternLoader.js</title>
<path fill="none" stroke="#757575" d="M628.15,-150.2C653.15,-159.78 689.78,-172.49 723,-178.88 783.35,-190.47 851.63,-195.43 907.87,-197.4"/>
<polygon fill="#757575" stroke="#757575" points="907.7,-200.89 917.81,-197.71 907.92,-193.89 907.7,-200.89"/>
</g>
<!-- utils/dataUtils.js -->
<g id="node54" class="node">
<title>utils/dataUtils.js</title>
<path fill="none" stroke="#c6c5fe" d="M1071.83,-87.75C1071.83,-87.75 977.92,-87.75 977.92,-87.75 973.96,-87.75 970,-83.79 970,-79.83 970,-79.83 970,-71.92 970,-71.92 970,-67.96 973.96,-64 977.92,-64 977.92,-64 1071.83,-64 1071.83,-64 1075.79,-64 1079.75,-67.96 1079.75,-71.92 1079.75,-71.92 1079.75,-79.83 1079.75,-79.83 1079.75,-83.79 1075.79,-87.75 1071.83,-87.75"/>
<text xml:space="preserve" text-anchor="middle" x="1024.88" y="-70.45" font-family="Arial" font-size="14.00" fill="#c6c5fe">utils/dataUtils.js</text>
</g>
<!-- services/templateService.js&#45;&gt;utils/dataUtils.js -->
<g id="edge13" class="edge">
<title>services/templateService.js&#45;&gt;utils/dataUtils.js</title>
<path fill="none" stroke="#757575" d="M682.8,-125.51C764.07,-113.69 884.9,-96.1 958.8,-85.35"/>
<polygon fill="#757575" stroke="#757575" points="958.91,-88.87 968.3,-83.96 957.9,-81.94 958.91,-88.87"/>
</g>
<!-- utils/excelUtils.js -->
<g id="node55" class="node">
<title>utils/excelUtils.js</title>
<path fill="none" stroke="#cfffac" d="M1273.08,-169.75C1273.08,-169.75 1173.92,-169.75 1173.92,-169.75 1169.96,-169.75 1166,-165.79 1166,-161.83 1166,-161.83 1166,-153.92 1166,-153.92 1166,-149.96 1169.96,-146 1173.92,-146 1173.92,-146 1273.08,-146 1273.08,-146 1277.04,-146 1281,-149.96 1281,-153.92 1281,-153.92 1281,-161.83 1281,-161.83 1281,-165.79 1277.04,-169.75 1273.08,-169.75"/>
<text xml:space="preserve" text-anchor="middle" x="1223.5" y="-152.45" font-family="Arial" font-size="14.00" fill="#cfffac">utils/excelUtils.js</text>
</g>
<!-- services/templateService.js&#45;&gt;utils/excelUtils.js -->
<g id="edge14" class="edge">
<title>services/templateService.js&#45;&gt;utils/excelUtils.js</title>
<path fill="none" stroke="#757575" d="M616.01,-150.02C639.55,-165.1 682.43,-190.23 723,-201.88 897.02,-251.82 956.59,-270.91 1130,-218.88 1156.99,-210.78 1183.37,-191.98 1201.01,-177.37"/>
<polygon fill="#757575" stroke="#757575" points="1202.92,-180.34 1208.24,-171.18 1198.37,-175.02 1202.92,-180.34"/>
</g>
<!-- utils/patternUtils.js -->
<g id="node56" class="node">
<title>utils/patternUtils.js</title>
<path fill="none" stroke="#cfffac" d="M1079.71,-129.75C1079.71,-129.75 970.04,-129.75 970.04,-129.75 966.08,-129.75 962.12,-125.79 962.12,-121.83 962.12,-121.83 962.12,-113.92 962.12,-113.92 962.12,-109.96 966.08,-106 970.04,-106 970.04,-106 1079.71,-106 1079.71,-106 1083.67,-106 1087.62,-109.96 1087.62,-113.92 1087.62,-113.92 1087.62,-121.83 1087.62,-121.83 1087.62,-125.79 1083.67,-129.75 1079.71,-129.75"/>
<text xml:space="preserve" text-anchor="middle" x="1024.88" y="-112.45" font-family="Arial" font-size="14.00" fill="#cfffac">utils/patternUtils.js</text>
</g>
<!-- services/templateService.js&#45;&gt;utils/patternUtils.js -->
<g id="edge15" class="edge">
<title>services/templateService.js&#45;&gt;utils/patternUtils.js</title>
<path fill="none" stroke="#757575" d="M687.44,-133.67C765.5,-130.01 877.35,-124.75 950.29,-121.33"/>
<polygon fill="#757575" stroke="#757575" points="950.32,-124.83 960.14,-120.87 949.99,-117.84 950.32,-124.83"/>
</g>
<!-- utils/presentacionUtils.js -->
<g id="node57" class="node">
<title>utils/presentacionUtils.js</title>
<path fill="none" stroke="#cfffac" d="M875.83,-51.75C875.83,-51.75 730.92,-51.75 730.92,-51.75 726.96,-51.75 723,-47.79 723,-43.83 723,-43.83 723,-35.92 723,-35.92 723,-31.96 726.96,-28 730.92,-28 730.92,-28 875.83,-28 875.83,-28 879.79,-28 883.75,-31.96 883.75,-35.92 883.75,-35.92 883.75,-43.83 883.75,-43.83 883.75,-47.79 879.79,-51.75 875.83,-51.75"/>
<text xml:space="preserve" text-anchor="middle" x="803.38" y="-34.45" font-family="Arial" font-size="14.00" fill="#cfffac">utils/presentacionUtils.js</text>
</g>
<!-- services/templateService.js&#45;&gt;utils/presentacionUtils.js -->
<g id="edge16" class="edge">
<title>services/templateService.js&#45;&gt;utils/presentacionUtils.js</title>
<path fill="none" stroke="#757575" d="M616.32,-125.64C640.18,-110.2 683.4,-83.53 723,-65.88 731.1,-62.26 739.86,-58.89 748.51,-55.86"/>
<polygon fill="#757575" stroke="#757575" points="749.55,-59.2 757.9,-52.68 747.31,-52.57 749.55,-59.2"/>
</g>
<!-- controllers/uploadController.js -->
<g id="node4" class="node">
<title>controllers/uploadController.js</title>
<path fill="none" stroke="#cfffac" d="M428.71,-107.75C428.71,-107.75 250.79,-107.75 250.79,-107.75 246.83,-107.75 242.88,-103.79 242.88,-99.83 242.88,-99.83 242.88,-91.92 242.88,-91.92 242.88,-87.96 246.83,-84 250.79,-84 250.79,-84 428.71,-84 428.71,-84 432.67,-84 436.62,-87.96 436.62,-91.92 436.62,-91.92 436.62,-99.83 436.62,-99.83 436.62,-103.79 432.67,-107.75 428.71,-107.75"/>
<text xml:space="preserve" text-anchor="middle" x="339.75" y="-90.45" font-family="Arial" font-size="14.00" fill="#cfffac">controllers/uploadController.js</text>
</g>
<!-- middleware/middleware.js -->
<g id="node5" class="node">
<title>middleware/middleware.js</title>
<path fill="none" stroke="#cfffac" d="M164.83,-149.75C164.83,-149.75 7.92,-149.75 7.92,-149.75 3.96,-149.75 0,-145.79 0,-141.83 0,-141.83 0,-133.92 0,-133.92 0,-129.96 3.96,-126 7.92,-126 7.92,-126 164.83,-126 164.83,-126 168.79,-126 172.75,-129.96 172.75,-133.92 172.75,-133.92 172.75,-141.83 172.75,-141.83 172.75,-145.79 168.79,-149.75 164.83,-149.75"/>
<text xml:space="preserve" text-anchor="middle" x="86.38" y="-132.45" font-family="Arial" font-size="14.00" fill="#cfffac">middleware/middleware.js</text>
</g>
<!-- middleware/multerConfig.js -->
<g id="node6" class="node">
<title>middleware/multerConfig.js</title>
<path fill="none" stroke="#cfffac" d="M421.96,-65.75C421.96,-65.75 257.54,-65.75 257.54,-65.75 253.58,-65.75 249.62,-61.79 249.62,-57.83 249.62,-57.83 249.62,-49.92 249.62,-49.92 249.62,-45.96 253.58,-42 257.54,-42 257.54,-42 421.96,-42 421.96,-42 425.92,-42 429.88,-45.96 429.88,-49.92 429.88,-49.92 429.88,-57.83 429.88,-57.83 429.88,-61.79 425.92,-65.75 421.96,-65.75"/>
<text xml:space="preserve" text-anchor="middle" x="339.75" y="-48.45" font-family="Arial" font-size="14.00" fill="#cfffac">middleware/multerConfig.js</text>
</g>
<!-- middleware/validateExcel.js -->
<g id="node7" class="node">
<title>middleware/validateExcel.js</title>
<path fill="none" stroke="#cfffac" d="M423.08,-23.75C423.08,-23.75 256.42,-23.75 256.42,-23.75 252.46,-23.75 248.5,-19.79 248.5,-15.83 248.5,-15.83 248.5,-7.92 248.5,-7.92 248.5,-3.96 252.46,0 256.42,0 256.42,0 423.08,0 423.08,0 427.04,0 431,-3.96 431,-7.92 431,-7.92 431,-15.83 431,-15.83 431,-19.79 427.04,-23.75 423.08,-23.75"/>
<text xml:space="preserve" text-anchor="middle" x="339.75" y="-6.45" font-family="Arial" font-size="14.00" fill="#cfffac">middleware/validateExcel.js</text>
</g>
<!-- patterns/pattern1.js -->
<g id="node8" class="node">
<title>patterns/pattern1.js</title>
<path fill="none" stroke="#cfffac" d="M144.21,-191.75C144.21,-191.75 28.54,-191.75 28.54,-191.75 24.58,-191.75 20.62,-187.79 20.62,-183.83 20.62,-183.83 20.62,-175.92 20.62,-175.92 20.62,-171.96 24.58,-168 28.54,-168 28.54,-168 144.21,-168 144.21,-168 148.17,-168 152.12,-171.96 152.12,-175.92 152.12,-175.92 152.12,-183.83 152.12,-183.83 152.12,-187.79 148.17,-191.75 144.21,-191.75"/>
<text xml:space="preserve" text-anchor="middle" x="86.38" y="-174.45" font-family="Arial" font-size="14.00" fill="#cfffac">patterns/pattern1.js</text>
</g>
<!-- patterns/pattern10.js -->
<g id="node9" class="node">
<title>patterns/pattern10.js</title>
<path fill="none" stroke="#cfffac" d="M147.96,-233.75C147.96,-233.75 24.79,-233.75 24.79,-233.75 20.83,-233.75 16.88,-229.79 16.88,-225.83 16.88,-225.83 16.88,-217.92 16.88,-217.92 16.88,-213.96 20.83,-210 24.79,-210 24.79,-210 147.96,-210 147.96,-210 151.92,-210 155.88,-213.96 155.88,-217.92 155.88,-217.92 155.88,-225.83 155.88,-225.83 155.88,-229.79 151.92,-233.75 147.96,-233.75"/>
<text xml:space="preserve" text-anchor="middle" x="86.38" y="-216.45" font-family="Arial" font-size="14.00" fill="#cfffac">patterns/pattern10.js</text>
</g>
<!-- patterns/pattern11.js -->
<g id="node10" class="node">
<title>patterns/pattern11.js</title>
<path fill="none" stroke="#cfffac" d="M147.58,-275.75C147.58,-275.75 25.17,-275.75 25.17,-275.75 21.21,-275.75 17.25,-271.79 17.25,-267.83 17.25,-267.83 17.25,-259.92 17.25,-259.92 17.25,-255.96 21.21,-252 25.17,-252 25.17,-252 147.58,-252 147.58,-252 151.54,-252 155.5,-255.96 155.5,-259.92 155.5,-259.92 155.5,-267.83 155.5,-267.83 155.5,-271.79 151.54,-275.75 147.58,-275.75"/>
<text xml:space="preserve" text-anchor="middle" x="86.38" y="-258.45" font-family="Arial" font-size="14.00" fill="#cfffac">patterns/pattern11.js</text>
</g>
<!-- patterns/pattern12.js -->
<g id="node11" class="node">
<title>patterns/pattern12.js</title>
<path fill="none" stroke="#cfffac" d="M147.96,-317.75C147.96,-317.75 24.79,-317.75 24.79,-317.75 20.83,-317.75 16.88,-313.79 16.88,-309.83 16.88,-309.83 16.88,-301.92 16.88,-301.92 16.88,-297.96 20.83,-294 24.79,-294 24.79,-294 147.96,-294 147.96,-294 151.92,-294 155.88,-297.96 155.88,-301.92 155.88,-301.92 155.88,-309.83 155.88,-309.83 155.88,-313.79 151.92,-317.75 147.96,-317.75"/>
<text xml:space="preserve" text-anchor="middle" x="86.38" y="-300.45" font-family="Arial" font-size="14.00" fill="#cfffac">patterns/pattern12.js</text>
</g>
<!-- patterns/pattern13.js -->
<g id="node12" class="node">
<title>patterns/pattern13.js</title>
<path fill="none" stroke="#cfffac" d="M147.96,-359.75C147.96,-359.75 24.79,-359.75 24.79,-359.75 20.83,-359.75 16.88,-355.79 16.88,-351.83 16.88,-351.83 16.88,-343.92 16.88,-343.92 16.88,-339.96 20.83,-336 24.79,-336 24.79,-336 147.96,-336 147.96,-336 151.92,-336 155.88,-339.96 155.88,-343.92 155.88,-343.92 155.88,-351.83 155.88,-351.83 155.88,-355.79 151.92,-359.75 147.96,-359.75"/>
<text xml:space="preserve" text-anchor="middle" x="86.38" y="-342.45" font-family="Arial" font-size="14.00" fill="#cfffac">patterns/pattern13.js</text>
</g>
<!-- patterns/pattern14.js -->
<g id="node13" class="node">
<title>patterns/pattern14.js</title>
<path fill="none" stroke="#cfffac" d="M147.96,-401.75C147.96,-401.75 24.79,-401.75 24.79,-401.75 20.83,-401.75 16.88,-397.79 16.88,-393.83 16.88,-393.83 16.88,-385.92 16.88,-385.92 16.88,-381.96 20.83,-378 24.79,-378 24.79,-378 147.96,-378 147.96,-378 151.92,-378 155.88,-381.96 155.88,-385.92 155.88,-385.92 155.88,-393.83 155.88,-393.83 155.88,-397.79 151.92,-401.75 147.96,-401.75"/>
<text xml:space="preserve" text-anchor="middle" x="86.38" y="-384.45" font-family="Arial" font-size="14.00" fill="#cfffac">patterns/pattern14.js</text>
</g>
<!-- patterns/pattern17.js -->
<g id="node14" class="node">
<title>patterns/pattern17.js</title>
<path fill="none" stroke="#cfffac" d="M147.96,-443.75C147.96,-443.75 24.79,-443.75 24.79,-443.75 20.83,-443.75 16.88,-439.79 16.88,-435.83 16.88,-435.83 16.88,-427.92 16.88,-427.92 16.88,-423.96 20.83,-420 24.79,-420 24.79,-420 147.96,-420 147.96,-420 151.92,-420 155.88,-423.96 155.88,-427.92 155.88,-427.92 155.88,-435.83 155.88,-435.83 155.88,-439.79 151.92,-443.75 147.96,-443.75"/>
<text xml:space="preserve" text-anchor="middle" x="86.38" y="-426.45" font-family="Arial" font-size="14.00" fill="#cfffac">patterns/pattern17.js</text>
</g>
<!-- patterns/pattern2.js -->
<g id="node15" class="node">
<title>patterns/pattern2.js</title>
<path fill="none" stroke="#cfffac" d="M144.21,-485.75C144.21,-485.75 28.54,-485.75 28.54,-485.75 24.58,-485.75 20.62,-481.79 20.62,-477.83 20.62,-477.83 20.62,-469.92 20.62,-469.92 20.62,-465.96 24.58,-462 28.54,-462 28.54,-462 144.21,-462 144.21,-462 148.17,-462 152.12,-465.96 152.12,-469.92 152.12,-469.92 152.12,-477.83 152.12,-477.83 152.12,-481.79 148.17,-485.75 144.21,-485.75"/>
<text xml:space="preserve" text-anchor="middle" x="86.38" y="-468.45" font-family="Arial" font-size="14.00" fill="#cfffac">patterns/pattern2.js</text>
</g>
<!-- patterns/pattern20.js -->
<g id="node16" class="node">
<title>patterns/pattern20.js</title>
<path fill="none" stroke="#cfffac" d="M147.96,-527.75C147.96,-527.75 24.79,-527.75 24.79,-527.75 20.83,-527.75 16.88,-523.79 16.88,-519.83 16.88,-519.83 16.88,-511.92 16.88,-511.92 16.88,-507.96 20.83,-504 24.79,-504 24.79,-504 147.96,-504 147.96,-504 151.92,-504 155.88,-507.96 155.88,-511.92 155.88,-511.92 155.88,-519.83 155.88,-519.83 155.88,-523.79 151.92,-527.75 147.96,-527.75"/>
<text xml:space="preserve" text-anchor="middle" x="86.38" y="-510.45" font-family="Arial" font-size="14.00" fill="#cfffac">patterns/pattern20.js</text>
</g>
<!-- patterns/pattern21.js -->
<g id="node17" class="node">
<title>patterns/pattern21.js</title>
<path fill="none" stroke="#cfffac" d="M147.96,-569.75C147.96,-569.75 24.79,-569.75 24.79,-569.75 20.83,-569.75 16.88,-565.79 16.88,-561.83 16.88,-561.83 16.88,-553.92 16.88,-553.92 16.88,-549.96 20.83,-546 24.79,-546 24.79,-546 147.96,-546 147.96,-546 151.92,-546 155.88,-549.96 155.88,-553.92 155.88,-553.92 155.88,-561.83 155.88,-561.83 155.88,-565.79 151.92,-569.75 147.96,-569.75"/>
<text xml:space="preserve" text-anchor="middle" x="86.38" y="-552.45" font-family="Arial" font-size="14.00" fill="#cfffac">patterns/pattern21.js</text>
</g>
<!-- patterns/pattern22.js -->
<g id="node18" class="node">
<title>patterns/pattern22.js</title>
<path fill="none" stroke="#cfffac" d="M147.96,-611.75C147.96,-611.75 24.79,-611.75 24.79,-611.75 20.83,-611.75 16.88,-607.79 16.88,-603.83 16.88,-603.83 16.88,-595.92 16.88,-595.92 16.88,-591.96 20.83,-588 24.79,-588 24.79,-588 147.96,-588 147.96,-588 151.92,-588 155.88,-591.96 155.88,-595.92 155.88,-595.92 155.88,-603.83 155.88,-603.83 155.88,-607.79 151.92,-611.75 147.96,-611.75"/>
<text xml:space="preserve" text-anchor="middle" x="86.38" y="-594.45" font-family="Arial" font-size="14.00" fill="#cfffac">patterns/pattern22.js</text>
</g>
<!-- patterns/pattern23.js -->
<g id="node19" class="node">
<title>patterns/pattern23.js</title>
<path fill="none" stroke="#cfffac" d="M147.96,-653.75C147.96,-653.75 24.79,-653.75 24.79,-653.75 20.83,-653.75 16.88,-649.79 16.88,-645.83 16.88,-645.83 16.88,-637.92 16.88,-637.92 16.88,-633.96 20.83,-630 24.79,-630 24.79,-630 147.96,-630 147.96,-630 151.92,-630 155.88,-633.96 155.88,-637.92 155.88,-637.92 155.88,-645.83 155.88,-645.83 155.88,-649.79 151.92,-653.75 147.96,-653.75"/>
<text xml:space="preserve" text-anchor="middle" x="86.38" y="-636.45" font-family="Arial" font-size="14.00" fill="#cfffac">patterns/pattern23.js</text>
</g>
<!-- patterns/pattern28.js -->
<g id="node20" class="node">
<title>patterns/pattern28.js</title>
<path fill="none" stroke="#cfffac" d="M147.96,-695.75C147.96,-695.75 24.79,-695.75 24.79,-695.75 20.83,-695.75 16.88,-691.79 16.88,-687.83 16.88,-687.83 16.88,-679.92 16.88,-679.92 16.88,-675.96 20.83,-672 24.79,-672 24.79,-672 147.96,-672 147.96,-672 151.92,-672 155.88,-675.96 155.88,-679.92 155.88,-679.92 155.88,-687.83 155.88,-687.83 155.88,-691.79 151.92,-695.75 147.96,-695.75"/>
<text xml:space="preserve" text-anchor="middle" x="86.38" y="-678.45" font-family="Arial" font-size="14.00" fill="#cfffac">patterns/pattern28.js</text>
</g>
<!-- patterns/pattern29.js -->
<g id="node21" class="node">
<title>patterns/pattern29.js</title>
<path fill="none" stroke="#cfffac" d="M147.96,-737.75C147.96,-737.75 24.79,-737.75 24.79,-737.75 20.83,-737.75 16.88,-733.79 16.88,-729.83 16.88,-729.83 16.88,-721.92 16.88,-721.92 16.88,-717.96 20.83,-714 24.79,-714 24.79,-714 147.96,-714 147.96,-714 151.92,-714 155.88,-717.96 155.88,-721.92 155.88,-721.92 155.88,-729.83 155.88,-729.83 155.88,-733.79 151.92,-737.75 147.96,-737.75"/>
<text xml:space="preserve" text-anchor="middle" x="86.38" y="-720.45" font-family="Arial" font-size="14.00" fill="#cfffac">patterns/pattern29.js</text>
</g>
<!-- patterns/pattern3.js -->
<g id="node22" class="node">
<title>patterns/pattern3.js</title>
<path fill="none" stroke="#cfffac" d="M144.21,-779.75C144.21,-779.75 28.54,-779.75 28.54,-779.75 24.58,-779.75 20.62,-775.79 20.62,-771.83 20.62,-771.83 20.62,-763.92 20.62,-763.92 20.62,-759.96 24.58,-756 28.54,-756 28.54,-756 144.21,-756 144.21,-756 148.17,-756 152.12,-759.96 152.12,-763.92 152.12,-763.92 152.12,-771.83 152.12,-771.83 152.12,-775.79 148.17,-779.75 144.21,-779.75"/>
<text xml:space="preserve" text-anchor="middle" x="86.38" y="-762.45" font-family="Arial" font-size="14.00" fill="#cfffac">patterns/pattern3.js</text>
</g>
<!-- patterns/pattern30.js -->
<g id="node23" class="node">
<title>patterns/pattern30.js</title>
<path fill="none" stroke="#cfffac" d="M147.96,-821.75C147.96,-821.75 24.79,-821.75 24.79,-821.75 20.83,-821.75 16.88,-817.79 16.88,-813.83 16.88,-813.83 16.88,-805.92 16.88,-805.92 16.88,-801.96 20.83,-798 24.79,-798 24.79,-798 147.96,-798 147.96,-798 151.92,-798 155.88,-801.96 155.88,-805.92 155.88,-805.92 155.88,-813.83 155.88,-813.83 155.88,-817.79 151.92,-821.75 147.96,-821.75"/>
<text xml:space="preserve" text-anchor="middle" x="86.38" y="-804.45" font-family="Arial" font-size="14.00" fill="#cfffac">patterns/pattern30.js</text>
</g>
<!-- patterns/pattern31.js -->
<g id="node24" class="node">
<title>patterns/pattern31.js</title>
<path fill="none" stroke="#cfffac" d="M147.96,-863.75C147.96,-863.75 24.79,-863.75 24.79,-863.75 20.83,-863.75 16.88,-859.79 16.88,-855.83 16.88,-855.83 16.88,-847.92 16.88,-847.92 16.88,-843.96 20.83,-840 24.79,-840 24.79,-840 147.96,-840 147.96,-840 151.92,-840 155.88,-843.96 155.88,-847.92 155.88,-847.92 155.88,-855.83 155.88,-855.83 155.88,-859.79 151.92,-863.75 147.96,-863.75"/>
<text xml:space="preserve" text-anchor="middle" x="86.38" y="-846.45" font-family="Arial" font-size="14.00" fill="#cfffac">patterns/pattern31.js</text>
</g>
<!-- patterns/pattern33.js -->
<g id="node25" class="node">
<title>patterns/pattern33.js</title>
<path fill="none" stroke="#cfffac" d="M147.96,-905.75C147.96,-905.75 24.79,-905.75 24.79,-905.75 20.83,-905.75 16.88,-901.79 16.88,-897.83 16.88,-897.83 16.88,-889.92 16.88,-889.92 16.88,-885.96 20.83,-882 24.79,-882 24.79,-882 147.96,-882 147.96,-882 151.92,-882 155.88,-885.96 155.88,-889.92 155.88,-889.92 155.88,-897.83 155.88,-897.83 155.88,-901.79 151.92,-905.75 147.96,-905.75"/>
<text xml:space="preserve" text-anchor="middle" x="86.38" y="-888.45" font-family="Arial" font-size="14.00" fill="#cfffac">patterns/pattern33.js</text>
</g>
<!-- patterns/pattern39.js -->
<g id="node26" class="node">
<title>patterns/pattern39.js</title>
<path fill="none" stroke="#cfffac" d="M147.96,-947.75C147.96,-947.75 24.79,-947.75 24.79,-947.75 20.83,-947.75 16.88,-943.79 16.88,-939.83 16.88,-939.83 16.88,-931.92 16.88,-931.92 16.88,-927.96 20.83,-924 24.79,-924 24.79,-924 147.96,-924 147.96,-924 151.92,-924 155.88,-927.96 155.88,-931.92 155.88,-931.92 155.88,-939.83 155.88,-939.83 155.88,-943.79 151.92,-947.75 147.96,-947.75"/>
<text xml:space="preserve" text-anchor="middle" x="86.38" y="-930.45" font-family="Arial" font-size="14.00" fill="#cfffac">patterns/pattern39.js</text>
</g>
<!-- patterns/pattern4.js -->
<g id="node27" class="node">
<title>patterns/pattern4.js</title>
<path fill="none" stroke="#cfffac" d="M144.21,-989.75C144.21,-989.75 28.54,-989.75 28.54,-989.75 24.58,-989.75 20.62,-985.79 20.62,-981.83 20.62,-981.83 20.62,-973.92 20.62,-973.92 20.62,-969.96 24.58,-966 28.54,-966 28.54,-966 144.21,-966 144.21,-966 148.17,-966 152.12,-969.96 152.12,-973.92 152.12,-973.92 152.12,-981.83 152.12,-981.83 152.12,-985.79 148.17,-989.75 144.21,-989.75"/>
<text xml:space="preserve" text-anchor="middle" x="86.38" y="-972.45" font-family="Arial" font-size="14.00" fill="#cfffac">patterns/pattern4.js</text>
</g>
<!-- patterns/pattern41.js -->
<g id="node28" class="node">
<title>patterns/pattern41.js</title>
<path fill="none" stroke="#cfffac" d="M147.96,-1031.75C147.96,-1031.75 24.79,-1031.75 24.79,-1031.75 20.83,-1031.75 16.88,-1027.79 16.88,-1023.83 16.88,-1023.83 16.88,-1015.92 16.88,-1015.92 16.88,-1011.96 20.83,-1008 24.79,-1008 24.79,-1008 147.96,-1008 147.96,-1008 151.92,-1008 155.88,-1011.96 155.88,-1015.92 155.88,-1015.92 155.88,-1023.83 155.88,-1023.83 155.88,-1027.79 151.92,-1031.75 147.96,-1031.75"/>
<text xml:space="preserve" text-anchor="middle" x="86.38" y="-1014.45" font-family="Arial" font-size="14.00" fill="#cfffac">patterns/pattern41.js</text>
</g>
<!-- patterns/pattern42.js -->
<g id="node29" class="node">
<title>patterns/pattern42.js</title>
<path fill="none" stroke="#cfffac" d="M147.96,-1073.75C147.96,-1073.75 24.79,-1073.75 24.79,-1073.75 20.83,-1073.75 16.88,-1069.79 16.88,-1065.83 16.88,-1065.83 16.88,-1057.92 16.88,-1057.92 16.88,-1053.96 20.83,-1050 24.79,-1050 24.79,-1050 147.96,-1050 147.96,-1050 151.92,-1050 155.88,-1053.96 155.88,-1057.92 155.88,-1057.92 155.88,-1065.83 155.88,-1065.83 155.88,-1069.79 151.92,-1073.75 147.96,-1073.75"/>
<text xml:space="preserve" text-anchor="middle" x="86.38" y="-1056.45" font-family="Arial" font-size="14.00" fill="#cfffac">patterns/pattern42.js</text>
</g>
<!-- patterns/pattern43.js -->
<g id="node30" class="node">
<title>patterns/pattern43.js</title>
<path fill="none" stroke="#cfffac" d="M147.96,-1115.75C147.96,-1115.75 24.79,-1115.75 24.79,-1115.75 20.83,-1115.75 16.88,-1111.79 16.88,-1107.83 16.88,-1107.83 16.88,-1099.92 16.88,-1099.92 16.88,-1095.96 20.83,-1092 24.79,-1092 24.79,-1092 147.96,-1092 147.96,-1092 151.92,-1092 155.88,-1095.96 155.88,-1099.92 155.88,-1099.92 155.88,-1107.83 155.88,-1107.83 155.88,-1111.79 151.92,-1115.75 147.96,-1115.75"/>
<text xml:space="preserve" text-anchor="middle" x="86.38" y="-1098.45" font-family="Arial" font-size="14.00" fill="#cfffac">patterns/pattern43.js</text>
</g>
<!-- patterns/pattern45.js -->
<g id="node31" class="node">
<title>patterns/pattern45.js</title>
<path fill="none" stroke="#cfffac" d="M147.96,-1157.75C147.96,-1157.75 24.79,-1157.75 24.79,-1157.75 20.83,-1157.75 16.88,-1153.79 16.88,-1149.83 16.88,-1149.83 16.88,-1141.92 16.88,-1141.92 16.88,-1137.96 20.83,-1134 24.79,-1134 24.79,-1134 147.96,-1134 147.96,-1134 151.92,-1134 155.88,-1137.96 155.88,-1141.92 155.88,-1141.92 155.88,-1149.83 155.88,-1149.83 155.88,-1153.79 151.92,-1157.75 147.96,-1157.75"/>
<text xml:space="preserve" text-anchor="middle" x="86.38" y="-1140.45" font-family="Arial" font-size="14.00" fill="#cfffac">patterns/pattern45.js</text>
</g>
<!-- patterns/pattern46.js -->
<g id="node32" class="node">
<title>patterns/pattern46.js</title>
<path fill="none" stroke="#cfffac" d="M147.96,-1199.75C147.96,-1199.75 24.79,-1199.75 24.79,-1199.75 20.83,-1199.75 16.88,-1195.79 16.88,-1191.83 16.88,-1191.83 16.88,-1183.92 16.88,-1183.92 16.88,-1179.96 20.83,-1176 24.79,-1176 24.79,-1176 147.96,-1176 147.96,-1176 151.92,-1176 155.88,-1179.96 155.88,-1183.92 155.88,-1183.92 155.88,-1191.83 155.88,-1191.83 155.88,-1195.79 151.92,-1199.75 147.96,-1199.75"/>
<text xml:space="preserve" text-anchor="middle" x="86.38" y="-1182.45" font-family="Arial" font-size="14.00" fill="#cfffac">patterns/pattern46.js</text>
</g>
<!-- patterns/pattern48.js -->
<g id="node33" class="node">
<title>patterns/pattern48.js</title>
<path fill="none" stroke="#cfffac" d="M147.96,-1241.75C147.96,-1241.75 24.79,-1241.75 24.79,-1241.75 20.83,-1241.75 16.88,-1237.79 16.88,-1233.83 16.88,-1233.83 16.88,-1225.92 16.88,-1225.92 16.88,-1221.96 20.83,-1218 24.79,-1218 24.79,-1218 147.96,-1218 147.96,-1218 151.92,-1218 155.88,-1221.96 155.88,-1225.92 155.88,-1225.92 155.88,-1233.83 155.88,-1233.83 155.88,-1237.79 151.92,-1241.75 147.96,-1241.75"/>
<text xml:space="preserve" text-anchor="middle" x="86.38" y="-1224.45" font-family="Arial" font-size="14.00" fill="#cfffac">patterns/pattern48.js</text>
</g>
<!-- patterns/pattern5.js -->
<g id="node34" class="node">
<title>patterns/pattern5.js</title>
<path fill="none" stroke="#cfffac" d="M144.21,-1283.75C144.21,-1283.75 28.54,-1283.75 28.54,-1283.75 24.58,-1283.75 20.62,-1279.79 20.62,-1275.83 20.62,-1275.83 20.62,-1267.92 20.62,-1267.92 20.62,-1263.96 24.58,-1260 28.54,-1260 28.54,-1260 144.21,-1260 144.21,-1260 148.17,-1260 152.12,-1263.96 152.12,-1267.92 152.12,-1267.92 152.12,-1275.83 152.12,-1275.83 152.12,-1279.79 148.17,-1283.75 144.21,-1283.75"/>
<text xml:space="preserve" text-anchor="middle" x="86.38" y="-1266.45" font-family="Arial" font-size="14.00" fill="#cfffac">patterns/pattern5.js</text>
</g>
<!-- patterns/pattern6.js -->
<g id="node35" class="node">
<title>patterns/pattern6.js</title>
<path fill="none" stroke="#cfffac" d="M144.21,-1325.75C144.21,-1325.75 28.54,-1325.75 28.54,-1325.75 24.58,-1325.75 20.62,-1321.79 20.62,-1317.83 20.62,-1317.83 20.62,-1309.92 20.62,-1309.92 20.62,-1305.96 24.58,-1302 28.54,-1302 28.54,-1302 144.21,-1302 144.21,-1302 148.17,-1302 152.12,-1305.96 152.12,-1309.92 152.12,-1309.92 152.12,-1317.83 152.12,-1317.83 152.12,-1321.79 148.17,-1325.75 144.21,-1325.75"/>
<text xml:space="preserve" text-anchor="middle" x="86.38" y="-1308.45" font-family="Arial" font-size="14.00" fill="#cfffac">patterns/pattern6.js</text>
</g>
<!-- patterns/pattern7.js -->
<g id="node36" class="node">
<title>patterns/pattern7.js</title>
<path fill="none" stroke="#cfffac" d="M144.21,-1367.75C144.21,-1367.75 28.54,-1367.75 28.54,-1367.75 24.58,-1367.75 20.62,-1363.79 20.62,-1359.83 20.62,-1359.83 20.62,-1351.92 20.62,-1351.92 20.62,-1347.96 24.58,-1344 28.54,-1344 28.54,-1344 144.21,-1344 144.21,-1344 148.17,-1344 152.12,-1347.96 152.12,-1351.92 152.12,-1351.92 152.12,-1359.83 152.12,-1359.83 152.12,-1363.79 148.17,-1367.75 144.21,-1367.75"/>
<text xml:space="preserve" text-anchor="middle" x="86.38" y="-1350.45" font-family="Arial" font-size="14.00" fill="#cfffac">patterns/pattern7.js</text>
</g>
<!-- patterns/pattern8.js -->
<g id="node37" class="node">
<title>patterns/pattern8.js</title>
<path fill="none" stroke="#cfffac" d="M144.21,-1409.75C144.21,-1409.75 28.54,-1409.75 28.54,-1409.75 24.58,-1409.75 20.62,-1405.79 20.62,-1401.83 20.62,-1401.83 20.62,-1393.92 20.62,-1393.92 20.62,-1389.96 24.58,-1386 28.54,-1386 28.54,-1386 144.21,-1386 144.21,-1386 148.17,-1386 152.12,-1389.96 152.12,-1393.92 152.12,-1393.92 152.12,-1401.83 152.12,-1401.83 152.12,-1405.79 148.17,-1409.75 144.21,-1409.75"/>
<text xml:space="preserve" text-anchor="middle" x="86.38" y="-1392.45" font-family="Arial" font-size="14.00" fill="#cfffac">patterns/pattern8.js</text>
</g>
<!-- patterns_pais/pattern1.js -->
<g id="node38" class="node">
<title>patterns_pais/pattern1.js</title>
<path fill="none" stroke="#cfffac" d="M160.33,-1451.75C160.33,-1451.75 12.42,-1451.75 12.42,-1451.75 8.46,-1451.75 4.5,-1447.79 4.5,-1443.83 4.5,-1443.83 4.5,-1435.92 4.5,-1435.92 4.5,-1431.96 8.46,-1428 12.42,-1428 12.42,-1428 160.33,-1428 160.33,-1428 164.29,-1428 168.25,-1431.96 168.25,-1435.92 168.25,-1435.92 168.25,-1443.83 168.25,-1443.83 168.25,-1447.79 164.29,-1451.75 160.33,-1451.75"/>
<text xml:space="preserve" text-anchor="middle" x="86.38" y="-1434.45" font-family="Arial" font-size="14.00" fill="#cfffac">patterns_pais/pattern1.js</text>
</g>
<!-- patterns_pais/pattern14.js -->
<g id="node39" class="node">
<title>patterns_pais/pattern14.js</title>
<path fill="none" stroke="#cfffac" d="M164.08,-1493.75C164.08,-1493.75 8.67,-1493.75 8.67,-1493.75 4.71,-1493.75 0.75,-1489.79 0.75,-1485.83 0.75,-1485.83 0.75,-1477.92 0.75,-1477.92 0.75,-1473.96 4.71,-1470 8.67,-1470 8.67,-1470 164.08,-1470 164.08,-1470 168.04,-1470 172,-1473.96 172,-1477.92 172,-1477.92 172,-1485.83 172,-1485.83 172,-1489.79 168.04,-1493.75 164.08,-1493.75"/>
<text xml:space="preserve" text-anchor="middle" x="86.38" y="-1476.45" font-family="Arial" font-size="14.00" fill="#cfffac">patterns_pais/pattern14.js</text>
</g>
<!-- patterns_pais/pattern2.js -->
<g id="node40" class="node">
<title>patterns_pais/pattern2.js</title>
<path fill="none" stroke="#cfffac" d="M160.33,-1535.75C160.33,-1535.75 12.42,-1535.75 12.42,-1535.75 8.46,-1535.75 4.5,-1531.79 4.5,-1527.83 4.5,-1527.83 4.5,-1519.92 4.5,-1519.92 4.5,-1515.96 8.46,-1512 12.42,-1512 12.42,-1512 160.33,-1512 160.33,-1512 164.29,-1512 168.25,-1515.96 168.25,-1519.92 168.25,-1519.92 168.25,-1527.83 168.25,-1527.83 168.25,-1531.79 164.29,-1535.75 160.33,-1535.75"/>
<text xml:space="preserve" text-anchor="middle" x="86.38" y="-1518.45" font-family="Arial" font-size="14.00" fill="#cfffac">patterns_pais/pattern2.js</text>
</g>
<!-- patterns_pais/pattern33.js -->
<g id="node41" class="node">
<title>patterns_pais/pattern33.js</title>
<path fill="none" stroke="#cfffac" d="M164.08,-1577.75C164.08,-1577.75 8.67,-1577.75 8.67,-1577.75 4.71,-1577.75 0.75,-1573.79 0.75,-1569.83 0.75,-1569.83 0.75,-1561.92 0.75,-1561.92 0.75,-1557.96 4.71,-1554 8.67,-1554 8.67,-1554 164.08,-1554 164.08,-1554 168.04,-1554 172,-1557.96 172,-1561.92 172,-1561.92 172,-1569.83 172,-1569.83 172,-1573.79 168.04,-1577.75 164.08,-1577.75"/>
<text xml:space="preserve" text-anchor="middle" x="86.38" y="-1560.45" font-family="Arial" font-size="14.00" fill="#cfffac">patterns_pais/pattern33.js</text>
</g>
<!-- patterns_pais/pattern39.js -->
<g id="node42" class="node">
<title>patterns_pais/pattern39.js</title>
<path fill="none" stroke="#cfffac" d="M164.08,-1619.75C164.08,-1619.75 8.67,-1619.75 8.67,-1619.75 4.71,-1619.75 0.75,-1615.79 0.75,-1611.83 0.75,-1611.83 0.75,-1603.92 0.75,-1603.92 0.75,-1599.96 4.71,-1596 8.67,-1596 8.67,-1596 164.08,-1596 164.08,-1596 168.04,-1596 172,-1599.96 172,-1603.92 172,-1603.92 172,-1611.83 172,-1611.83 172,-1615.79 168.04,-1619.75 164.08,-1619.75"/>
<text xml:space="preserve" text-anchor="middle" x="86.38" y="-1602.45" font-family="Arial" font-size="14.00" fill="#cfffac">patterns_pais/pattern39.js</text>
</g>
<!-- patterns_pais/pattern41.js -->
<g id="node43" class="node">
<title>patterns_pais/pattern41.js</title>
<path fill="none" stroke="#cfffac" d="M164.08,-1661.75C164.08,-1661.75 8.67,-1661.75 8.67,-1661.75 4.71,-1661.75 0.75,-1657.79 0.75,-1653.83 0.75,-1653.83 0.75,-1645.92 0.75,-1645.92 0.75,-1641.96 4.71,-1638 8.67,-1638 8.67,-1638 164.08,-1638 164.08,-1638 168.04,-1638 172,-1641.96 172,-1645.92 172,-1645.92 172,-1653.83 172,-1653.83 172,-1657.79 168.04,-1661.75 164.08,-1661.75"/>
<text xml:space="preserve" text-anchor="middle" x="86.38" y="-1644.45" font-family="Arial" font-size="14.00" fill="#cfffac">patterns_pais/pattern41.js</text>
</g>
<!-- patterns_pais/pattern42.js -->
<g id="node44" class="node">
<title>patterns_pais/pattern42.js</title>
<path fill="none" stroke="#cfffac" d="M164.08,-1703.75C164.08,-1703.75 8.67,-1703.75 8.67,-1703.75 4.71,-1703.75 0.75,-1699.79 0.75,-1695.83 0.75,-1695.83 0.75,-1687.92 0.75,-1687.92 0.75,-1683.96 4.71,-1680 8.67,-1680 8.67,-1680 164.08,-1680 164.08,-1680 168.04,-1680 172,-1683.96 172,-1687.92 172,-1687.92 172,-1695.83 172,-1695.83 172,-1699.79 168.04,-1703.75 164.08,-1703.75"/>
<text xml:space="preserve" text-anchor="middle" x="86.38" y="-1686.45" font-family="Arial" font-size="14.00" fill="#cfffac">patterns_pais/pattern42.js</text>
</g>
<!-- patterns_pais/pattern43.js -->
<g id="node45" class="node">
<title>patterns_pais/pattern43.js</title>
<path fill="none" stroke="#cfffac" d="M164.08,-1745.75C164.08,-1745.75 8.67,-1745.75 8.67,-1745.75 4.71,-1745.75 0.75,-1741.79 0.75,-1737.83 0.75,-1737.83 0.75,-1729.92 0.75,-1729.92 0.75,-1725.96 4.71,-1722 8.67,-1722 8.67,-1722 164.08,-1722 164.08,-1722 168.04,-1722 172,-1725.96 172,-1729.92 172,-1729.92 172,-1737.83 172,-1737.83 172,-1741.79 168.04,-1745.75 164.08,-1745.75"/>
<text xml:space="preserve" text-anchor="middle" x="86.38" y="-1728.45" font-family="Arial" font-size="14.00" fill="#cfffac">patterns_pais/pattern43.js</text>
</g>
<!-- patterns_pais/pattern45.js -->
<g id="node46" class="node">
<title>patterns_pais/pattern45.js</title>
<path fill="none" stroke="#cfffac" d="M164.08,-1787.75C164.08,-1787.75 8.67,-1787.75 8.67,-1787.75 4.71,-1787.75 0.75,-1783.79 0.75,-1779.83 0.75,-1779.83 0.75,-1771.92 0.75,-1771.92 0.75,-1767.96 4.71,-1764 8.67,-1764 8.67,-1764 164.08,-1764 164.08,-1764 168.04,-1764 172,-1767.96 172,-1771.92 172,-1771.92 172,-1779.83 172,-1779.83 172,-1783.79 168.04,-1787.75 164.08,-1787.75"/>
<text xml:space="preserve" text-anchor="middle" x="86.38" y="-1770.45" font-family="Arial" font-size="14.00" fill="#cfffac">patterns_pais/pattern45.js</text>
</g>
<!-- patterns_pais/pattern46.js -->
<g id="node47" class="node">
<title>patterns_pais/pattern46.js</title>
<path fill="none" stroke="#cfffac" d="M164.08,-1829.75C164.08,-1829.75 8.67,-1829.75 8.67,-1829.75 4.71,-1829.75 0.75,-1825.79 0.75,-1821.83 0.75,-1821.83 0.75,-1813.92 0.75,-1813.92 0.75,-1809.96 4.71,-1806 8.67,-1806 8.67,-1806 164.08,-1806 164.08,-1806 168.04,-1806 172,-1809.96 172,-1813.92 172,-1813.92 172,-1821.83 172,-1821.83 172,-1825.79 168.04,-1829.75 164.08,-1829.75"/>
<text xml:space="preserve" text-anchor="middle" x="86.38" y="-1812.45" font-family="Arial" font-size="14.00" fill="#cfffac">patterns_pais/pattern46.js</text>
</g>
<!-- patterns_pais/pattern6.js -->
<g id="node48" class="node">
<title>patterns_pais/pattern6.js</title>
<path fill="none" stroke="#cfffac" d="M160.33,-1871.75C160.33,-1871.75 12.42,-1871.75 12.42,-1871.75 8.46,-1871.75 4.5,-1867.79 4.5,-1863.83 4.5,-1863.83 4.5,-1855.92 4.5,-1855.92 4.5,-1851.96 8.46,-1848 12.42,-1848 12.42,-1848 160.33,-1848 160.33,-1848 164.29,-1848 168.25,-1851.96 168.25,-1855.92 168.25,-1855.92 168.25,-1863.83 168.25,-1863.83 168.25,-1867.79 164.29,-1871.75 160.33,-1871.75"/>
<text xml:space="preserve" text-anchor="middle" x="86.38" y="-1854.45" font-family="Arial" font-size="14.00" fill="#cfffac">patterns_pais/pattern6.js</text>
</g>
<!-- patterns_pais/pattern7.js -->
<g id="node49" class="node">
<title>patterns_pais/pattern7.js</title>
<path fill="none" stroke="#cfffac" d="M160.33,-1913.75C160.33,-1913.75 12.42,-1913.75 12.42,-1913.75 8.46,-1913.75 4.5,-1909.79 4.5,-1905.83 4.5,-1905.83 4.5,-1897.92 4.5,-1897.92 4.5,-1893.96 8.46,-1890 12.42,-1890 12.42,-1890 160.33,-1890 160.33,-1890 164.29,-1890 168.25,-1893.96 168.25,-1897.92 168.25,-1897.92 168.25,-1905.83 168.25,-1905.83 168.25,-1909.79 164.29,-1913.75 160.33,-1913.75"/>
<text xml:space="preserve" text-anchor="middle" x="86.38" y="-1896.45" font-family="Arial" font-size="14.00" fill="#cfffac">patterns_pais/pattern7.js</text>
</g>
<!-- patterns_pais/pattern8.js -->
<g id="node50" class="node">
<title>patterns_pais/pattern8.js</title>
<path fill="none" stroke="#cfffac" d="M160.33,-1955.75C160.33,-1955.75 12.42,-1955.75 12.42,-1955.75 8.46,-1955.75 4.5,-1951.79 4.5,-1947.83 4.5,-1947.83 4.5,-1939.92 4.5,-1939.92 4.5,-1935.96 8.46,-1932 12.42,-1932 12.42,-1932 160.33,-1932 160.33,-1932 164.29,-1932 168.25,-1935.96 168.25,-1939.92 168.25,-1939.92 168.25,-1947.83 168.25,-1947.83 168.25,-1951.79 164.29,-1955.75 160.33,-1955.75"/>
<text xml:space="preserve" text-anchor="middle" x="86.38" y="-1938.45" font-family="Arial" font-size="14.00" fill="#cfffac">patterns_pais/pattern8.js</text>
</g>
<!-- routes/routes.js -->
<g id="node51" class="node">
<title>routes/routes.js</title>
<path fill="none" stroke="#c6c5fe" d="M132.58,-107.75C132.58,-107.75 40.17,-107.75 40.17,-107.75 36.21,-107.75 32.25,-103.79 32.25,-99.83 32.25,-99.83 32.25,-91.92 32.25,-91.92 32.25,-87.96 36.21,-84 40.17,-84 40.17,-84 132.58,-84 132.58,-84 136.54,-84 140.5,-87.96 140.5,-91.92 140.5,-91.92 140.5,-99.83 140.5,-99.83 140.5,-103.79 136.54,-107.75 132.58,-107.75"/>
<text xml:space="preserve" text-anchor="middle" x="86.38" y="-90.45" font-family="Arial" font-size="14.00" fill="#c6c5fe">routes/routes.js</text>
</g>
<!-- routes/routes.js&#45;&gt;controllers/excelDataController.js -->
<g id="edge2" class="edge">
<title>routes/routes.js&#45;&gt;controllers/excelDataController.js</title>
<path fill="none" stroke="#757575" d="M140.89,-103.65C151.94,-106.7 163.13,-110.95 172.75,-116.88 193.69,-129.76 187.31,-146.85 208.75,-158.88 212.96,-161.23 217.35,-163.35 221.88,-165.24"/>
<polygon fill="#757575" stroke="#757575" points="220.63,-168.51 231.23,-168.73 223.08,-161.95 220.63,-168.51"/>
</g>
<!-- routes/routes.js&#45;&gt;controllers/generateTemplateController.js -->
<g id="edge3" class="edge">
<title>routes/routes.js&#45;&gt;controllers/generateTemplateController.js</title>
<path fill="none" stroke="#757575" d="M140.83,-105.26C161.97,-108.93 186.5,-113.15 208.75,-116.88 222.18,-119.12 236.4,-121.46 250.32,-123.73"/>
<polygon fill="#757575" stroke="#757575" points="249.47,-127.13 259.9,-125.28 250.59,-120.22 249.47,-127.13"/>
</g>
<!-- routes/routes.js&#45;&gt;controllers/uploadController.js -->
<g id="edge4" class="edge">
<title>routes/routes.js&#45;&gt;controllers/uploadController.js</title>
<path fill="none" stroke="#757575" d="M140.99,-95.88C167.32,-95.88 200.02,-95.88 231.19,-95.88"/>
<polygon fill="#757575" stroke="#757575" points="231.08,-99.38 241.08,-95.88 231.08,-92.38 231.08,-99.38"/>
</g>
<!-- routes/routes.js&#45;&gt;middleware/multerConfig.js -->
<g id="edge5" class="edge">
<title>routes/routes.js&#45;&gt;middleware/multerConfig.js</title>
<path fill="none" stroke="#757575" d="M140.83,-86.49C161.97,-82.82 186.5,-78.6 208.75,-74.88 222.18,-72.63 236.4,-70.29 250.32,-68.02"/>
<polygon fill="#757575" stroke="#757575" points="250.59,-71.53 259.9,-66.47 249.47,-64.62 250.59,-71.53"/>
</g>
<!-- routes/routes.js&#45;&gt;middleware/validateExcel.js -->
<g id="edge6" class="edge">
<title>routes/routes.js&#45;&gt;middleware/validateExcel.js</title>
<path fill="none" stroke="#757575" d="M106.29,-83.61C129.48,-69.17 170.43,-45.55 208.75,-32.88 217.9,-29.85 227.55,-27.25 237.31,-25.02"/>
<polygon fill="#757575" stroke="#757575" points="237.81,-28.49 246.86,-22.97 236.35,-21.65 237.81,-28.49"/>
</g>
<!-- services/pais_bfe.js&#45;&gt;services/sectionPatternLoader.js -->
<g id="edge7" class="edge">
<title>services/pais_bfe.js&#45;&gt;services/sectionPatternLoader.js</title>
<path fill="none" stroke="#757575" d="M870.53,-169.93C894.07,-174.22 920.79,-179.09 945.27,-183.55"/>
<polygon fill="#757575" stroke="#757575" points="944.38,-186.95 954.85,-185.3 945.64,-180.06 944.38,-186.95"/>
</g>
<!-- services/pais_bfe.js&#45;&gt;utils/dataUtils.js -->
<g id="edge8" class="edge">
<title>services/pais_bfe.js&#45;&gt;utils/dataUtils.js</title>
<path fill="none" stroke="#757575" d="M823.19,-145.74C845.41,-131.94 883.9,-109.67 919.75,-96.88 931.97,-92.51 945.35,-88.96 958.31,-86.11"/>
<polygon fill="#757575" stroke="#757575" points="959,-89.54 968.08,-84.08 957.58,-82.69 959,-89.54"/>
</g>
<!-- services/pais_bfe.js&#45;&gt;utils/excelUtils.js -->
<g id="edge9" class="edge">
<title>services/pais_bfe.js&#45;&gt;utils/excelUtils.js</title>
<path fill="none" stroke="#757575" d="M870.63,-157.88C948.21,-157.88 1076.07,-157.88 1154.43,-157.88"/>
<polygon fill="#757575" stroke="#757575" points="1154.1,-161.38 1164.1,-157.88 1154.1,-154.38 1154.1,-161.38"/>
</g>
<!-- services/pais_bfe.js&#45;&gt;utils/patternUtils.js -->
<g id="edge10" class="edge">
<title>services/pais_bfe.js&#45;&gt;utils/patternUtils.js</title>
<path fill="none" stroke="#757575" d="M870.53,-145.82C895.82,-141.21 924.8,-135.93 950.71,-131.21"/>
<polygon fill="#757575" stroke="#757575" points="951.28,-134.66 960.5,-129.42 950.03,-127.77 951.28,-134.66"/>
</g>
<!-- utils/dataUtils.js&#45;&gt;utils/excelUtils.js -->
<g id="edge17" class="edge">
<title>utils/dataUtils.js&#45;&gt;utils/excelUtils.js</title>
<path fill="none" stroke="#757575" d="M1080.01,-82.73C1096.46,-85.88 1114.31,-90.41 1130,-96.88 1155.44,-107.36 1181.34,-125.18 1199.23,-138.86"/>
<polygon fill="#757575" stroke="#757575" points="1196.59,-141.24 1206.62,-144.64 1200.9,-135.72 1196.59,-141.24"/>
</g>
</g>
</svg>
