<?xml version="1.0" encoding="UTF-8"?>
<!DOCTYPE svg PUBLIC "-//W3C//DTD SVG 1.1//EN" "http://www.w3.org/Graphics/SVG/1.1/DTD/svg11.dtd">
<svg xmlns="http://www.w3.org/2000/svg" version="1.1" width="424px" height="512px" style="shape-rendering:geometricPrecision; text-rendering:geometricPrecision; image-rendering:optimizeQuality; fill-rule:evenodd; clip-rule:evenodd" xmlns:xlink="http://www.w3.org/1999/xlink">
<g><path style="opacity:0.729" fill="#2f2f2f" d="M -0.5,-0.5 C 140.833,-0.5 282.167,-0.5 423.5,-0.5C 423.5,140.5 423.5,281.5 423.5,422.5C 422.5,282.001 422.167,141.334 422.5,0.5C 281.833,0.5 141.167,0.5 0.5,0.5C 0.832939,142.334 0.499606,284.001 -0.5,425.5C -0.5,283.5 -0.5,141.5 -0.5,-0.5 Z"/></g>
<g><path style="opacity:0.982" fill="#060606" d="M 423.5,422.5 C 423.5,424.833 423.5,427.167 423.5,429.5C 412.634,462.517 389.968,482.35 355.5,489C 312.5,489.333 269.5,489.667 226.5,490C 216.347,492.442 211.014,498.942 210.5,509.5C 209.833,509.5 209.167,509.5 208.5,509.5C 207.552,504.156 205.719,499.156 203,494.5C 200.293,492.064 197.127,490.564 193.5,490C 151.833,489.667 110.167,489.333 68.5,489C 42.4241,483.917 21.9241,470.417 7,448.5C 4.16557,442.515 1.66557,436.515 -0.5,430.5C -0.5,428.833 -0.5,427.167 -0.5,425.5C 0.499606,284.001 0.832939,142.334 0.5,0.5C 141.167,0.5 281.833,0.5 422.5,0.5C 422.167,141.334 422.5,282.001 423.5,422.5 Z"/></g>
<g><path style="opacity:1" fill="#b1b1b1" d="M 416.5,427.5 C 416.5,287.167 416.5,146.833 416.5,6.5C 279.833,6.5 143.167,6.5 6.5,6.5C 6.5,146.167 6.5,285.833 6.5,425.5C 5.5004,285.668 5.16707,145.668 5.5,5.5C 142.833,5.5 280.167,5.5 417.5,5.5C 417.833,146.334 417.5,287.001 416.5,427.5 Z"/></g>
<g><path style="opacity:1" fill="#fafafa" d="M 416.5,427.5 C 411.515,446.671 400.515,461.504 383.5,472C 374.137,477.454 364.137,481.12 353.5,483C 310.167,483.333 266.833,483.667 223.5,484C 218.112,485.194 213.445,487.694 209.5,491.5C 205.772,487.936 201.439,485.436 196.5,484C 154.5,483.667 112.5,483.333 70.5,483C 42.4505,477.905 21.9505,462.739 9,437.5C 7.26133,433.689 6.42799,429.689 6.5,425.5C 6.5,285.833 6.5,146.167 6.5,6.5C 143.167,6.5 279.833,6.5 416.5,6.5C 416.5,146.833 416.5,287.167 416.5,427.5 Z"/></g>
<g><path style="opacity:1" fill="#0d0d0d" d="M 177.5,30.5 C 178.191,26.7735 179.191,23.1068 180.5,19.5C 183.481,27.7443 186.314,36.0776 189,44.5C 189.785,46.286 190.951,47.786 192.5,49C 189.167,49.6667 185.833,49.6667 182.5,49C 183.91,48.6322 184.91,47.7989 185.5,46.5C 184.833,44.1667 184.167,41.8333 183.5,39.5C 180.914,38.52 178.247,38.1866 175.5,38.5C 174.865,41.4929 174.699,44.4929 175,47.5C 175.75,48.1258 176.584,48.6258 177.5,49C 174.5,49.6667 171.5,49.6667 168.5,49C 169.931,48.5348 171.097,47.7014 172,46.5C 173.238,40.8394 175.072,35.506 177.5,30.5 Z"/></g>
<g><path style="opacity:1" fill="#0d0d0d" d="M 256.5,19.5 C 257.117,19.6107 257.617,19.944 258,20.5C 260.541,29.6675 263.541,38.6675 267,47.5C 268.667,48.8333 270.333,48.8333 272,47.5C 272.5,38.8397 272.666,30.1731 272.5,21.5C 274.05,20.2985 277.717,20.1318 283.5,21C 288.757,25.83 288.757,30.83 283.5,36C 281.432,36.6869 279.432,36.5202 277.5,35.5C 276.509,39.4454 276.176,43.4454 276.5,47.5C 277.675,47.281 278.675,47.6143 279.5,48.5C 276,48.8333 272.5,49.1667 269,49.5C 264.238,49.8371 261.738,49.5037 261.5,48.5C 261.453,45.4318 260.953,42.4318 260,39.5C 253.77,36.738 250.604,38.738 250.5,45.5C 250.59,47.4251 251.59,48.5917 253.5,49C 250.833,49.6667 248.167,49.6667 245.5,49C 246.308,48.6924 246.975,48.1924 247.5,47.5C 250.915,38.2573 253.915,28.924 256.5,19.5 Z"/></g>
<g><path style="opacity:1" fill="#0a0a0a" d="M 51.5,21.5 C 56.0067,20.1074 58.3401,20.1074 58.5,21.5C 58.3336,29.84 58.5003,38.1733 59,46.5C 59.6891,47.3567 60.5224,48.0233 61.5,48.5C 64.7461,47.4193 67.2461,45.4193 69,42.5C 69.3336,44.8473 69.167,47.1806 68.5,49.5C 62.7945,49.8288 57.1278,49.4954 51.5,48.5C 52.325,47.6143 53.325,47.281 54.5,47.5C 54.5,38.8333 54.5,30.1667 54.5,21.5C 53.5,21.5 52.5,21.5 51.5,21.5 Z"/></g>
<g><path style="opacity:1" fill="#080808" d="M 70.5,21.5 C 75.0067,20.1074 77.3401,20.1074 77.5,21.5C 77.1686,30.1922 77.502,38.8589 78.5,47.5C 79.5,48 80.5,48.5 81.5,49C 77.7887,49.8253 74.122,49.6586 70.5,48.5C 71.325,47.6143 72.325,47.281 73.5,47.5C 73.5,38.8333 73.5,30.1667 73.5,21.5C 72.5,21.5 71.5,21.5 70.5,21.5 Z"/></g>
<g><path style="opacity:1" fill="#0a0a0a" d="M 83.5,21.5 C 88.6503,20.3493 93.9836,20.1826 99.5,21C 104.398,24.5216 104.731,28.5216 100.5,33C 105.825,38.3789 105.825,43.7123 100.5,49C 94.8333,49.6667 89.1667,49.6667 83.5,49C 84.0253,48.3076 84.6919,47.8076 85.5,47.5C 86.498,38.8589 86.8314,30.1922 86.5,21.5C 85.5,21.5 84.5,21.5 83.5,21.5 Z"/></g>
<g><path style="opacity:1" fill="#111111" d="M 108.5,21.5 C 113.975,20.5111 119.642,20.1778 125.5,20.5C 125.66,22.1992 125.494,23.8659 125,25.5C 122.574,21.6465 119.24,20.6465 115,22.5C 114.333,25.8333 114.333,29.1667 115,32.5C 118.093,33.8938 120.759,33.2272 123,30.5C 123.667,33.1667 123.667,35.8333 123,38.5C 121.304,35.091 118.471,33.7577 114.5,34.5C 114.174,38.8839 114.508,43.2172 115.5,47.5C 120.383,48.977 123.883,47.3104 126,42.5C 126.497,44.8098 126.663,47.1432 126.5,49.5C 120.158,49.6662 113.825,49.4995 107.5,49C 108.416,48.6258 109.25,48.1258 110,47.5C 110.167,43.1667 110.333,38.8333 110.5,34.5C 110.492,29.7784 109.825,25.4451 108.5,21.5 Z"/></g>
<g><path style="opacity:1" fill="#0c0c0c" d="M 129.5,21.5 C 131.81,20.8362 134.31,20.5029 137,20.5C 146.318,18.8164 149.652,22.4831 147,31.5C 145.926,32.6184 144.76,33.6184 143.5,34.5C 145.694,39.5673 148.36,44.4006 151.5,49C 149.421,49.8077 147.421,49.641 145.5,48.5C 143.536,44.2457 141.869,39.9124 140.5,35.5C 139.167,35.5 137.833,35.5 136.5,35.5C 136.176,39.5546 136.509,43.5546 137.5,47.5C 138.308,47.8076 138.975,48.3076 139.5,49C 136.167,49.6667 132.833,49.6667 129.5,49C 130.416,48.6258 131.25,48.1258 132,47.5C 132.5,38.8397 132.666,30.1731 132.5,21.5C 131.5,21.5 130.5,21.5 129.5,21.5 Z"/></g>
<g><path style="opacity:1" fill="#161616" d="M 151.5,18.5 C 157.29,20.4703 163.29,20.9703 169.5,20C 170,19.5 170.5,19 171,18.5C 171.667,21.1667 171.667,23.8333 171,26.5C 170.23,22.2295 167.73,20.5628 163.5,21.5C 163.334,30.1731 163.5,38.8397 164,47.5C 164.75,48.1258 165.584,48.6258 166.5,49C 163.167,49.6667 159.833,49.6667 156.5,49C 157.025,48.3076 157.692,47.8076 158.5,47.5C 159.498,38.8589 159.831,30.1922 159.5,21.5C 155.317,20.8456 152.484,22.5123 151,26.5C 151.083,23.8806 151.25,21.214 151.5,18.5 Z"/></g>
<g><path style="opacity:1" fill="#111111" d="M 289.5,21.5 C 292.64,20.3592 295.973,20.1925 299.5,21C 298.584,21.3742 297.75,21.8742 297,22.5C 296.168,30.8533 296.335,39.1866 297.5,47.5C 298.308,47.8076 298.975,48.3076 299.5,49C 296.167,49.6667 292.833,49.6667 289.5,49C 290.025,48.3076 290.692,47.8076 291.5,47.5C 292.498,38.8589 292.831,30.1922 292.5,21.5C 291.5,21.5 290.5,21.5 289.5,21.5 Z"/></g>
<g><path style="opacity:1" fill="#0b0b0b" d="M 303.5,18.5 C 306.532,20.0798 309.865,20.7465 313.5,20.5C 316.7,20.3985 319.7,19.7319 322.5,18.5C 323.88,21.3179 323.713,23.9845 322,26.5C 321.257,22.2637 318.757,20.5971 314.5,21.5C 314.169,30.1922 314.502,38.8589 315.5,47.5C 316.308,47.8076 316.975,48.3076 317.5,49C 314.167,49.6667 310.833,49.6667 307.5,49C 308.025,48.3076 308.692,47.8076 309.5,47.5C 310.498,38.8589 310.831,30.1922 310.5,21.5C 306.317,20.8456 303.484,22.5123 302,26.5C 301.955,23.7804 302.455,21.1138 303.5,18.5 Z"/></g>
<g><path style="opacity:1" fill="#1d1d1d" d="M 324.5,21.5 C 327.64,20.3592 330.973,20.1925 334.5,21C 333.202,25.0772 332.536,29.4106 332.5,34C 332.667,38.1667 332.833,42.3333 333,46.5C 336.943,49.3658 340.61,49.0324 344,45.5C 344.5,37.5069 344.666,29.5069 344.5,21.5C 342.956,20.2723 344.623,20.1056 349.5,21C 348.234,21.3095 347.067,21.8095 346,22.5C 345.667,30.5 345.333,38.5 345,46.5C 342.959,48.9741 340.292,49.9741 337,49.5C 332.56,50.3888 329.56,48.7222 328,44.5C 327.5,36.8406 327.334,29.1739 327.5,21.5C 326.5,21.5 325.5,21.5 324.5,21.5 Z"/></g>
<g><path style="opacity:1" fill="#a5a5a5" d="M 364.5,20.5 C 359.968,20.1818 355.634,20.5151 351.5,21.5C 350.957,21.44 350.624,21.1067 350.5,20.5C 355.318,19.1876 359.985,19.1876 364.5,20.5 Z"/></g>
<g><path style="opacity:1" fill="#0e0e0e" d="M 351.5,21.5 C 355.634,20.5151 359.968,20.1818 364.5,20.5C 369.183,22.2095 370.683,25.5429 369,30.5C 368.19,32.3058 367.024,33.8058 365.5,35C 367.471,39.108 369.304,43.2747 371,47.5C 371.75,48.1258 372.584,48.6258 373.5,49C 371.19,49.4966 368.857,49.6633 366.5,49.5C 365.307,45.0894 363.807,40.7561 362,36.5C 360.989,35.6634 359.822,35.33 358.5,35.5C 358.176,39.5546 358.509,43.5546 359.5,47.5C 360.308,47.8076 360.975,48.3076 361.5,49C 358.167,49.6667 354.833,49.6667 351.5,49C 352.025,48.3076 352.692,47.8076 353.5,47.5C 354.498,38.8589 354.831,30.1922 354.5,21.5C 353.5,21.5 352.5,21.5 351.5,21.5 Z"/></g>
<g><path style="opacity:1" fill="#111111" d="M 203.5,49.5 C 202.833,49.5 202.5,49.1667 202.5,48.5C 203.458,48.0472 204.292,47.3805 205,46.5C 205.667,44.1667 205.667,41.8333 205,39.5C 201.922,37.0446 198.756,34.7113 195.5,32.5C 192.361,22.2641 196.027,18.0975 206.5,20C 207.591,22.0639 207.758,24.2305 207,26.5C 206.142,21.324 203.308,19.6573 198.5,21.5C 197.359,23.4213 197.192,25.4213 198,27.5C 201.516,29.9264 204.849,32.593 208,35.5C 209.845,39.1427 209.845,42.8094 208,46.5C 206.871,48.1412 205.371,49.1412 203.5,49.5 Z"/></g>
<g><path style="opacity:1" fill="#0b0b0b" d="M 235.5,48.5 C 234.791,49.404 233.791,49.7373 232.5,49.5C 226.215,46.6157 223.215,41.6157 223.5,34.5C 223.958,22.8805 229.958,18.0471 241.5,20C 244.306,21.3051 245.14,23.4718 244,26.5C 237.768,18.0896 232.434,18.7562 228,28.5C 226.541,35.0866 227.708,41.0866 231.5,46.5C 232.577,47.7051 233.91,48.3718 235.5,48.5 Z"/></g>
<g><path style="opacity:1" fill="#eaeaea" d="M 276.5,21.5 C 283.054,22.6062 284.887,26.2729 282,32.5C 280.604,34.5268 278.938,34.8602 277,33.5C 276.501,29.5138 276.334,25.5138 276.5,21.5 Z"/></g>
<g><path style="opacity:1" fill="#e8e8e8" d="M 90.5,21.5 C 95.4631,20.3184 98.4631,22.1517 99.5,27C 98.3333,31.5924 95.3333,33.759 90.5,33.5C 90.5,29.5 90.5,25.5 90.5,21.5 Z"/></g>
<g><path style="opacity:1" fill="#e9e9e9" d="M 136.5,21.5 C 141.331,20.6671 143.664,22.6671 143.5,27.5C 143.664,32.3329 141.331,34.3329 136.5,33.5C 136.5,29.5 136.5,25.5 136.5,21.5 Z"/></g>
<g><path style="opacity:1" fill="#f2f2f2" d="M 358.5,21.5 C 363.039,20.5394 365.372,22.3727 365.5,27C 365.843,32.1594 363.51,34.3261 358.5,33.5C 358.5,29.5 358.5,25.5 358.5,21.5 Z"/></g>
<g><path style="opacity:1" fill="#ebebeb" d="M 254.5,28.5 C 255.376,28.3691 256.043,28.7025 256.5,29.5C 257.167,31.5 257.833,33.5 258.5,35.5C 256.955,36.4519 255.288,36.7852 253.5,36.5C 254.092,33.8728 254.425,31.2062 254.5,28.5 Z"/></g>
<g><path style="opacity:1" fill="#dadada" d="M 177.5,30.5 C 178.268,29.7375 178.768,28.7375 179,27.5C 180.442,30.0496 181.608,32.7163 182.5,35.5C 180.5,36.8333 178.5,36.8333 176.5,35.5C 177.309,33.9291 177.643,32.2624 177.5,30.5 Z"/></g>
<g><path style="opacity:1" fill="#ededed" d="M 90.5,34.5 C 99.8178,34.2917 102.484,38.4584 98.5,47C 95.7838,49.1511 93.2838,48.9845 91,46.5C 90.5012,42.5138 90.3345,38.5138 90.5,34.5 Z"/></g>
<g><path style="opacity:1" fill="#171717" d="M 199.5,48.5 C 198.791,49.404 197.791,49.7373 196.5,49.5C 193.445,47.1842 192.779,44.1842 194.5,40.5C 194.74,44.1292 196.407,46.7958 199.5,48.5 Z"/></g>
<g><path style="opacity:1" fill="#0d0d0d" d="M 240.5,49.5 C 239.209,49.7373 238.209,49.404 237.5,48.5C 240.849,47.3164 243.015,44.983 244,41.5C 245.421,45.5058 244.254,48.1724 240.5,49.5 Z"/></g>
<g><path style="opacity:1" fill="#757575" d="M 199.5,48.5 C 200.5,48.5 201.5,48.5 202.5,48.5C 202.5,49.1667 202.833,49.5 203.5,49.5C 201.167,50.8333 198.833,50.8333 196.5,49.5C 197.791,49.7373 198.791,49.404 199.5,48.5 Z"/></g>
<g><path style="opacity:1" fill="#767676" d="M 235.5,48.5 C 236.167,48.5 236.833,48.5 237.5,48.5C 238.209,49.404 239.209,49.7373 240.5,49.5C 237.833,50.8333 235.167,50.8333 232.5,49.5C 233.791,49.7373 234.791,49.404 235.5,48.5 Z"/></g>
<g><path style="opacity:1" fill="#030302" d="M 63.5,61.5 C 162.167,61.5 260.833,61.5 359.5,61.5C 359.5,170.167 359.5,278.833 359.5,387.5C 357.68,405.967 348.347,419.134 331.5,427C 327.024,428.811 322.357,429.811 317.5,430C 246.5,430.667 175.5,430.667 104.5,430C 83.8522,426.524 70.5188,414.691 64.5,394.5C 63.5102,283.518 63.1769,172.518 63.5,61.5 Z"/></g>
<g><path style="opacity:1" fill="#9b9b9b" d="M 63.5,61.5 C 63.5,61.1667 63.5,60.8333 63.5,60.5C 162.5,60.5 261.5,60.5 360.5,60.5C 360.833,169.668 360.499,278.668 359.5,387.5C 359.5,278.833 359.5,170.167 359.5,61.5C 260.833,61.5 162.167,61.5 63.5,61.5 Z"/></g>
<g><path style="opacity:1" fill="#dbdbdb" d="M 63.5,60.5 C 63.5,60.8333 63.5,61.1667 63.5,61.5C 63.1769,172.518 63.5102,283.518 64.5,394.5C 63.71,393.391 63.21,392.058 63,390.5C 62.1674,280.333 62.3341,170.333 63.5,60.5 Z"/></g>
<g><path style="opacity:1" fill="#570018" d="M 208.5,65.5 C 161.5,65.5 114.5,65.5 67.5,65.5C 67.5,122.167 67.5,178.833 67.5,235.5C 68.5,235.5 69.5,235.5 70.5,235.5C 69.4324,236.434 68.099,236.768 66.5,236.5C 66.5,179.167 66.5,121.833 66.5,64.5C 114.003,64.1679 161.336,64.5012 208.5,65.5 Z"/></g>
<g><path style="opacity:1" fill="#a70132" d="M 208.5,65.5 C 208.5,122.5 208.5,179.5 208.5,236.5C 201.085,235.45 193.752,233.95 186.5,232C 183.139,211.62 180.139,191.12 177.5,170.5C 177.878,168.865 178.544,167.365 179.5,166C 178.66,164.829 177.827,163.662 177,162.5C 174.518,148.942 173.351,135.276 173.5,121.5C 169.846,121.058 166.179,120.724 162.5,120.5C 162.5,121.833 162.5,123.167 162.5,124.5C 160.139,124.326 157.806,123.993 155.5,123.5C 155.5,121.833 155.5,120.167 155.5,118.5C 151.158,118.261 146.824,117.927 142.5,117.5C 142.5,119.5 142.5,121.5 142.5,123.5C 139.833,123.5 137.167,123.5 134.5,123.5C 134.5,123.167 134.5,122.833 134.5,122.5C 134.714,120.856 134.38,119.356 133.5,118C 131.19,117.503 128.857,117.337 126.5,117.5C 125.747,105.181 125.414,92.8481 125.5,80.5C 125.435,78.3043 124.768,76.3043 123.5,74.5C 123.167,75 122.833,75.5 122.5,76C 123.474,89.7966 123.807,103.63 123.5,117.5C 122.432,118.434 121.099,118.768 119.5,118.5C 119.5,121.167 119.5,123.833 119.5,126.5C 117.833,126.5 116.167,126.5 114.5,126.5C 114.167,124.5 113.833,122.5 113.5,120.5C 110.15,120.335 106.817,120.502 103.5,121C 102.316,122.18 101.649,123.68 101.5,125.5C 100.303,136.164 99.1366,146.83 98,157.5C 97.8525,160.589 97.0192,163.422 95.5,166C 96.0512,167.958 96.3845,169.958 96.5,172C 93.7199,191.756 91.7199,211.589 90.5,231.5C 83.8499,232.926 77.1832,234.259 70.5,235.5C 69.5,235.5 68.5,235.5 67.5,235.5C 67.5,178.833 67.5,122.167 67.5,65.5C 114.5,65.5 161.5,65.5 208.5,65.5 Z"/></g>
<g><path style="opacity:1" fill="#aecde6" d="M 212.5,65.5 C 260.167,65.5 307.833,65.5 355.5,65.5C 355.5,122.167 355.5,178.833 355.5,235.5C 354.5,235.5 353.5,235.5 352.5,235.5C 335.974,231.968 319.307,229.301 302.5,227.5C 297.124,218.92 295.124,209.587 296.5,199.5C 298.826,200.151 301.159,200.818 303.5,201.5C 306.47,200.471 309.47,200.471 312.5,201.5C 312.5,200.5 312.5,199.5 312.5,198.5C 315.579,198.74 318.579,198.407 321.5,197.5C 322.826,194.174 325.159,191.841 328.5,190.5C 329.308,188.577 329.808,186.577 330,184.5C 333.801,181.614 334.301,178.28 331.5,174.5C 333.062,170.528 331.895,167.528 328,165.5C 326.789,160.817 323.956,159.15 319.5,160.5C 319.319,157.215 318.319,154.215 316.5,151.5C 317.395,148.933 318.729,146.599 320.5,144.5C 319.721,142.227 318.388,140.394 316.5,139C 317.148,137.56 317.481,136.06 317.5,134.5C 316.5,134.5 315.5,134.5 314.5,134.5C 314.66,132.801 314.494,131.134 314,129.5C 310.667,126.833 307.667,123.833 305,120.5C 305.417,115.968 305.584,111.468 305.5,107C 304.048,105.155 302.215,103.655 300,102.5C 298.798,100.323 298.298,97.9892 298.5,95.5C 296.516,95.6168 294.85,94.9501 293.5,93.5C 292.672,94.4147 291.672,95.0814 290.5,95.5C 286.122,94.5706 282.122,92.904 278.5,90.5C 276.783,91.6685 276.116,93.3352 276.5,95.5C 274.599,95.5668 272.766,95.2335 271,94.5C 269.286,95.0762 268.119,96.2429 267.5,98C 268.804,98.804 269.471,99.9707 269.5,101.5C 268.272,104.238 266.438,106.571 264,108.5C 263.639,111.437 264.139,114.27 265.5,117C 264.21,123.062 261.043,127.895 256,131.5C 255.517,132.448 255.351,133.448 255.5,134.5C 254.167,134.5 252.833,134.5 251.5,134.5C 251.624,138.295 250.457,141.629 248,144.5C 247.88,151.089 246.713,157.423 244.5,163.5C 242.833,163.5 241.167,163.5 239.5,163.5C 239.5,165.5 239.5,167.5 239.5,169.5C 238.5,169.5 237.5,169.5 236.5,169.5C 235.09,176.755 235.757,183.755 238.5,190.5C 241.174,192.548 243.84,194.548 246.5,196.5C 247.086,196.291 247.586,195.957 248,195.5C 250.485,196.987 252.652,198.821 254.5,201C 258.771,202.008 262.771,201.508 266.5,199.5C 269.591,210.533 267.258,220.366 259.5,229C 243.706,230.158 228.206,232.658 213,236.5C 212.5,179.501 212.333,122.501 212.5,65.5 Z"/></g>
<g><path style="opacity:1" fill="#8298a9" d="M 212.5,65.5 C 260.33,64.5012 308.33,64.1678 356.5,64.5C 356.5,121.833 356.5,179.167 356.5,236.5C 354.901,236.768 353.568,236.434 352.5,235.5C 353.5,235.5 354.5,235.5 355.5,235.5C 355.5,178.833 355.5,122.167 355.5,65.5C 307.833,65.5 260.167,65.5 212.5,65.5 Z"/></g>
<g><path style="opacity:1" fill="#f7eff1" d="M 159.5,76.5 C 163.226,76.1774 166.893,76.5108 170.5,77.5C 164.786,82.5487 158.786,87.2154 152.5,91.5C 146.884,87.8847 141.55,83.8847 136.5,79.5C 144.242,78.0734 151.909,77.0734 159.5,76.5 Z"/></g>
<g><path style="opacity:1" fill="#34030e" d="M 125.5,80.5 C 124.833,92.8333 124.167,105.167 123.5,117.5C 123.807,103.63 123.474,89.7966 122.5,76C 122.833,75.5 123.167,75 123.5,74.5C 124.768,76.3043 125.435,78.3043 125.5,80.5 Z"/></g>
<g><path style="opacity:1" fill="#f8f1f3" d="M 174.5,82.5 C 175.239,82.369 175.906,82.5357 176.5,83C 176.033,90.5638 175.033,98.0638 173.5,105.5C 168.531,102.522 163.865,99.1892 159.5,95.5C 164.224,90.7706 169.224,86.4373 174.5,82.5 Z"/></g>
<g><path style="opacity:1" fill="#f9f3f5" d="M 131.5,84.5 C 136.786,87.7875 141.786,91.4542 146.5,95.5C 141.972,100.711 136.639,104.711 130.5,107.5C 130.5,103.833 130.5,100.167 130.5,96.5C 130.183,92.2984 130.517,88.2984 131.5,84.5 Z"/></g>
<g><path style="opacity:1" fill="#ba5f70" d="M 131.5,84.5 C 130.517,88.2984 130.183,92.2984 130.5,96.5C 129.189,92.3171 129.189,87.9838 130.5,83.5C 131.107,83.6236 131.44,83.9569 131.5,84.5 Z"/></g>
<g><path style="opacity:1" fill="#f9f3f5" d="M 154.5,111.5 C 149.305,111.821 144.305,111.487 139.5,110.5C 143.852,106.984 148.352,103.651 153,100.5C 158.737,103.619 164.237,107.119 169.5,111C 164.511,111.499 159.511,111.666 154.5,111.5 Z"/></g>
<g><path style="opacity:1" fill="#14532a" d="M 291.5,97.5 C 292.5,97.5 293.5,97.5 294.5,97.5C 293.188,102.516 295.188,105.516 300.5,106.5C 300.334,112.176 300.501,117.843 301,123.5C 303.371,126.206 306.037,128.539 309,130.5C 309.081,133.81 310.581,136.143 313.5,137.5C 310.678,140.213 311.178,142.213 315,143.5C 315.167,144.333 315.333,145.167 315.5,146C 313.902,148.529 312.569,151.196 311.5,154C 313.65,156.041 314.65,158.541 314.5,161.5C 316.989,161.298 319.323,161.798 321.5,163C 323.093,166.262 325.093,169.262 327.5,172C 326.704,173.092 326.037,174.259 325.5,175.5C 327.106,177.59 327.606,179.924 327,182.5C 324.616,186.893 321.449,190.726 317.5,194C 316.101,194.595 314.768,194.428 313.5,193.5C 312.126,194.711 310.626,195.711 309,196.5C 304.39,195.223 299.724,194.223 295,193.5C 292.344,196.01 289.344,196.676 286,195.5C 284.667,196.167 283.333,196.833 282,197.5C 278.32,195.951 274.487,195.284 270.5,195.5C 270.682,193.409 270.348,191.409 269.5,189.5C 266.597,187.047 263.264,185.714 259.5,185.5C 261.033,181.43 260.7,177.596 258.5,174C 260.374,172.14 261.374,169.806 261.5,167C 261.333,165.5 261.167,164 261,162.5C 258.619,161.565 256.119,161.232 253.5,161.5C 253.106,158.143 254.439,155.81 257.5,154.5C 258.189,152.556 258.689,150.556 259,148.5C 261.543,147.793 263.709,146.46 265.5,144.5C 262.687,140.886 263.021,137.552 266.5,134.5C 267.845,135.347 268.845,136.513 269.5,138C 271.134,138.494 272.801,138.66 274.5,138.5C 274.523,136.4 273.856,134.567 272.5,133C 273.464,131.036 274.797,129.37 276.5,128C 275.5,126.333 274.5,124.667 273.5,123C 274.022,122.05 274.689,121.216 275.5,120.5C 273.682,119.176 272.682,117.343 272.5,115C 273.944,109.289 276.278,104.123 279.5,99.5C 282.809,99.8581 286.143,100.191 289.5,100.5C 290.919,99.9953 291.585,98.9953 291.5,97.5 Z"/></g>
<g><path style="opacity:1" fill="#b86271" d="M 139.5,110.5 C 144.305,111.487 149.305,111.821 154.5,111.5C 149.32,112.815 143.986,112.815 138.5,111.5C 138.624,110.893 138.957,110.56 139.5,110.5 Z"/></g>
<g><path style="opacity:1" fill="#959595" d="M 113.5,127.5 C 115.833,127.5 118.167,127.5 120.5,127.5C 120.337,125.143 120.503,122.81 121,120.5C 127.207,118.517 130.707,120.851 131.5,127.5C 135.5,127.5 139.5,127.5 143.5,127.5C 143.575,124.794 143.908,122.127 144.5,119.5C 147.5,119.5 150.5,119.5 153.5,119.5C 153.223,122.448 153.556,125.281 154.5,128C 157.426,128.218 160.26,128.718 163,129.5C 163.822,126.883 164.322,124.216 164.5,121.5C 166.677,121.586 168.677,122.253 170.5,123.5C 171.467,128.802 172.133,134.135 172.5,139.5C 171.167,139.5 169.833,139.5 168.5,139.5C 168.5,143.167 168.5,146.833 168.5,150.5C 169.93,150.421 171.264,150.754 172.5,151.5C 173.494,155.452 174.16,159.452 174.5,163.5C 161.738,161.881 148.905,160.881 136,160.5C 125.836,161.462 115.669,161.962 105.5,162C 103.376,155.637 103.043,149.137 104.5,142.5C 105.474,144.743 105.808,147.076 105.5,149.5C 107.262,149.357 108.929,149.691 110.5,150.5C 111.66,146.541 111.827,142.541 111,138.5C 109.103,140.016 106.936,140.683 104.5,140.5C 104.248,135.615 104.581,130.781 105.5,126C 106.207,123.46 107.873,122.293 110.5,122.5C 110.5,124.5 110.5,126.5 110.5,128.5C 111.791,128.737 112.791,128.404 113.5,127.5 Z"/></g>
<g><path style="opacity:1" fill="#727473" d="M 134.5,122.5 C 134.5,122.833 134.5,123.167 134.5,123.5C 134.631,124.376 134.298,125.043 133.5,125.5C 132.359,123.579 132.192,121.579 133,119.5C 133.232,120.737 133.732,121.737 134.5,122.5 Z"/></g>
<g><path style="opacity:1" fill="#6e7571" d="M 113.5,127.5 C 111.559,125.989 111.059,123.989 112,121.5C 112.813,123.436 113.313,125.436 113.5,127.5 Z"/></g>
<g><path style="opacity:1" fill="#141414" d="M 132.5,137.5 C 136.833,137.5 141.167,137.5 145.5,137.5C 145.824,141.555 145.491,145.555 144.5,149.5C 141.242,148.583 137.909,148.249 134.5,148.5C 134.813,144.587 134.147,140.921 132.5,137.5 Z"/></g>
<g><path style="opacity:1" fill="#979797" d="M 115.5,164.5 C 132.503,164.333 149.503,164.5 166.5,165C 169.362,165.27 172.028,166.104 174.5,167.5C 177.343,188.738 179.343,210.071 180.5,231.5C 175.473,231.497 170.473,231.164 165.5,230.5C 166.573,222.154 163.906,215.321 157.5,210C 147.031,207.5 140.864,211.666 139,222.5C 138.503,224.81 138.337,227.143 138.5,229.5C 131.159,229.666 123.826,229.5 116.5,229C 115.315,227.647 113.981,226.48 112.5,225.5C 109.205,226.694 107.705,225.361 108,221.5C 103.491,219.936 103.658,218.436 108.5,217C 107.109,215.98 105.609,215.147 104,214.5C 103.784,212.616 103.117,210.949 102,209.5C 101.936,203.44 101.77,197.44 101.5,191.5C 104.548,191.506 105.048,190.506 103,188.5C 102.68,183.977 102.18,179.477 101.5,175C 102.585,172.587 103.585,170.087 104.5,167.5C 108.162,166.098 111.829,165.098 115.5,164.5 Z"/></g>
<g><path style="opacity:1" fill="#135229" d="M 283.5,204.5 C 286.336,205.776 289.336,206.442 292.5,206.5C 293.889,214.001 295.889,221.335 298.5,228.5C 290.833,228.5 283.167,228.5 275.5,228.5C 276.608,220.85 277.608,213.184 278.5,205.5C 280.415,205.784 282.081,205.451 283.5,204.5 Z"/></g>
<g><path style="opacity:1" fill="#f5b501" d="M 212.5,242.5 C 260.5,242.5 308.5,242.5 356.5,242.5C 356.667,291.834 356.5,341.168 356,390.5C 351.655,408.843 340.489,420.676 322.5,426C 285.835,426.5 249.168,426.667 212.5,426.5C 212.5,365.167 212.5,303.833 212.5,242.5 Z"/></g>
<g><path style="opacity:1" fill="#070707" d="M 48.5,249.5 C 49.6433,252.976 49.8099,256.642 49,260.5C 48.6258,259.584 48.1258,258.75 47.5,258C 38.8333,257.333 30.1667,257.333 21.5,258C 18.6169,262.269 18.9502,266.269 22.5,270C 30.8267,270.5 39.16,270.666 47.5,270.5C 47.281,269.325 47.6143,268.325 48.5,267.5C 49.6517,270.106 49.8184,272.773 49,275.5C 48.5,273.667 47.3333,272.5 45.5,272C 37.5,271.667 29.5,271.333 21.5,271C 16.1667,265.333 16.1667,259.667 21.5,254C 30.1858,253.832 38.8525,253.332 47.5,252.5C 48.1272,251.583 48.4606,250.583 48.5,249.5 Z"/></g>
<g><path style="opacity:1" fill="#efefef" d="M 91.5,249.5 C 92.6976,252.426 93.6976,255.426 94.5,258.5C 93.343,260.138 92.1764,261.804 91,263.5C 90.1849,258.648 90.3516,253.981 91.5,249.5 Z"/></g>
<g><path style="opacity:1" fill="#030202" d="M 236.5,248.5 C 237.246,251.139 238.246,253.806 239.5,256.5C 243.305,257.549 247.138,257.549 251,256.5C 255.399,258.034 259.899,258.534 264.5,258C 266.938,255.705 268.438,252.872 269,249.5C 270.435,254.244 270.935,258.91 270.5,263.5C 279.957,269.317 290.291,272.484 301.5,273C 310.421,276.811 319.755,278.477 329.5,278C 344.076,288.136 348.576,301.636 343,318.5C 339.406,322.547 334.906,324.881 329.5,325.5C 319.183,326.666 308.849,326.832 298.5,326C 297.62,324.644 297.286,323.144 297.5,321.5C 281.167,321.5 264.833,321.5 248.5,321.5C 248.593,316.194 250.593,311.861 254.5,308.5C 255.046,307.228 255.379,305.894 255.5,304.5C 254.637,301.767 253.471,299.101 252,296.5C 251.503,293.854 251.336,291.187 251.5,288.5C 247.818,288.665 244.152,288.499 240.5,288C 235.514,285.61 234.68,282.443 238,278.5C 238.732,274.806 239.565,271.139 240.5,267.5C 238.925,264.74 237.091,262.073 235,259.5C 234.413,255.69 234.913,252.023 236.5,248.5 Z"/></g>
<g><path style="opacity:1" fill="#f0f0f0" d="M 186.5,250.5 C 187.892,253.007 188.892,255.673 189.5,258.5C 188.836,260.487 187.669,262.154 186,263.5C 185.186,258.98 185.353,254.646 186.5,250.5 Z"/></g>
<g><path style="opacity:1" fill="#0f0f0f" d="M 370.5,253.5 C 378.102,252.582 378.935,253.916 373,257.5C 372.503,260.146 372.336,262.813 372.5,265.5C 376.5,265.5 380.5,265.5 384.5,265.5C 384.662,263.473 384.495,261.473 384,259.5C 383.228,258.151 382.061,257.318 380.5,257C 383.833,256.333 387.167,256.333 390.5,257C 386.045,258.063 384.379,260.896 385.5,265.5C 390.167,265.5 394.833,265.5 399.5,265.5C 400.729,260.258 399.063,256.425 394.5,254C 396.81,253.503 399.143,253.337 401.5,253.5C 401.83,260.2 401.497,266.866 400.5,273.5C 399.738,272.372 399.071,271.205 398.5,270C 389.833,269.333 381.167,269.333 372.5,270C 371.874,270.75 371.374,271.584 371,272.5C 370.5,266.175 370.334,259.842 370.5,253.5 Z"/></g>
<g><path style="opacity:1" fill="#aeaeae" d="M 91.5,249.5 C 90.3516,253.981 90.1849,258.648 91,263.5C 92.1764,261.804 93.343,260.138 94.5,258.5C 98.2001,258.921 101.867,259.588 105.5,260.5C 105.043,261.298 104.376,261.631 103.5,261.5C 99.2317,261.366 95.2317,262.7 91.5,265.5C 90.8333,265.5 90.1667,265.5 89.5,265.5C 85.8918,263.566 82.0584,261.899 78,260.5C 77.2352,260.57 76.7352,260.903 76.5,261.5C 75.2486,260.528 75.582,259.861 77.5,259.5C 80.4486,258.698 83.4486,258.364 86.5,258.5C 87.6214,255.147 88.9547,251.814 90.5,248.5C 91.1067,248.624 91.44,248.957 91.5,249.5 Z"/></g>
<g><path style="opacity:1" fill="#c4c4c4" d="M 146.5,276.5 C 144.989,272.703 142.489,269.037 139,265.5C 135.714,268.474 133.88,271.807 133.5,275.5C 132.171,277.377 130.838,277.544 129.5,276C 130.401,273.129 131.401,270.296 132.5,267.5C 129.646,264.812 126.646,262.312 123.5,260C 127.466,259.172 131.466,258.672 135.5,258.5C 137.834,246.964 140.501,246.797 143.5,258C 147.219,258.388 150.886,259.055 154.5,260C 151.601,262.277 148.934,264.777 146.5,267.5C 147.907,270.822 148.24,274.155 147.5,277.5C 146.893,277.376 146.56,277.043 146.5,276.5 Z"/></g>
<g><path style="opacity:1" fill="#5d5d5d" d="M 247.5,258.5 C 249.527,258.338 251.527,258.505 253.5,259C 251.679,260.743 249.679,262.243 247.5,263.5C 246.334,261.833 246.334,260.166 247.5,258.5 Z"/></g>
<g><path style="opacity:1" fill="#ebebeb" d="M 184.5,265.5 C 182.5,265.833 180.5,266.167 178.5,266.5C 175.891,265.557 173.891,263.89 172.5,261.5C 172.56,260.957 172.893,260.624 173.5,260.5C 177.353,261.996 181.019,263.662 184.5,265.5 Z"/></g>
<g><path style="opacity:1" fill="#eaeaea" d="M 76.5,261.5 C 76.7352,260.903 77.2352,260.57 78,260.5C 82.0584,261.899 85.8918,263.566 89.5,265.5C 87.5,265.833 85.5,266.167 83.5,266.5C 80.9066,265.246 78.5732,263.58 76.5,261.5 Z"/></g>
<g><path style="opacity:1" fill="#ebebeb" d="M 103.5,261.5 C 102.109,263.89 100.109,265.557 97.5,266.5C 95.4352,266.483 93.4352,266.15 91.5,265.5C 95.2317,262.7 99.2317,261.366 103.5,261.5 Z"/></g>
<g><path style="opacity:1" fill="#f1f1f1" d="M 199.5,261.5 C 197.445,263.555 195.112,265.221 192.5,266.5C 190.692,266.509 189.025,266.009 187.5,265C 190.884,263.314 194.384,261.814 198,260.5C 198.765,260.57 199.265,260.903 199.5,261.5 Z"/></g>
<g><path style="opacity:1" fill="#ececec" d="M 89.5,265.5 C 90.1667,265.5 90.8333,265.5 91.5,265.5C 93.1126,268.286 94.946,270.953 97,273.5C 97.6917,274.437 97.525,275.103 96.5,275.5C 94.5336,274.559 92.5336,273.559 90.5,272.5C 88.1495,273.861 85.8162,275.194 83.5,276.5C 82.475,276.103 82.3083,275.437 83,274.5C 85.6661,271.824 87.8327,268.824 89.5,265.5 Z"/></g>
<g><path style="opacity:1" fill="#eeeeee" d="M 146.5,276.5 C 144.031,275.431 141.698,274.098 139.5,272.5C 137.473,273.513 135.473,274.513 133.5,275.5C 133.88,271.807 135.714,268.474 139,265.5C 142.489,269.037 144.989,272.703 146.5,276.5 Z"/></g>
<g><path style="opacity:1" fill="#efefef" d="M 184.5,265.5 C 187.806,267.813 190.473,270.813 192.5,274.5C 192.376,275.107 192.043,275.44 191.5,275.5C 189.527,274.513 187.527,273.513 185.5,272.5C 183.466,273.559 181.466,274.559 179.5,275.5C 178.957,275.44 178.624,275.107 178.5,274.5C 180.769,271.615 182.769,268.615 184.5,265.5 Z"/></g>
<g><path style="opacity:1" fill="#aeaeae" d="M 186.5,250.5 C 185.353,254.646 185.186,258.98 186,263.5C 187.669,262.154 188.836,260.487 189.5,258.5C 193.306,258.412 196.973,259.079 200.5,260.5C 200.376,261.107 200.043,261.44 199.5,261.5C 199.265,260.903 198.765,260.57 198,260.5C 194.384,261.814 190.884,263.314 187.5,265C 189.025,266.009 190.692,266.509 192.5,266.5C 193.565,269.997 194.565,273.497 195.5,277C 193.648,277.773 192.314,277.273 191.5,275.5C 192.043,275.44 192.376,275.107 192.5,274.5C 190.473,270.813 187.806,267.813 184.5,265.5C 181.019,263.662 177.353,261.996 173.5,260.5C 172.893,260.624 172.56,260.957 172.5,261.5C 171.624,261.631 170.957,261.298 170.5,260.5C 174.198,259.606 177.865,258.606 181.5,257.5C 182.564,254.373 183.897,251.373 185.5,248.5C 186.298,248.957 186.631,249.624 186.5,250.5 Z"/></g>
<g><path style="opacity:1" fill="#adadad" d="M 91.5,265.5 C 93.4352,266.15 95.4352,266.483 97.5,266.5C 99.2648,270.073 99.5981,273.74 98.5,277.5C 97.4777,277.145 96.811,276.478 96.5,275.5C 97.525,275.103 97.6917,274.437 97,273.5C 94.946,270.953 93.1126,268.286 91.5,265.5 Z"/></g>
<g><path style="opacity:1" fill="#ababab" d="M 184.5,265.5 C 182.769,268.615 180.769,271.615 178.5,274.5C 178.624,275.107 178.957,275.44 179.5,275.5C 178.033,278.232 177.033,278.065 176.5,275C 177.093,272.13 177.759,269.297 178.5,266.5C 180.5,266.167 182.5,265.833 184.5,265.5 Z"/></g>
<g><path style="opacity:1" fill="#a8a8a8" d="M 89.5,265.5 C 87.8327,268.824 85.6661,271.824 83,274.5C 82.3083,275.437 82.475,276.103 83.5,276.5C 82.7494,277.573 81.7494,277.74 80.5,277C 81.9403,273.636 82.9403,270.136 83.5,266.5C 85.5,266.167 87.5,265.833 89.5,265.5 Z"/></g>
<g><path style="opacity:1" fill="#606060" d="M 258.5,268.5 C 263.151,269.232 264.651,271.899 263,276.5C 259.375,279.158 255.875,281.991 252.5,285C 250.975,286.009 249.308,286.509 247.5,286.5C 247.297,284.61 247.963,283.11 249.5,282C 247.993,281.163 247.493,279.996 248,278.5C 250.487,276.191 252.487,273.524 254,270.5C 256.501,272.056 258.001,271.389 258.5,268.5 Z"/></g>
<g><path style="opacity:1" fill="#616161" d="M 270.5,275.5 C 277.943,274.938 281.443,278.271 281,285.5C 276.584,288.166 273.751,291.999 272.5,297C 274.237,301.072 276.403,304.905 279,308.5C 279.49,309.793 279.657,311.127 279.5,312.5C 273.819,311.267 268.152,311.267 262.5,312.5C 261.614,311.675 261.281,310.675 261.5,309.5C 265.81,308.92 270.143,308.586 274.5,308.5C 274.657,307.127 274.49,305.793 274,304.5C 270.633,300.797 266.966,297.464 263,294.5C 261.195,291.789 261.195,289.122 263,286.5C 267.726,284.286 270.226,280.619 270.5,275.5 Z"/></g>
<g><path style="opacity:1" fill="#0d0d0d" d="M 29.5,299.5 C 28.9569,299.56 28.6236,299.893 28.5,300.5C 34.9883,301.817 41.3217,301.817 47.5,300.5C 47.281,299.325 47.6143,298.325 48.5,297.5C 49.8333,300.167 49.8333,302.833 48.5,305.5C 47.8182,304.757 47.1515,304.091 46.5,303.5C 36.8333,302.833 27.1667,302.167 17.5,301.5C 26.3076,296.261 34.9742,290.761 43.5,285C 35.8333,284.333 28.1667,284.333 20.5,285C 19.8095,286.067 19.3095,287.234 19,288.5C 18.3333,285.5 18.3333,282.5 19,279.5C 19.3176,281.061 20.1509,282.228 21.5,283C 30.1858,283.832 38.8525,283.665 47.5,282.5C 48,281.5 48.5,280.5 49,279.5C 49.8184,282.227 49.6517,284.894 48.5,287.5C 42.1492,291.527 35.8158,295.527 29.5,299.5 Z"/></g>
<g><path style="opacity:1" fill="#606060" d="M 323.5,282.5 C 326.579,282.804 329.413,283.804 332,285.5C 335.758,289.699 338.425,294.365 340,299.5C 335.905,295.531 331.071,294.031 325.5,295C 321.044,296.979 317.21,299.813 314,303.5C 312.69,307.319 312.19,311.153 312.5,315C 308.357,315.162 304.523,316.329 301,318.5C 300.5,318.167 300,317.833 299.5,317.5C 300.5,316.667 301.5,315.833 302.5,315C 305.822,314.941 308.656,313.774 311,311.5C 311.311,305.126 311.977,298.793 313,292.5C 315.114,287.549 318.614,284.215 323.5,282.5 Z"/></g>
<g><path style="opacity:1" fill="#0e0e0e" d="M 395.5,278.5 C 397.265,277.539 399.265,277.205 401.5,277.5C 401.829,283.537 401.496,289.537 400.5,295.5C 399.614,294.675 399.281,293.675 399.5,292.5C 390.494,292.334 381.494,292.5 372.5,293C 371.874,293.75 371.374,294.584 371,295.5C 370.333,291.833 370.333,288.167 371,284.5C 371.309,285.766 371.809,286.933 372.5,288C 381.167,288.667 389.833,288.667 398.5,288C 400.4,283.874 399.4,280.707 395.5,278.5 Z"/></g>
<g><path style="opacity:1" fill="#ececec" d="M 91.5,286.5 C 92.8916,289.007 93.8916,291.673 94.5,294.5C 93.9524,296.394 92.9524,298.06 91.5,299.5C 90.1889,295.016 90.1889,290.683 91.5,286.5 Z"/></g>
<g><path style="opacity:1" fill="#acacac" d="M 186.5,286.5 C 185.167,291.167 185.167,295.833 186.5,300.5C 188.506,302.688 190.839,303.354 193.5,302.5C 193.451,305.374 193.784,308.208 194.5,311C 194.167,311.833 193.833,312.667 193.5,313.5C 192.893,313.376 192.56,313.043 192.5,312.5C 192.938,312.565 193.272,312.399 193.5,312C 191.18,308.515 188.513,305.349 185.5,302.5C 182.675,305.495 180.008,308.662 177.5,312C 177.728,312.399 178.062,312.565 178.5,312.5C 178.44,313.043 178.107,313.376 177.5,313.5C 177.167,312.667 176.833,311.833 176.5,311C 177.275,308.178 177.942,305.344 178.5,302.5C 180.75,302.819 182.75,302.319 184.5,301C 181,299.833 177.5,298.667 174,297.5C 173.235,297.57 172.735,297.903 172.5,298.5C 171.522,298.189 170.855,297.522 170.5,296.5C 174.198,295.606 177.865,294.606 181.5,293.5C 182.838,290.824 184.171,288.158 185.5,285.5C 186.107,285.624 186.44,285.957 186.5,286.5 Z"/></g>
<g><path style="opacity:1" fill="#ececec" d="M 186.5,286.5 C 188.095,289.285 189.095,292.285 189.5,295.5C 188.248,297.001 187.248,298.668 186.5,300.5C 185.167,295.833 185.167,291.167 186.5,286.5 Z"/></g>
<g><path style="opacity:1" fill="#ababab" d="M 189.5,295.5 C 193.514,295.334 197.514,295.501 201.5,296C 200.627,297.045 199.627,297.878 198.5,298.5C 198.083,297.876 197.416,297.543 196.5,297.5C 193.279,298.907 189.945,299.907 186.5,300.5C 187.248,298.668 188.248,297.001 189.5,295.5 Z"/></g>
<g><path style="opacity:1" fill="#acacac" d="M 91.5,286.5 C 90.1889,290.683 90.1889,295.016 91.5,299.5C 92.9524,298.06 93.9524,296.394 94.5,294.5C 98.2618,294.627 101.928,295.294 105.5,296.5C 105.145,297.522 104.478,298.189 103.5,298.5C 103.083,297.876 102.416,297.543 101.5,297.5C 98.1667,298.667 94.8333,299.833 91.5,301C 93.6775,302.202 96.0108,302.702 98.5,302.5C 98.3893,303.117 98.056,303.617 97.5,304C 99.4208,307.018 99.7541,310.185 98.5,313.5C 97.8933,313.376 97.56,313.043 97.5,312.5C 97.9382,312.565 98.2716,312.399 98.5,312C 96.1796,308.515 93.5129,305.349 90.5,302.5C 87.4871,305.349 84.8204,308.515 82.5,312C 82.7284,312.399 83.0618,312.565 83.5,312.5C 82.8595,314.332 81.8595,314.665 80.5,313.5C 82.245,309.799 82.9117,306.132 82.5,302.5C 84.9267,302.477 87.26,301.977 89.5,301C 86.1235,299.93 82.7902,298.764 79.5,297.5C 78.5836,297.543 77.9169,297.876 77.5,298.5C 76.5222,298.189 75.8555,297.522 75.5,296.5C 79.1073,295.511 82.774,295.177 86.5,295.5C 87.199,292.427 88.199,289.427 89.5,286.5C 90.2565,285.227 90.9232,285.227 91.5,286.5 Z"/></g>
<g><path style="opacity:1" fill="#f0f0f0" d="M 77.5,298.5 C 77.9169,297.876 78.5836,297.543 79.5,297.5C 82.7902,298.764 86.1235,299.93 89.5,301C 87.26,301.977 84.9267,302.477 82.5,302.5C 80.8333,301.167 79.1667,299.833 77.5,298.5 Z"/></g>
<g><path style="opacity:1" fill="#eeeeee" d="M 103.5,298.5 C 101.833,299.833 100.167,301.167 98.5,302.5C 96.0108,302.702 93.6775,302.202 91.5,301C 94.8333,299.833 98.1667,298.667 101.5,297.5C 102.416,297.543 103.083,297.876 103.5,298.5 Z"/></g>
<g><path style="opacity:1" fill="#eeeeee" d="M 172.5,298.5 C 172.735,297.903 173.235,297.57 174,297.5C 177.5,298.667 181,299.833 184.5,301C 182.75,302.319 180.75,302.819 178.5,302.5C 176.246,301.585 174.246,300.252 172.5,298.5 Z"/></g>
<g><path style="opacity:1" fill="#eeeeee" d="M 198.5,298.5 C 196.833,299.833 195.167,301.167 193.5,302.5C 190.839,303.354 188.506,302.688 186.5,300.5C 189.945,299.907 193.279,298.907 196.5,297.5C 197.416,297.543 198.083,297.876 198.5,298.5 Z"/></g>
<g><path style="opacity:1" fill="#707070" d="M 29.5,299.5 C 35.31,300.49 41.31,300.823 47.5,300.5C 41.3217,301.817 34.9883,301.817 28.5,300.5C 28.6236,299.893 28.9569,299.56 29.5,299.5 Z"/></g>
<g><path style="opacity:1" fill="#222222" d="M 370.5,300.5 C 371.404,301.209 371.737,302.209 371.5,303.5C 380.857,303.832 390.19,303.498 399.5,302.5C 399.808,301.692 400.308,301.025 401,300.5C 401.825,304.211 401.659,307.878 400.5,311.5C 399.614,310.675 399.281,309.675 399.5,308.5C 390.494,308.334 381.494,308.5 372.5,309C 371.874,309.75 371.374,310.584 371,311.5C 370.501,307.848 370.335,304.182 370.5,300.5 Z"/></g>
<g><path style="opacity:1" fill="#afafaf" d="M 17.5,301.5 C 27.1667,302.167 36.8333,302.833 46.5,303.5C 36.4778,303.832 26.4778,303.499 16.5,302.5C 16.6236,301.893 16.9569,301.56 17.5,301.5 Z"/></g>
<g><path style="opacity:1" fill="#f1f1f1" d="M 97.5,312.5 C 95.1838,311.194 92.8505,309.861 90.5,308.5C 88.3021,310.098 85.9687,311.431 83.5,312.5C 83.0618,312.565 82.7284,312.399 82.5,312C 84.8204,308.515 87.4871,305.349 90.5,302.5C 93.5129,305.349 96.1796,308.515 98.5,312C 98.2716,312.399 97.9382,312.565 97.5,312.5 Z"/></g>
<g><path style="opacity:1" fill="#c2c2c2" d="M 146.5,312.5 C 146.938,312.565 147.272,312.399 147.5,312C 144.992,308.662 142.325,305.495 139.5,302.5C 136.878,304.411 134.711,306.745 133,309.5C 132.308,310.437 132.475,311.103 133.5,311.5C 131.755,314.403 130.755,314.07 130.5,310.5C 130.669,308.161 131.336,305.994 132.5,304C 129.797,300.962 126.797,298.295 123.5,296C 127.573,295.488 131.573,294.655 135.5,293.5C 136.306,290.554 137.639,287.888 139.5,285.5C 141.401,288.631 142.735,291.965 143.5,295.5C 156.039,294.19 157.206,296.524 147,302.5C 147.158,305.47 147.658,308.47 148.5,311.5C 148.139,313.418 147.472,313.751 146.5,312.5 Z"/></g>
<g><path style="opacity:1" fill="#efefef" d="M 146.5,312.5 C 143.948,311.307 141.448,309.973 139,308.5C 137.259,309.758 135.426,310.758 133.5,311.5C 132.475,311.103 132.308,310.437 133,309.5C 134.711,306.745 136.878,304.411 139.5,302.5C 142.325,305.495 144.992,308.662 147.5,312C 147.272,312.399 146.938,312.565 146.5,312.5 Z"/></g>
<g><path style="opacity:1" fill="#f2f2f2" d="M 192.5,312.5 C 190.184,311.194 187.85,309.861 185.5,308.5C 183.15,309.861 180.816,311.194 178.5,312.5C 178.062,312.565 177.728,312.399 177.5,312C 180.008,308.662 182.675,305.495 185.5,302.5C 188.513,305.349 191.18,308.515 193.5,312C 193.272,312.399 192.938,312.565 192.5,312.5 Z"/></g>
<g><path style="opacity:1" fill="#1a1a1a" d="M 18.5,310.5 C 19.2674,311.172 19.9341,312.005 20.5,313C 29.5,313.667 38.5,313.667 47.5,313C 48.1258,312.25 48.6258,311.416 49,310.5C 49.6667,314.167 49.6667,317.833 49,321.5C 48.3076,320.975 47.8076,320.308 47.5,319.5C 38.5185,318.335 29.5185,318.168 20.5,319C 19.8742,319.75 19.3742,320.584 19,321.5C 18.5014,317.848 18.3347,314.182 18.5,310.5 Z"/></g>
<g><path style="opacity:1" fill="#545454" d="M 340.5,311.5 C 341.356,315.881 339.356,318.715 334.5,320C 331.339,320.063 328.339,319.229 325.5,317.5C 326.333,317.167 327.167,316.833 328,316.5C 334.115,319.91 338.281,318.243 340.5,311.5 Z"/></g>
<g><path style="opacity:1" fill="#191919" d="M 372.5,341.5 C 371.167,339.833 371.167,338.167 372.5,336.5C 376.5,336.5 380.5,336.5 384.5,336.5C 384.5,332.5 384.5,328.5 384.5,324.5C 380.486,324.334 376.486,324.501 372.5,325C 371.874,325.75 371.374,326.584 371,327.5C 370.333,323.833 370.333,320.167 371,316.5C 371.374,317.416 371.874,318.25 372.5,319C 381.494,319.5 390.494,319.666 399.5,319.5C 399.281,318.325 399.614,317.325 400.5,316.5C 401.833,320.167 401.833,323.833 400.5,327.5C 399.614,326.675 399.281,325.675 399.5,324.5C 394.833,324.5 390.167,324.5 385.5,324.5C 385.5,328.5 385.5,332.5 385.5,336.5C 390.167,336.5 394.833,336.5 399.5,336.5C 399.281,335.325 399.614,334.325 400.5,333.5C 401.833,337.167 401.833,340.833 400.5,344.5C 399.571,343.311 399.238,341.978 399.5,340.5C 390.318,340.173 381.318,340.507 372.5,341.5 Z"/></g>
<g><path style="opacity:1" fill="#141414" d="M 48.5,324.5 C 49.6408,327.64 49.8075,330.973 49,334.5C 48.196,333.196 47.0293,332.529 45.5,332.5C 39.5872,334.127 33.9206,336.294 28.5,339C 34.6221,341.613 40.9554,343.447 47.5,344.5C 47.281,343.325 47.6143,342.325 48.5,341.5C 49.6517,344.106 49.8184,346.773 49,349.5C 47.1886,347.457 45.022,345.957 42.5,345C 34.2758,342.882 26.2758,340.215 18.5,337C 27.057,333.694 35.7237,330.694 44.5,328C 46.3237,327.34 47.657,326.173 48.5,324.5 Z"/></g>
<g><path style="opacity:1" fill="#efefef" d="M 91.5,322.5 C 92.4986,325.162 93.4986,327.828 94.5,330.5C 93.6091,332.609 92.4424,334.609 91,336.5C 90.1849,331.648 90.3516,326.981 91.5,322.5 Z"/></g>
<g><path style="opacity:1" fill="#f3f3f3" d="M 140.5,323.5 C 141.73,325.297 142.396,327.297 142.5,329.5C 142.606,332.079 141.939,334.412 140.5,336.5C 139.167,332.167 139.167,327.833 140.5,323.5 Z"/></g>
<g><path style="opacity:1" fill="#e8e8e8" d="M 186.5,322.5 C 187.953,325.298 188.953,328.298 189.5,331.5C 188.248,333.001 187.248,334.668 186.5,336.5C 185.167,331.833 185.167,327.167 186.5,322.5 Z"/></g>
<g><path style="opacity:1" fill="#ababab" d="M 142.5,329.5 C 146.235,331.006 150.235,332.006 154.5,332.5C 154.145,333.522 153.478,334.189 152.5,334.5C 152.265,333.903 151.765,333.57 151,333.5C 147.569,334.811 144.069,335.811 140.5,336.5C 141.939,334.412 142.606,332.079 142.5,329.5 Z"/></g>
<g><path style="opacity:1" fill="#aeaeae" d="M 189.5,331.5 C 193.226,331.177 196.893,331.511 200.5,332.5C 200.145,333.522 199.478,334.189 198.5,334.5C 198.44,333.957 198.107,333.624 197.5,333.5C 193.952,334.97 190.285,335.97 186.5,336.5C 187.248,334.668 188.248,333.001 189.5,331.5 Z"/></g>
<g><path style="opacity:1" fill="#eeeeee" d="M 177.5,338.5 C 175.809,337.136 174.142,335.803 172.5,334.5C 172.917,333.876 173.584,333.543 174.5,333.5C 177.727,334.851 181.06,336.018 184.5,337C 182.406,338.352 180.073,338.852 177.5,338.5 Z"/></g>
<g><path style="opacity:1" fill="#eeeeee" d="M 83.5,339.5 C 81.4752,337.804 79.4752,336.137 77.5,334.5C 77.56,333.957 77.8933,333.624 78.5,333.5C 82.069,334.967 85.7357,336.134 89.5,337C 87.8421,338.663 85.8421,339.496 83.5,339.5 Z"/></g>
<g><path style="opacity:1" fill="#ebebeb" d="M 103.5,334.5 C 101.525,336.137 99.5248,337.804 97.5,339.5C 96.0695,339.579 94.7362,339.246 93.5,338.5C 92.1667,337.833 92.1667,337.167 93.5,336.5C 96.8672,334.677 100.201,334.01 103.5,334.5 Z"/></g>
<g><path style="opacity:1" fill="#f4f4f4" d="M 198.5,334.5 C 196.858,335.803 195.191,337.136 193.5,338.5C 190.772,338.829 188.438,338.163 186.5,336.5C 190.285,335.97 193.952,334.97 197.5,333.5C 198.107,333.624 198.44,333.957 198.5,334.5 Z"/></g>
<g><path style="opacity:1" fill="#616161" d="M 372.5,336.5 C 371.167,338.167 371.167,339.833 372.5,341.5C 372.719,342.675 372.386,343.675 371.5,344.5C 370.341,340.878 370.175,337.211 371,333.5C 371.513,334.527 372.013,335.527 372.5,336.5 Z"/></g>
<g><path style="opacity:1" fill="#f0f0f0" d="M 193.5,349.5 C 190.851,347.86 188.184,346.193 185.5,344.5C 182.833,346.167 180.167,347.833 177.5,349.5C 176.893,349.376 176.56,349.043 176.5,348.5C 179.493,345.199 182.493,341.865 185.5,338.5C 188.658,341.828 191.658,345.328 194.5,349C 194.272,349.399 193.938,349.565 193.5,349.5 Z"/></g>
<g><path style="opacity:1" fill="#030202" d="M 225.5,336.5 C 226.984,339.12 228.317,341.954 229.5,345C 233.34,345.406 237.173,345.239 241,344.5C 244.154,344.689 247.154,345.356 250,346.5C 254.933,345.567 257.933,342.567 259,337.5C 261.085,341.875 260.918,346.042 258.5,350C 263.554,353.194 268.888,355.861 274.5,358C 284.644,359.696 294.644,362.029 304.5,365C 319.634,363.465 329.467,369.965 334,384.5C 337.012,393.773 335.512,402.106 329.5,409.5C 325.892,411.152 322.226,412.652 318.5,414C 308.172,414.5 297.839,414.666 287.5,414.5C 287.5,412.833 287.5,411.167 287.5,409.5C 271.167,409.5 254.833,409.5 238.5,409.5C 238.768,406.26 239.434,403.094 240.5,400C 246.998,395.111 247.164,389.944 241,384.5C 240.821,381.447 240.321,378.447 239.5,375.5C 234.294,377.457 229.794,376.457 226,372.5C 225.333,370.833 225.333,369.167 226,367.5C 229.031,362.931 230.031,357.931 229,352.5C 227.43,351.386 226.097,350.053 225,348.5C 224.503,344.476 224.669,340.476 225.5,336.5 Z"/></g>
<g><path style="opacity:1" fill="#f0f0f0" d="M 99.5,348.5 C 99.44,349.043 99.1067,349.376 98.5,349.5C 95.8333,347.833 93.1667,346.167 90.5,344.5C 87.8333,346.167 85.1667,347.833 82.5,349.5C 81.8933,349.376 81.56,349.043 81.5,348.5C 84.4926,345.199 87.4926,341.865 90.5,338.5C 93.5074,341.865 96.5074,345.199 99.5,348.5 Z"/></g>
<g><path style="opacity:1" fill="#bebebe" d="M 140.5,323.5 C 139.167,327.833 139.167,332.167 140.5,336.5C 144.069,335.811 147.569,334.811 151,333.5C 151.765,333.57 152.265,333.903 152.5,334.5C 150.37,336.127 148.37,337.96 146.5,340C 147.416,342.57 148.082,345.237 148.5,348C 148.519,349.792 148.186,350.292 147.5,349.5C 145.085,345.677 142.418,342.01 139.5,338.5C 137.008,341.163 134.674,343.996 132.5,347C 133.094,347.464 133.761,347.631 134.5,347.5C 133.235,348.479 131.901,349.479 130.5,350.5C 130.039,346.963 130.705,343.463 132.5,340C 129.354,337.688 126.354,335.188 123.5,332.5C 127.445,331.509 131.445,331.176 135.5,331.5C 135.854,327.77 137.187,324.437 139.5,321.5C 140.298,321.957 140.631,322.624 140.5,323.5 Z"/></g>
<g><path style="opacity:1" fill="#f1f1f1" d="M 147.5,349.5 C 144.447,348.223 141.614,346.556 139,344.5C 137.729,345.883 136.229,346.883 134.5,347.5C 133.761,347.631 133.094,347.464 132.5,347C 134.674,343.996 137.008,341.163 139.5,338.5C 142.418,342.01 145.085,345.677 147.5,349.5 Z"/></g>
<g><path style="opacity:1" fill="#acacac" d="M 91.5,322.5 C 90.3516,326.981 90.1849,331.648 91,336.5C 92.4424,334.609 93.6091,332.609 94.5,330.5C 98.1295,331.1 101.796,331.767 105.5,332.5C 105.145,333.522 104.478,334.189 103.5,334.5C 100.201,334.01 96.8672,334.677 93.5,336.5C 92.1667,337.167 92.1667,337.833 93.5,338.5C 94.7362,339.246 96.0695,339.579 97.5,339.5C 98.6336,342.37 99.3003,345.37 99.5,348.5C 96.5074,345.199 93.5074,341.865 90.5,338.5C 87.4926,341.865 84.4926,345.199 81.5,348.5C 81.6997,345.37 82.3664,342.37 83.5,339.5C 85.8421,339.496 87.8421,338.663 89.5,337C 85.7357,336.134 82.069,334.967 78.5,333.5C 77.8933,333.624 77.56,333.957 77.5,334.5C 76.5222,334.189 75.8555,333.522 75.5,332.5C 79.1073,331.511 82.774,331.177 86.5,331.5C 87.199,328.427 88.199,325.427 89.5,322.5C 90.2565,321.227 90.9232,321.227 91.5,322.5 Z"/></g>
<g><path style="opacity:1" fill="#aeaeae" d="M 186.5,322.5 C 185.167,327.167 185.167,331.833 186.5,336.5C 188.438,338.163 190.772,338.829 193.5,338.5C 193.141,342.002 193.808,345.502 195.5,349C 194.969,350.718 194.302,350.885 193.5,349.5C 193.938,349.565 194.272,349.399 194.5,349C 191.658,345.328 188.658,341.828 185.5,338.5C 182.493,341.865 179.493,345.199 176.5,348.5C 176.62,345.52 177.287,342.687 178.5,340C 177.944,339.617 177.611,339.117 177.5,338.5C 180.073,338.852 182.406,338.352 184.5,337C 181.06,336.018 177.727,334.851 174.5,333.5C 173.584,333.543 172.917,333.876 172.5,334.5C 171.522,334.189 170.855,333.522 170.5,332.5C 174.167,331.833 177.833,331.167 181.5,330.5C 182.564,327.373 183.897,324.373 185.5,321.5C 186.107,321.624 186.44,321.957 186.5,322.5 Z"/></g>
<g><path style="opacity:1" fill="#5d5d5d" d="M 236.5,346.5 C 243.973,346.82 243.973,348.487 236.5,351.5C 235.334,349.833 235.334,348.166 236.5,346.5 Z"/></g>
<g><path style="opacity:1" fill="#0c0c0c" d="M 18.5,351.5 C 19.2485,352.531 19.9152,353.698 20.5,355C 29.4938,355.5 38.4938,355.666 47.5,355.5C 47.281,354.325 47.6143,353.325 48.5,352.5C 49.4963,358.798 49.8297,365.132 49.5,371.5C 47.076,371.808 44.7427,371.474 42.5,370.5C 46.9482,368.262 48.6148,364.595 47.5,359.5C 43.5,359.5 39.5,359.5 35.5,359.5C 35.154,362.602 35.8207,365.435 37.5,368C 35.1667,368.667 32.8333,368.667 30.5,368C 34.0511,366.323 35.3845,363.49 34.5,359.5C 29.7863,359.173 25.1196,359.507 20.5,360.5C 19.4798,362.432 19.3131,364.432 20,366.5C 21.6837,368.351 23.5171,370.018 25.5,371.5C 23.4476,371.705 21.1143,371.705 18.5,371.5C 18.5,364.833 18.5,358.167 18.5,351.5 Z"/></g>
<g><path style="opacity:1" fill="#131313" d="M 371.5,350.5 C 373.199,350.34 374.866,350.506 376.5,351C 368.695,355.944 368.695,360.944 376.5,366C 384.313,368.645 391.646,367.812 398.5,363.5C 402.206,357.33 400.539,353.163 393.5,351C 397.475,349.621 400.309,350.787 402,354.5C 403.122,363.056 399.622,368.89 391.5,372C 374.614,373.978 367.947,366.811 371.5,350.5 Z"/></g>
<g><path style="opacity:1" fill="#eeeeee" d="M 91.5,358.5 C 92.3627,360.421 93.0293,362.421 93.5,364.5C 94.0365,367.665 93.2031,370.331 91,372.5C 90.1849,367.648 90.3516,362.981 91.5,358.5 Z"/></g>
<g><path style="opacity:1" fill="#ababab" d="M 186.5,358.5 C 185.352,362.981 185.185,367.648 186,372.5C 187.669,371.154 188.836,369.487 189.5,367.5C 193.273,367.263 196.94,367.763 200.5,369C 199.627,370.045 198.627,370.878 197.5,371.5C 197.265,370.903 196.765,370.57 196,370.5C 194.189,371.078 192.355,371.578 190.5,372C 188.68,372.2 187.347,373.034 186.5,374.5C 185.833,374.5 185.167,374.5 184.5,374.5C 181.706,372.654 178.539,371.32 175,370.5C 174.235,370.57 173.735,370.903 173.5,371.5C 172.373,370.878 171.373,370.045 170.5,369C 174.142,368.086 177.808,367.252 181.5,366.5C 182.564,363.373 183.897,360.373 185.5,357.5C 186.107,357.624 186.44,357.957 186.5,358.5 Z"/></g>
<g><path style="opacity:1" fill="#f1f1f1" d="M 186.5,358.5 C 187.698,361.426 188.698,364.426 189.5,367.5C 188.836,369.487 187.669,371.154 186,372.5C 185.185,367.648 185.352,362.981 186.5,358.5 Z"/></g>
<g><path style="opacity:1" fill="#606060" d="M 261.5,361.5 C 268.514,362.005 271.68,365.672 271,372.5C 266.632,375.201 263.799,379.034 262.5,384C 264.204,388.052 266.371,391.885 269,395.5C 269.49,396.793 269.657,398.127 269.5,399.5C 263.501,398.966 257.501,398.299 251.5,397.5C 255.655,395.815 259.988,395.149 264.5,395.5C 264.657,394.127 264.49,392.793 264,391.5C 260.991,388.158 257.657,385.158 254,382.5C 251.81,380.217 251.143,377.551 252,374.5C 254.333,372.5 256.667,370.5 259,368.5C 259.153,365.849 259.987,363.516 261.5,361.5 Z"/></g>
<g><path style="opacity:1" fill="#f2f2f2" d="M 140.5,359.5 C 141.73,361.297 142.396,363.297 142.5,365.5C 142.736,368.226 141.903,370.559 140,372.5C 139.186,367.98 139.353,363.646 140.5,359.5 Z"/></g>
<g><path style="opacity:1" fill="#606060" d="M 247.5,355.5 C 255.7,360.926 255.034,365.426 245.5,369C 243.326,372.37 240.326,374.203 236.5,374.5C 236.383,372.516 237.05,370.85 238.5,369.5C 237.833,368.833 237.167,368.167 236.5,367.5C 239.977,365.36 242.311,362.36 243.5,358.5C 244.736,359.246 246.07,359.579 247.5,359.5C 247.5,358.167 247.5,356.833 247.5,355.5 Z"/></g>
<g><path style="opacity:1" fill="#afafaf" d="M 91.5,358.5 C 90.3516,362.981 90.1849,367.648 91,372.5C 93.2031,370.331 94.0365,367.665 93.5,364.5C 94.404,365.209 94.7373,366.209 94.5,367.5C 98.2733,367.263 101.94,367.763 105.5,369C 104.956,369.717 104.289,370.217 103.5,370.5C 99.7193,370.032 96.0527,371.032 92.5,373.5C 94.0217,374.562 95.6883,375.229 97.5,375.5C 99.0873,379.023 99.5873,382.69 99,386.5C 98.0053,385.934 97.172,385.267 96.5,384.5C 97.525,384.103 97.6917,383.437 97,382.5C 95.0622,379.61 92.8955,376.944 90.5,374.5C 88.1741,376.997 86.0074,379.664 84,382.5C 83.3083,383.437 83.475,384.103 84.5,384.5C 83.4732,385.848 82.1398,386.348 80.5,386C 81.7311,382.577 82.7311,379.077 83.5,375.5C 85.3117,375.229 86.9783,374.562 88.5,373.5C 84.7921,371.675 81.1255,370.009 77.5,368.5C 80.2869,367.523 83.2869,367.19 86.5,367.5C 87.199,364.427 88.199,361.427 89.5,358.5C 90.2565,357.227 90.9232,357.227 91.5,358.5 Z"/></g>
<g><path style="opacity:1" fill="#f0f0f0" d="M 103.5,370.5 C 101.54,372.156 99.5398,373.823 97.5,375.5C 95.6883,375.229 94.0217,374.562 92.5,373.5C 96.0527,371.032 99.7193,370.032 103.5,370.5 Z"/></g>
<g><path style="opacity:1" fill="#eeeeee" d="M 132.5,375.5 C 129.891,374.557 127.891,372.89 126.5,370.5C 126.56,369.957 126.893,369.624 127.5,369.5C 130.91,370.911 134.243,372.411 137.5,374C 135.846,374.608 134.179,375.108 132.5,375.5 Z"/></g>
<g><path style="opacity:1" fill="#606060" d="M 312.5,369.5 C 316.229,369.576 319.562,370.743 322.5,373C 325.969,377.118 328.469,381.618 330,386.5C 326.047,383.1 321.547,381.267 316.5,381C 311.884,383.56 307.718,386.727 304,390.5C 302.663,394.338 302.163,398.171 302.5,402C 298.154,403.03 293.82,403.696 289.5,404C 293.38,402.24 297.214,400.407 301,398.5C 300.943,391.321 301.943,384.321 304,377.5C 306.098,373.897 308.932,371.23 312.5,369.5 Z"/></g>
<g><path style="opacity:1" fill="#eeeeee" d="M 152.5,370.5 C 150.54,372.156 148.54,373.823 146.5,375.5C 144.436,375.313 142.436,374.813 140.5,374C 144.012,372.216 147.679,370.716 151.5,369.5C 152.107,369.624 152.44,369.957 152.5,370.5 Z"/></g>
<g><path style="opacity:1" fill="#f3f3f3" d="M 184.5,374.5 C 182.435,374.517 180.435,374.85 178.5,375.5C 176.809,374.136 175.142,372.803 173.5,371.5C 173.735,370.903 174.235,370.57 175,370.5C 178.539,371.32 181.706,372.654 184.5,374.5 Z"/></g>
<g><path style="opacity:1" fill="#f2f2f2" d="M 197.5,371.5 C 195.858,372.803 194.191,374.136 192.5,375.5C 190.5,375.167 188.5,374.833 186.5,374.5C 187.347,373.034 188.68,372.2 190.5,372C 192.355,371.578 194.189,371.078 196,370.5C 196.765,370.57 197.265,370.903 197.5,371.5 Z"/></g>
<g><path style="opacity:1" fill="#f1f1f1" d="M 77.5,368.5 C 81.1255,370.009 84.7921,371.675 88.5,373.5C 86.9783,374.562 85.3117,375.229 83.5,375.5C 80.6806,373.581 78.014,371.415 75.5,369C 76.0944,368.536 76.7611,368.369 77.5,368.5 Z"/></g>
<g><path style="opacity:1" fill="#aeaeae" d="M 140.5,359.5 C 139.353,363.646 139.186,367.98 140,372.5C 141.903,370.559 142.736,368.226 142.5,365.5C 146.238,367.152 150.238,368.319 154.5,369C 153.956,369.717 153.289,370.217 152.5,370.5C 152.44,369.957 152.107,369.624 151.5,369.5C 147.679,370.716 144.012,372.216 140.5,374C 142.436,374.813 144.436,375.313 146.5,375.5C 147.592,379.115 148.092,382.782 148,386.5C 147.601,386.272 147.435,385.938 147.5,385.5C 145.159,381.502 142.326,377.836 139,374.5C 137,377.167 135,379.833 133,382.5C 132.308,383.437 132.475,384.103 133.5,384.5C 132.171,386.377 130.838,386.544 129.5,385C 130.273,381.733 131.273,378.566 132.5,375.5C 134.179,375.108 135.846,374.608 137.5,374C 134.243,372.411 130.91,370.911 127.5,369.5C 126.893,369.624 126.56,369.957 126.5,370.5C 125.244,370.539 124.244,370.039 123.5,369C 127.395,367.734 131.395,367.234 135.5,367.5C 135.854,363.77 137.187,360.437 139.5,357.5C 140.298,357.957 140.631,358.624 140.5,359.5 Z"/></g>
<g><path style="opacity:1" fill="#efefef" d="M 147.5,385.5 C 144.78,384.058 141.946,382.725 139,381.5C 137.235,382.632 135.402,383.632 133.5,384.5C 132.475,384.103 132.308,383.437 133,382.5C 135,379.833 137,377.167 139,374.5C 142.326,377.836 145.159,381.502 147.5,385.5 Z"/></g>
<g><path style="opacity:1" fill="#f1f1f1" d="M 96.5,384.5 C 94.4939,383.489 92.4939,382.489 90.5,381.5C 88.5061,382.489 86.5061,383.489 84.5,384.5C 83.475,384.103 83.3083,383.437 84,382.5C 86.0074,379.664 88.1741,376.997 90.5,374.5C 92.8955,376.944 95.0622,379.61 97,382.5C 97.6917,383.437 97.525,384.103 96.5,384.5 Z"/></g>
<g><path style="opacity:1" fill="#acacac" d="M 184.5,374.5 C 182.924,377.312 181.09,379.978 179,382.5C 178.308,383.437 178.475,384.103 179.5,384.5C 178.365,386.088 177.031,386.421 175.5,385.5C 176.755,382.208 177.755,378.875 178.5,375.5C 180.435,374.85 182.435,374.517 184.5,374.5 Z"/></g>
<g><path style="opacity:1" fill="#f1f1f1" d="M 184.5,374.5 C 185.167,374.5 185.833,374.5 186.5,374.5C 188.113,377.286 189.946,379.953 192,382.5C 192.692,383.437 192.525,384.103 191.5,384.5C 189.494,383.489 187.494,382.489 185.5,381.5C 183.506,382.489 181.506,383.489 179.5,384.5C 178.475,384.103 178.308,383.437 179,382.5C 181.09,379.978 182.924,377.312 184.5,374.5 Z"/></g>
<g><path style="opacity:1" fill="#a8a8a8" d="M 186.5,374.5 C 188.5,374.833 190.5,375.167 192.5,375.5C 193.393,378.68 194.393,381.846 195.5,385C 194.162,386.544 192.829,386.377 191.5,384.5C 192.525,384.103 192.692,383.437 192,382.5C 189.946,379.953 188.113,377.286 186.5,374.5 Z"/></g>
<g><path style="opacity:1" fill="#141414" d="M 18.5,377.5 C 19.2674,378.172 19.9341,379.005 20.5,380C 29.4938,380.5 38.4938,380.666 47.5,380.5C 47.281,379.325 47.6143,378.325 48.5,377.5C 49.6616,382.131 49.8283,386.798 49,391.5C 46.5647,396.224 42.7314,397.724 37.5,396C 36.3147,394.647 34.9814,393.48 33.5,392.5C 29.1667,394.333 24.8333,396.167 20.5,398C 19.8742,398.75 19.3742,399.584 19,400.5C 18.5034,398.19 18.3367,395.857 18.5,393.5C 22.8628,392.157 27.1961,390.657 31.5,389C 33.3937,387.921 33.727,386.587 32.5,385C 29.1667,384.333 25.8333,384.333 22.5,385C 20.6667,385.5 19.5,386.667 19,388.5C 18.5014,384.848 18.3347,381.182 18.5,377.5 Z"/></g>
<g><path style="opacity:1" fill="#e2e2e2" d="M 35.5,384.5 C 39.1817,384.335 42.8484,384.501 46.5,385C 47.9817,387.592 47.6483,389.925 45.5,392C 41.4087,393.227 37.9087,392.394 35,389.5C 34.3603,387.735 34.5269,386.068 35.5,384.5 Z"/></g>
<g><path style="opacity:1" fill="#020202" d="M 400.5,405.5 C 399.833,404.167 399.167,402.833 398.5,401.5C 397.284,399.549 395.618,398.049 393.5,397C 395.847,396.666 398.181,396.833 400.5,397.5C 400.5,400.167 400.5,402.833 400.5,405.5 Z"/></g>
<g><path style="opacity:1" fill="#f0f0f0" d="M 140.5,396.5 C 141.773,398.713 142.773,401.046 143.5,403.5C 142.343,405.138 141.176,406.804 140,408.5C 139.188,404.311 139.355,400.311 140.5,396.5 Z"/></g>
<g><path style="opacity:1" fill="#0d0d0d" d="M 398.5,407.5 C 399.833,410.5 399.833,413.5 398.5,416.5C 398.5,415.5 398.5,414.5 398.5,413.5C 389.174,413 379.841,412.667 370.5,412.5C 369.452,409.238 369.119,403.905 369.5,396.5C 377.102,395.582 377.935,396.916 372,400.5C 371.231,403.099 371.398,405.599 372.5,408C 376.152,408.499 379.818,408.665 383.5,408.5C 384.124,404.987 383.124,402.153 380.5,400C 383.5,399.333 386.5,399.333 389.5,400C 384.651,401.361 383.318,404.361 385.5,409C 389.5,409.667 393.5,409.667 397.5,409C 398.056,408.617 398.389,408.117 398.5,407.5 Z"/></g>
<g><path style="opacity:1" fill="#0d0d0d" d="M 38.5,404.5 C 43.0604,403.658 46.727,404.991 49.5,408.5C 48.8902,409.505 48.2236,409.338 47.5,408C 45.5,407.333 43.5,407.333 41.5,408C 39.1667,412.333 36.8333,416.667 34.5,421C 25.314,425.168 19.6474,422.502 17.5,413C 18.252,408.29 20.9187,406.623 25.5,408C 19.0026,410.841 18.0026,414.841 22.5,420C 25.7417,420.986 28.4083,420.152 30.5,417.5C 32.2275,414.713 33.3942,411.713 34,408.5C 35.3968,406.93 36.8968,405.596 38.5,404.5 Z"/></g>
<g><path style="opacity:1" fill="#b8b8b8" d="M 140.5,396.5 C 139.355,400.311 139.188,404.311 140,408.5C 141.176,406.804 142.343,405.138 143.5,403.5C 147.188,403.781 150.855,404.281 154.5,405C 151.958,407.711 149.291,410.211 146.5,412.5C 147.907,415.822 148.24,419.155 147.5,422.5C 146.893,422.376 146.56,422.043 146.5,421.5C 146.938,421.565 147.272,421.399 147.5,421C 144.635,417.308 141.635,413.808 138.5,410.5C 134.846,407.707 130.846,406.707 126.5,407.5C 125.373,406.878 124.373,406.045 123.5,405C 127.039,404.718 130.539,404.218 134,403.5C 135.792,401.047 137.292,398.38 138.5,395.5C 139.694,394.33 140.361,394.663 140.5,396.5 Z"/></g>
<g><path style="opacity:1" fill="#525353" d="M 330.5,398.5 C 331.344,402.001 330.011,404.834 326.5,407C 322.455,409.648 319.122,408.981 316.5,405C 323.336,407.769 328.003,405.602 330.5,398.5 Z"/></g>
<g><path style="opacity:1" fill="#ececec" d="M 126.5,407.5 C 130.846,406.707 134.846,407.707 138.5,410.5C 136.236,411.219 133.903,411.552 131.5,411.5C 129.833,410.167 128.167,408.833 126.5,407.5 Z"/></g>
<g><path style="opacity:1" fill="#868686" d="M 398.5,401.5 C 399.167,402.833 399.833,404.167 400.5,405.5C 400.824,409.555 400.491,413.555 399.5,417.5C 398.893,417.376 398.56,417.043 398.5,416.5C 399.833,413.5 399.833,410.5 398.5,407.5C 398.5,405.5 398.5,403.5 398.5,401.5 Z"/></g>
<g><path style="opacity:1" fill="#1a1a1a" d="M 49.5,410.5 C 50.4682,412.607 50.8016,414.941 50.5,417.5C 48.326,417.92 46.326,417.92 44.5,417.5C 47.3905,415.957 49.0571,413.624 49.5,410.5 Z"/></g>
<g><path style="opacity:1" fill="#eeeeee" d="M 138.5,410.5 C 141.635,413.808 144.635,417.308 147.5,421C 147.272,421.399 146.938,421.565 146.5,421.5C 144.031,420.431 141.698,419.098 139.5,417.5C 137.473,418.513 135.473,419.513 133.5,420.5C 132.957,420.44 132.624,420.107 132.5,419.5C 134.526,416.482 136.526,413.482 138.5,410.5 Z"/></g>
<g><path style="opacity:1" fill="#adadad" d="M 138.5,410.5 C 136.526,413.482 134.526,416.482 132.5,419.5C 132.624,420.107 132.957,420.44 133.5,420.5C 131.755,423.403 130.755,423.07 130.5,419.5C 131.095,416.86 131.428,414.193 131.5,411.5C 133.903,411.552 136.236,411.219 138.5,410.5 Z"/></g>
<g><path style="opacity:1" fill="#121212" d="M 49.5,420.5 C 51.2481,423.431 53.2481,426.264 55.5,429C 54.2575,429.311 53.2575,428.811 52.5,427.5C 45.6676,432.084 38.6676,436.417 31.5,440.5C 30.7022,442.078 30.2022,443.744 30,445.5C 28.5787,442.991 26.9121,440.657 25,438.5C 24.3333,437.5 24.3333,436.5 25,435.5C 26.0665,437.283 27.5665,437.783 29.5,437C 35.6645,432.75 41.9979,428.75 48.5,425C 49.3802,423.644 49.7135,422.144 49.5,420.5 Z"/></g>
<g><path style="opacity:1" fill="#121212" d="M 388.5,442.5 C 386.976,446.202 384.81,449.536 382,452.5C 381.781,451.062 381.281,449.729 380.5,448.5C 373.53,444.029 366.696,439.362 360,434.5C 357.893,438.515 357.227,438.182 358,433.5C 362.859,419.817 371.692,416.317 384.5,423C 392.061,428.388 393.394,434.888 388.5,442.5 Z"/></g>
<g><path style="opacity:1" fill="#f4f4f4" d="M 388.5,442.5 C 387.185,443.476 385.852,444.476 384.5,445.5C 377.5,441 370.5,436.5 363.5,432C 361.923,428.518 362.923,425.852 366.5,424C 375.678,422.722 382.845,425.889 388,433.5C 388.498,436.482 388.665,439.482 388.5,442.5 Z"/></g>
<g><path style="opacity:1" fill="#0f0f0f" d="M 103.5,472.5 C 100.833,471.833 98.1667,471.167 95.5,470.5C 97.9254,467.803 97.9254,464.803 95.5,461.5C 89.348,458.804 86.348,460.804 86.5,467.5C 86.6858,469.58 87.6858,471.08 89.5,472C 86.4459,472.821 83.4459,472.655 80.5,471.5C 81.325,470.614 82.325,470.281 83.5,470.5C 85.1722,465.737 86.8389,461.07 88.5,456.5C 88.5,457.5 88.5,458.5 88.5,459.5C 90.5,459.5 92.5,459.5 94.5,459.5C 94.191,455.577 92.8576,452.243 90.5,449.5C 90.7366,446.353 91.5699,443.353 93,440.5C 96.2493,449.408 99.2493,458.408 102,467.5C 102.637,469.303 103.803,470.636 105.5,471.5C 105.043,472.298 104.376,472.631 103.5,472.5 Z"/></g>
<g><path style="opacity:1" fill="#101010" d="M 175.5,440.5 C 177.141,443.276 178.641,446.276 180,449.5C 181.754,457.774 184.421,465.441 188,472.5C 184.924,471.712 181.758,471.212 178.5,471C 179.624,470.751 180.624,470.251 181.5,469.5C 180.366,466.93 179.532,464.264 179,461.5C 176.333,460.167 173.667,460.167 171,461.5C 170.047,464.432 169.547,467.432 169.5,470.5C 170.675,470.281 171.675,470.614 172.5,471.5C 169.5,472.833 166.5,472.833 163.5,471.5C 165.857,470.597 167.357,468.93 168,466.5C 169.356,461.078 171.023,455.745 173,450.5C 173.044,453.475 172.877,456.475 172.5,459.5C 174.167,459.5 175.833,459.5 177.5,459.5C 177.454,455.237 176.121,451.403 173.5,448C 174.871,445.681 175.538,443.181 175.5,440.5 Z"/></g>
<g><path style="opacity:1" fill="#040404" d="M 261.5,443.5 C 259.735,442.539 257.735,442.205 255.5,442.5C 255.173,451.682 255.507,460.682 256.5,469.5C 257.263,470.268 258.263,470.768 259.5,471C 254.557,471.961 251.89,471.795 251.5,470.5C 251.5,461.167 251.5,451.833 251.5,442.5C 247.568,442.26 244.734,443.927 243,447.5C 242.949,444.813 243.449,442.146 244.5,439.5C 247.638,440.744 250.972,441.411 254.5,441.5C 257.752,441.479 260.919,441.146 264,440.5C 264.667,443.167 264.667,445.833 264,448.5C 263.626,446.509 262.793,444.842 261.5,443.5 Z"/></g>
<g><path style="opacity:1" fill="#121212" d="M 56.5,435.5 C 65.1739,434.923 71.6739,438.589 76,446.5C 77.29,456.421 73.4566,463.587 64.5,468C 62.1667,468.667 59.8333,468.667 57.5,468C 53.0074,465.921 48.674,463.588 44.5,461C 45.938,460.781 47.2713,460.281 48.5,459.5C 52.0284,452.245 55.3617,444.912 58.5,437.5C 58.2528,436.287 57.5862,435.62 56.5,435.5 Z"/></g>
<g><path style="opacity:1" fill="#f4f4f4" d="M 63.5,438.5 C 67.5616,438.724 70.395,440.724 72,444.5C 73.225,452.434 70.725,458.934 64.5,464C 60.4807,466.16 56.6473,465.994 53,463.5C 52.3333,462.167 52.3333,460.833 53,459.5C 56.5133,452.473 60.0133,445.473 63.5,438.5 Z"/></g>
<g><path style="opacity:1" fill="#111111" d="M 112.5,440.5 C 129.029,438.861 136.195,446.194 134,462.5C 131.201,469.39 126.035,472.724 118.5,472.5C 115.151,472.108 111.817,471.608 108.5,471C 109.448,470.517 110.448,470.351 111.5,470.5C 111.5,461.5 111.5,452.5 111.5,443.5C 110.325,443.719 109.325,443.386 108.5,442.5C 109.949,441.828 111.282,441.161 112.5,440.5 Z"/></g>
<g><path style="opacity:1" fill="#0c0c0c" d="M 316.5,472.5 C 313.833,471.833 311.167,471.167 308.5,470.5C 309.649,470.209 310.316,469.376 310.5,468C 309.678,465.528 309.011,463.028 308.5,460.5C 299.45,459.753 297.116,463.42 301.5,471.5C 296.167,472.833 290.833,472.833 285.5,471.5C 284.117,467.066 282.45,462.732 280.5,458.5C 279.311,457.571 277.978,457.238 276.5,457.5C 276.334,461.514 276.501,465.514 277,469.5C 277.671,470.252 278.504,470.586 279.5,470.5C 276.167,471.833 272.833,471.833 269.5,470.5C 270.5,470.5 271.5,470.5 272.5,470.5C 272.5,461.167 272.5,451.833 272.5,442.5C 274.401,441.313 278.401,441.146 284.5,442C 288.212,444.513 289.378,448.013 288,452.5C 286.639,454.028 285.472,455.695 284.5,457.5C 286.157,461.46 287.823,465.46 289.5,469.5C 291.695,470.769 293.861,470.769 296,469.5C 297.766,464.683 299.599,460.017 301.5,455.5C 302.358,450.404 303.691,445.404 305.5,440.5C 308.791,448.66 311.625,456.994 314,465.5C 314.782,468.076 316.282,470.076 318.5,471.5C 318.043,472.298 317.376,472.631 316.5,472.5 Z"/></g>
<g><path style="opacity:1" fill="#f1f1f1" d="M 116.5,442.5 C 122.695,441.345 126.861,443.678 129,449.5C 130.127,455.755 129.46,461.755 127,467.5C 123.49,470.864 119.823,471.197 116,468.5C 115.198,459.755 115.364,451.088 116.5,442.5 Z"/></g>
<g><path style="opacity:1" fill="#131313" d="M 189.5,442.5 C 194.219,441.145 196.886,441.145 197.5,442.5C 197.334,451.173 197.5,459.84 198,468.5C 202,472.5 206,472.5 210,468.5C 210.5,459.84 210.666,451.173 210.5,442.5C 211.167,441.167 211.833,441.167 212.5,442.5C 212.666,450.507 212.5,458.507 212,466.5C 210.878,471.286 207.878,473.286 203,472.5C 197.913,473.294 194.58,471.294 193,466.5C 192.5,458.507 192.334,450.507 192.5,442.5C 191.5,442.5 190.5,442.5 189.5,442.5 Z"/></g>
<g><path style="opacity:1" fill="#111111" d="M 221.5,470.5 C 221.205,468.265 221.539,466.265 222.5,464.5C 223.482,471.574 226.982,473.24 233,469.5C 233.667,467.167 233.667,464.833 233,462.5C 229.333,459.5 225.667,456.5 222,453.5C 219.945,443.889 223.779,439.722 233.5,441C 235.457,443.121 235.957,445.621 235,448.5C 234.355,442.986 231.522,440.986 226.5,442.5C 223.833,445.167 223.833,447.833 226.5,450.5C 230.629,452.317 234.129,454.984 237,458.5C 238.332,469.499 233.499,473.999 222.5,472C 221.944,471.617 221.611,471.117 221.5,470.5 Z"/></g>
<g><path style="opacity:1" fill="#080808" d="M 330.5,442.5 C 329.174,446.614 328.507,451.114 328.5,456C 328.501,460.68 328.834,465.18 329.5,469.5C 330.946,470.613 332.613,470.78 334.5,470C 336.105,468.64 337.605,467.14 339,465.5C 339.497,467.81 339.663,470.143 339.5,472.5C 338.167,472.5 336.833,472.5 335.5,472.5C 330.833,471.833 326.167,471.167 321.5,470.5C 322.496,470.586 323.329,470.252 324,469.5C 324.667,460.833 324.667,452.167 324,443.5C 323.25,442.874 322.416,442.374 321.5,442C 325.283,441.195 328.283,441.362 330.5,442.5 Z"/></g>
<g><path style="opacity:1" fill="#e9e9e9" d="M 277.5,442.5 C 282.111,442.444 284.444,444.777 284.5,449.5C 283.863,454.131 281.196,456.131 276.5,455.5C 276.231,451.069 276.564,446.735 277.5,442.5 Z"/></g>
<g><path style="opacity:1" fill="#8b8b8b" d="M 261.5,443.5 C 259.833,443.5 258.167,443.5 256.5,443.5C 256.5,452.167 256.5,460.833 256.5,469.5C 255.507,460.682 255.173,451.682 255.5,442.5C 257.735,442.205 259.735,442.539 261.5,443.5 Z"/></g>
<g><path style="opacity:1" fill="#c0c0c0" d="M 330.5,442.5 C 329.529,451.416 329.196,460.416 329.5,469.5C 328.834,465.18 328.501,460.68 328.5,456C 328.507,451.114 329.174,446.614 330.5,442.5 Z"/></g>
<g><path style="opacity:1" fill="#070707" d="M 90.5,449.5 C 90.5905,452.152 89.9238,454.485 88.5,456.5C 88.4095,453.848 89.0762,451.515 90.5,449.5 Z"/></g>
<g><path style="opacity:1" fill="#d3d3d3" d="M 90.5,449.5 C 92.8576,452.243 94.191,455.577 94.5,459.5C 92.5,459.5 90.5,459.5 88.5,459.5C 88.5,458.5 88.5,457.5 88.5,456.5C 89.9238,454.485 90.5905,452.152 90.5,449.5 Z"/></g>
<g><path style="opacity:1" fill="#d3d3d3" d="M 301.5,455.5 C 302.482,453.594 303.482,451.594 304.5,449.5C 305.515,452.854 306.515,456.188 307.5,459.5C 305.5,459.5 303.5,459.5 301.5,459.5C 301.5,458.167 301.5,456.833 301.5,455.5 Z"/></g>
<g><path style="opacity:1" fill="#6a6a6a" d="M 222.5,464.5 C 221.539,466.265 221.205,468.265 221.5,470.5C 220.203,468.307 220.203,465.973 221.5,463.5C 222.107,463.624 222.44,463.957 222.5,464.5 Z"/></g>
<g><path style="opacity:1" fill="#898989" d="M 95.5,470.5 C 98.1667,471.167 100.833,471.833 103.5,472.5C 100.428,472.817 97.4281,472.484 94.5,471.5C 94.6236,470.893 94.9569,470.56 95.5,470.5 Z"/></g>
<g><path style="opacity:1" fill="#8e8e8e" d="M 269.5,470.5 C 272.833,471.833 276.167,471.833 279.5,470.5C 280.043,470.56 280.376,470.893 280.5,471.5C 276.5,472.833 272.5,472.833 268.5,471.5C 268.624,470.893 268.957,470.56 269.5,470.5 Z"/></g>
<g><path style="opacity:1" fill="#898989" d="M 308.5,470.5 C 311.167,471.167 313.833,471.833 316.5,472.5C 313.428,472.817 310.428,472.484 307.5,471.5C 307.624,470.893 307.957,470.56 308.5,470.5 Z"/></g>
<g><path style="opacity:1" fill="#8d8d8d" d="M 321.5,470.5 C 326.167,471.167 330.833,471.833 335.5,472.5C 330.456,472.827 325.456,472.494 320.5,471.5C 320.624,470.893 320.957,470.56 321.5,470.5 Z"/></g>
<g><path style="opacity:0.039" fill="#d0d0d0" d="M 208.5,509.5 C 209.167,509.5 209.833,509.5 210.5,509.5C 210.5,510.167 210.5,510.833 210.5,511.5C 209.833,511.5 209.167,511.5 208.5,511.5C 208.5,510.833 208.5,510.167 208.5,509.5 Z"/></g>
</svg>
