<?xml version="1.0" standalone="no"?>
<!DOCTYPE svg PUBLIC "-//W3C//DTD SVG 20010904//EN"
 "http://www.w3.org/TR/2001/REC-SVG-20010904/DTD/svg10.dtd">
<svg version="1.0" xmlns="http://www.w3.org/2000/svg"
 width="84.000000pt" height="93.000000pt" viewBox="0 0 84.000000 93.000000"
 preserveAspectRatio="xMidYMid meet">

<g transform="translate(0.000000,93.000000) scale(0.100000,-0.100000)"
fill="#000000" stroke="none">
<path d="M327 909 c-67 -16 -151 -65 -152 -89 0 -9 -35 -54 -35 -46 0 5 7 18
17 28 9 10 11 18 5 18 -14 0 -68 -89 -80 -131 -14 -54 -5 -123 26 -183 33 -67
145 -152 210 -161 15 -2 35 -6 45 -10 15 -6 17 0 17 48 l0 56 -55 31 c-54 31
-94 74 -82 87 4 3 34 -6 68 -21 33 -15 62 -26 65 -24 2 3 -19 15 -47 28 -31
15 -56 35 -65 52 -17 32 -14 34 26 13 40 -21 80 -36 80 -30 0 3 -17 13 -37 24
-36 18 -70 57 -60 68 3 2 19 -3 36 -11 41 -22 44 -20 16 9 -44 43 -29 58 28
29 l32 -17 -32 31 c-44 41 -42 55 5 35 36 -15 37 -15 20 4 -24 26 -24 47 -1
34 15 -8 20 -4 29 27 10 30 12 -10 13 -215 1 -138 5 -254 10 -257 15 -9 111
13 166 38 72 33 120 78 152 144 69 141 1 294 -165 370 -62 28 -182 38 -255 21z"/>
<path d="M534 209 c-41 -12 -58 -33 -50 -63 11 -46 113 -58 159 -18 52 46 -27
105 -109 81z m66 -34 c10 -12 10 -18 0 -30 -17 -20 -56 -19 -64 1 -14 36 39
59 64 29z"/>
<path d="M30 193 c0 -10 -3 -35 -6 -55 -6 -36 -5 -38 19 -38 29 0 37 16 37 71
0 35 -3 39 -25 39 -17 0 -25 -6 -25 -17z"/>
<path d="M127 203 c-4 -3 -7 -28 -7 -55 0 -41 3 -48 20 -48 15 0 20 7 20 24 0
37 14 39 34 5 12 -21 25 -29 45 -29 25 0 29 5 35 38 10 64 8 74 -16 70 -17 -2
-24 -11 -26 -32 l-4 -29 -19 32 c-14 23 -26 31 -47 31 -16 0 -32 -3 -35 -7z"/>
<path d="M340 171 c0 -22 -3 -46 -6 -55 -5 -12 0 -16 21 -16 18 0 29 6 32 19
3 11 14 21 26 23 31 5 34 28 3 28 -14 0 -26 5 -26 10 0 6 13 10 29 10 17 0 33
5 36 10 4 6 -17 10 -54 10 l-61 0 0 -39z"/>
<path d="M690 186 c0 -13 -3 -38 -6 -55 -6 -28 -4 -31 20 -31 24 0 26 4 26 39
0 43 11 57 38 46 16 -6 15 -8 -2 -21 -16 -12 -18 -18 -8 -39 15 -33 57 -36 49
-2 -3 12 1 31 8 41 23 31 2 46 -66 46 -55 0 -59 -1 -59 -24z"/>
<path d="M20 40 c0 -20 7 -20 406 -20 381 0 405 1 402 17 -3 17 -31 18 -406
20 -396 3 -402 3 -402 -17z"/>
</g>
</svg>
