<?xml version="1.0" standalone="no"?>
<!DOCTYPE svg PUBLIC "-//W3C//DTD SVG 20010904//EN"
 "http://www.w3.org/TR/2001/REC-SVG-20010904/DTD/svg10.dtd">
<svg version="1.0" xmlns="http://www.w3.org/2000/svg"
 width="1280.000000pt" height="1277.000000pt" viewBox="0 0 1280.000000 1277.000000"
 preserveAspectRatio="xMidYMid meet">
<metadata>
Created by potrace 1.15, written by Peter Selinger 2001-2017
</metadata>
<g transform="translate(0.000000,1277.000000) scale(0.100000,-0.100000)"
fill="#000000" stroke="none">
<path d="M10010 12756 c-67 -18 -116 -51 -160 -110 -21 -28 -204 -215 -407
-416 -623 -618 -2233 -2220 -3863 -3845 -855 -853 -2202 -2195 -2992 -2983
l-1437 -1433 -71 -247 c-39 -136 -98 -337 -130 -447 -32 -110 -113 -389 -180
-620 -67 -231 -169 -582 -227 -780 -58 -198 -140 -481 -183 -630 -70 -240
-253 -871 -331 -1139 -16 -55 -27 -101 -26 -103 2 -1 129 33 283 78 153 44
511 147 794 229 283 82 758 219 1055 305 297 85 833 239 1190 342 l650 186
205 201 c113 110 822 815 1575 1566 5487 5468 6968 6947 6980 6969 85 154 85
284 0 531 -230 668 -1076 1613 -1866 2085 -359 214 -676 311 -859 261z"/>
</g>
</svg>
